<mxfile host="app.diagrams.net" modified="2022-03-21T08:17:59.039Z" agent="5.0 (Windows NT 10.0; Win64; x64) AppleWebKit/537.36 (KHTML, like Gecko) Chrome/99.0.4844.74 Safari/537.36" etag="4Ab9RPPHAmHFKxzKsB08" version="17.1.2" type="github" pages="3">
  <diagram id="i9xB6vIa-M3ynYu9pXNj" name="spdk_ceph">
    <mxGraphModel dx="677" dy="425" grid="1" gridSize="10" guides="1" tooltips="1" connect="1" arrows="1" fold="1" page="1" pageScale="1" pageWidth="827" pageHeight="1169" math="0" shadow="0">
      <root>
        <mxCell id="KVv1kEaTQHlU4v2rQUdV-0" />
        <mxCell id="KVv1kEaTQHlU4v2rQUdV-1" parent="KVv1kEaTQHlU4v2rQUdV-0" />
        <mxCell id="cXr7WVBPz9ogLk4yMUwH-47" value="" style="rounded=1;whiteSpace=wrap;html=1;strokeWidth=1;fillWeight=4;hachureGap=8;hachureAngle=45;sketch=0;shadow=0;fontSize=12;arcSize=7;fillColor=#f5f5f5;fontColor=#333333;strokeColor=#666666;" parent="KVv1kEaTQHlU4v2rQUdV-1" vertex="1">
          <mxGeometry x="30" y="390" width="320" height="240" as="geometry" />
        </mxCell>
        <mxCell id="0sue6VcQbt1Bg0ZOExd2-22" value="" style="edgeStyle=none;rounded=0;sketch=0;orthogonalLoop=1;jettySize=auto;html=1;entryX=0.366;entryY=-0.023;entryDx=0;entryDy=0;entryPerimeter=0;" edge="1" parent="KVv1kEaTQHlU4v2rQUdV-1" source="0sue6VcQbt1Bg0ZOExd2-10" target="cXr7WVBPz9ogLk4yMUwH-50">
          <mxGeometry relative="1" as="geometry">
            <mxPoint x="150" y="580" as="targetPoint" />
          </mxGeometry>
        </mxCell>
        <mxCell id="0sue6VcQbt1Bg0ZOExd2-10" value="" style="rounded=1;whiteSpace=wrap;html=1;strokeWidth=1;fillWeight=4;hachureGap=8;hachureAngle=45;sketch=0;shadow=0;fontSize=12;dashed=1;" vertex="1" parent="KVv1kEaTQHlU4v2rQUdV-1">
          <mxGeometry x="40" y="490" width="220" height="70" as="geometry" />
        </mxCell>
        <mxCell id="0sue6VcQbt1Bg0ZOExd2-15" style="edgeStyle=none;rounded=0;sketch=0;orthogonalLoop=1;jettySize=auto;html=1;entryX=0.31;entryY=-0.003;entryDx=0;entryDy=0;entryPerimeter=0;exitX=0.525;exitY=1;exitDx=0;exitDy=0;exitPerimeter=0;" edge="1" parent="KVv1kEaTQHlU4v2rQUdV-1" source="0sue6VcQbt1Bg0ZOExd2-7" target="0sue6VcQbt1Bg0ZOExd2-10">
          <mxGeometry relative="1" as="geometry" />
        </mxCell>
        <mxCell id="0sue6VcQbt1Bg0ZOExd2-7" value="" style="rounded=1;whiteSpace=wrap;html=1;strokeWidth=1;fillWeight=4;hachureGap=8;hachureAngle=45;sketch=0;shadow=0;fontSize=12;dashed=1;" vertex="1" parent="KVv1kEaTQHlU4v2rQUdV-1">
          <mxGeometry x="40" y="400" width="130" height="70" as="geometry" />
        </mxCell>
        <mxCell id="jMSZclvPMDg9KpN3KZ3v-12" value="" style="rounded=1;whiteSpace=wrap;html=1;strokeWidth=2;fillWeight=4;hachureGap=8;hachureAngle=45;sketch=0;shadow=0;fontSize=12;fillColor=#f8cecc;strokeColor=#b85450;" vertex="1" parent="KVv1kEaTQHlU4v2rQUdV-1">
          <mxGeometry x="50" y="500" width="120" height="50" as="geometry" />
        </mxCell>
        <mxCell id="Koe82VBvhuAH663OS3Ru-2" value="" style="rounded=1;whiteSpace=wrap;html=1;strokeWidth=1;fillWeight=4;hachureGap=8;hachureAngle=45;sketch=0;shadow=0;fontSize=12;dashed=1;fillColor=#eeeeee;strokeColor=#36393d;" vertex="1" parent="KVv1kEaTQHlU4v2rQUdV-1">
          <mxGeometry x="40" y="130" width="290" height="80" as="geometry" />
        </mxCell>
        <mxCell id="iyDkHT15qDth0Hbrwp5u-0" value="" style="rounded=1;whiteSpace=wrap;html=1;strokeWidth=1;fillWeight=4;hachureGap=8;hachureAngle=45;sketch=0;shadow=0;fontSize=12;arcSize=10;dashed=1;fillColor=#eeeeee;strokeColor=#36393d;" parent="KVv1kEaTQHlU4v2rQUdV-1" vertex="1">
          <mxGeometry x="360" y="70" width="200" height="120" as="geometry" />
        </mxCell>
        <mxCell id="8o0k4oYvMyt-2cOQT7aP-73" value="" style="rounded=1;whiteSpace=wrap;html=1;strokeWidth=1;fillWeight=4;hachureGap=8;hachureAngle=45;sketch=0;shadow=0;fontSize=12;arcSize=10;glass=0;strokeColor=#6c8ebf;dashed=1;fillColor=#dae8fc;" parent="KVv1kEaTQHlU4v2rQUdV-1" vertex="1">
          <mxGeometry x="360" y="190" width="200" height="120" as="geometry" />
        </mxCell>
        <mxCell id="8o0k4oYvMyt-2cOQT7aP-78" style="edgeStyle=orthogonalEdgeStyle;curved=1;rounded=0;sketch=0;orthogonalLoop=1;jettySize=auto;html=1;entryX=0.5;entryY=0;entryDx=0;entryDy=0;" parent="KVv1kEaTQHlU4v2rQUdV-1" source="8o0k4oYvMyt-2cOQT7aP-75" target="8o0k4oYvMyt-2cOQT7aP-77" edge="1">
          <mxGeometry relative="1" as="geometry" />
        </mxCell>
        <mxCell id="8o0k4oYvMyt-2cOQT7aP-75" value="iscsi(protocol)&lt;br&gt;subsystem" style="rounded=1;whiteSpace=wrap;html=1;strokeWidth=2;fillWeight=4;hachureGap=8;hachureAngle=45;sketch=0;shadow=0;fontSize=12;fontColor=#000000;fillColor=#FFFFFF;" parent="KVv1kEaTQHlU4v2rQUdV-1" vertex="1">
          <mxGeometry x="430" y="80" width="120" height="40" as="geometry" />
        </mxCell>
        <UserObject label="storage&lt;br&gt;protocol" placeholders="1" name="Variable" id="8o0k4oYvMyt-2cOQT7aP-76">
          <mxCell style="text;html=1;strokeColor=none;fillColor=none;align=center;verticalAlign=middle;whiteSpace=wrap;overflow=hidden;" parent="KVv1kEaTQHlU4v2rQUdV-1" vertex="1">
            <mxGeometry x="370" y="80" width="50" height="40" as="geometry" />
          </mxCell>
        </UserObject>
        <mxCell id="8o0k4oYvMyt-2cOQT7aP-80" style="edgeStyle=orthogonalEdgeStyle;curved=1;rounded=0;sketch=0;orthogonalLoop=1;jettySize=auto;html=1;entryX=0.5;entryY=0;entryDx=0;entryDy=0;" parent="KVv1kEaTQHlU4v2rQUdV-1" source="8o0k4oYvMyt-2cOQT7aP-77" target="8o0k4oYvMyt-2cOQT7aP-79" edge="1">
          <mxGeometry relative="1" as="geometry" />
        </mxCell>
        <mxCell id="8o0k4oYvMyt-2cOQT7aP-77" value="scsi&lt;br&gt;subsystem" style="rounded=1;whiteSpace=wrap;html=1;strokeWidth=2;fillWeight=4;hachureGap=8;hachureAngle=45;sketch=0;shadow=0;fontSize=12;fontColor=#000000;fillColor=#FFFFFF;" parent="KVv1kEaTQHlU4v2rQUdV-1" vertex="1">
          <mxGeometry x="430" y="140" width="120" height="40" as="geometry" />
        </mxCell>
        <mxCell id="8o0k4oYvMyt-2cOQT7aP-84" style="edgeStyle=orthogonalEdgeStyle;rounded=0;sketch=0;orthogonalLoop=1;jettySize=auto;html=1;curved=1;exitX=0.167;exitY=1.005;exitDx=0;exitDy=0;entryX=0.898;entryY=0.005;entryDx=0;entryDy=0;exitPerimeter=0;entryPerimeter=0;" parent="KVv1kEaTQHlU4v2rQUdV-1" target="8o0k4oYvMyt-2cOQT7aP-82" edge="1">
          <mxGeometry relative="1" as="geometry">
            <mxPoint x="442.0400000000001" y="240.2" as="sourcePoint" />
            <mxPoint x="441.52" y="263.24" as="targetPoint" />
          </mxGeometry>
        </mxCell>
        <mxCell id="8o0k4oYvMyt-2cOQT7aP-85" style="edgeStyle=orthogonalEdgeStyle;curved=1;rounded=0;sketch=0;orthogonalLoop=1;jettySize=auto;html=1;exitX=0.75;exitY=1;exitDx=0;exitDy=0;entryX=0.621;entryY=-0.003;entryDx=0;entryDy=0;entryPerimeter=0;" parent="KVv1kEaTQHlU4v2rQUdV-1" source="8o0k4oYvMyt-2cOQT7aP-79" target="8o0k4oYvMyt-2cOQT7aP-83" edge="1">
          <mxGeometry relative="1" as="geometry">
            <mxPoint x="490" y="241" as="sourcePoint" />
            <mxPoint x="477" y="259" as="targetPoint" />
            <Array as="points" />
          </mxGeometry>
        </mxCell>
        <mxCell id="8o0k4oYvMyt-2cOQT7aP-79" value="bdev&lt;br&gt;subsystem" style="rounded=1;whiteSpace=wrap;html=1;strokeWidth=2;fillWeight=4;hachureGap=8;hachureAngle=45;sketch=0;shadow=0;fontSize=12;fontColor=#000000;fillColor=#FFFFFF;" parent="KVv1kEaTQHlU4v2rQUdV-1" vertex="1">
          <mxGeometry x="430" y="200" width="120" height="40" as="geometry" />
        </mxCell>
        <UserObject label="storage&lt;br&gt;service" placeholders="1" name="Variable" id="8o0k4oYvMyt-2cOQT7aP-81">
          <mxCell style="text;html=1;strokeColor=none;fillColor=none;align=center;verticalAlign=middle;whiteSpace=wrap;overflow=hidden;" parent="KVv1kEaTQHlU4v2rQUdV-1" vertex="1">
            <mxGeometry x="370" y="200" width="50" height="40" as="geometry" />
          </mxCell>
        </UserObject>
        <mxCell id="8o0k4oYvMyt-2cOQT7aP-82" value="other module" style="rounded=1;whiteSpace=wrap;html=1;strokeWidth=2;fillWeight=4;hachureGap=8;hachureAngle=45;sketch=0;shadow=0;fontSize=12;fontColor=#000000;fillColor=#FFFFFF;" parent="KVv1kEaTQHlU4v2rQUdV-1" vertex="1">
          <mxGeometry x="370" y="260" width="80" height="40" as="geometry" />
        </mxCell>
        <mxCell id="8o0k4oYvMyt-2cOQT7aP-83" value="rbd module&lt;br&gt;(librbd)" style="rounded=1;whiteSpace=wrap;html=1;strokeWidth=2;fillWeight=4;hachureGap=8;hachureAngle=45;sketch=0;shadow=0;fontSize=12;fontColor=#000000;fillColor=#FFFFFF;" parent="KVv1kEaTQHlU4v2rQUdV-1" vertex="1">
          <mxGeometry x="470" y="260" width="80" height="40" as="geometry" />
        </mxCell>
        <mxCell id="cXr7WVBPz9ogLk4yMUwH-32" value="port_group&lt;br&gt;(ip + port)" style="rounded=1;whiteSpace=wrap;html=1;strokeWidth=2;fillWeight=4;hachureGap=8;hachureAngle=45;sketch=0;shadow=0;fontSize=12;fillColor=#dae8fc;strokeColor=#6c8ebf;" parent="KVv1kEaTQHlU4v2rQUdV-1" vertex="1">
          <mxGeometry x="50" y="410" width="70" height="50" as="geometry" />
        </mxCell>
        <mxCell id="0sue6VcQbt1Bg0ZOExd2-16" style="edgeStyle=none;rounded=0;sketch=0;orthogonalLoop=1;jettySize=auto;html=1;entryX=0.893;entryY=-0.004;entryDx=0;entryDy=0;entryPerimeter=0;exitX=0.261;exitY=1.002;exitDx=0;exitDy=0;exitPerimeter=0;" edge="1" parent="KVv1kEaTQHlU4v2rQUdV-1" source="cXr7WVBPz9ogLk4yMUwH-34" target="0sue6VcQbt1Bg0ZOExd2-10">
          <mxGeometry relative="1" as="geometry" />
        </mxCell>
        <mxCell id="cXr7WVBPz9ogLk4yMUwH-34" value="" style="rounded=1;whiteSpace=wrap;html=1;strokeWidth=1;fillWeight=4;hachureGap=8;hachureAngle=45;sketch=0;shadow=0;fontSize=12;fontColor=#000000;fillColor=#FFFFFF;dashed=1;" parent="KVv1kEaTQHlU4v2rQUdV-1" vertex="1">
          <mxGeometry x="200" y="400" width="140" height="70" as="geometry" />
        </mxCell>
        <mxCell id="cXr7WVBPz9ogLk4yMUwH-33" value="initiator_group&lt;br&gt;(ip + netmask)" style="rounded=1;whiteSpace=wrap;html=1;strokeWidth=2;fillWeight=4;hachureGap=8;hachureAngle=45;sketch=0;shadow=0;fontSize=12;fillColor=#fff2cc;strokeColor=#d6b656;" parent="KVv1kEaTQHlU4v2rQUdV-1" vertex="1">
          <mxGeometry x="210" y="410" width="80" height="50" as="geometry" />
        </mxCell>
        <mxCell id="cXr7WVBPz9ogLk4yMUwH-50" value="" style="rounded=1;whiteSpace=wrap;html=1;strokeWidth=1;fillWeight=1;hachureGap=4;hachureAngle=45;sketch=0;shadow=0;fontSize=12;dashed=1;" parent="KVv1kEaTQHlU4v2rQUdV-1" vertex="1">
          <mxGeometry x="40" y="582" width="300" height="38" as="geometry" />
        </mxCell>
        <mxCell id="8o0k4oYvMyt-2cOQT7aP-2" value="" style="rounded=1;whiteSpace=wrap;html=1;strokeWidth=2;fillWeight=4;hachureGap=8;hachureAngle=45;sketch=0;shadow=0;fontSize=12;" parent="KVv1kEaTQHlU4v2rQUdV-1" vertex="1">
          <mxGeometry x="50" y="60" width="120" height="40" as="geometry" />
        </mxCell>
        <mxCell id="8o0k4oYvMyt-2cOQT7aP-3" value="redirector" style="rounded=1;whiteSpace=wrap;html=1;strokeWidth=2;fillWeight=4;hachureGap=8;hachureAngle=45;sketch=0;shadow=0;fontSize=12;" parent="KVv1kEaTQHlU4v2rQUdV-1" vertex="1">
          <mxGeometry x="50" y="140" width="120" height="40" as="geometry" />
        </mxCell>
        <mxCell id="8o0k4oYvMyt-2cOQT7aP-7" style="edgeStyle=orthogonalEdgeStyle;rounded=0;orthogonalLoop=1;jettySize=auto;html=1;entryX=0.505;entryY=-0.065;entryDx=0;entryDy=0;entryPerimeter=0;curved=1;sketch=0;exitX=0.5;exitY=1;exitDx=0;exitDy=0;" parent="KVv1kEaTQHlU4v2rQUdV-1" source="8o0k4oYvMyt-2cOQT7aP-2" target="8o0k4oYvMyt-2cOQT7aP-3" edge="1">
          <mxGeometry x="40" y="40" as="geometry" />
        </mxCell>
        <mxCell id="8o0k4oYvMyt-2cOQT7aP-12" value="redirect" style="edgeLabel;html=1;align=center;verticalAlign=middle;resizable=0;points=[];" parent="8o0k4oYvMyt-2cOQT7aP-7" vertex="1" connectable="0">
          <mxGeometry x="-0.1329" y="-4" relative="1" as="geometry">
            <mxPoint x="-22" y="-1" as="offset" />
          </mxGeometry>
        </mxCell>
        <mxCell id="8o0k4oYvMyt-2cOQT7aP-4" value="" style="rounded=1;whiteSpace=wrap;html=1;strokeWidth=2;fillWeight=4;hachureGap=8;hachureAngle=45;sketch=0;shadow=0;fontSize=12;fontColor=#000000;fillColor=#FFFFFF;" parent="KVv1kEaTQHlU4v2rQUdV-1" vertex="1">
          <mxGeometry x="180" y="140" width="120" height="40" as="geometry" />
        </mxCell>
        <mxCell id="8o0k4oYvMyt-2cOQT7aP-8" style="edgeStyle=orthogonalEdgeStyle;curved=1;rounded=0;sketch=0;orthogonalLoop=1;jettySize=auto;html=1;entryX=0.5;entryY=0;entryDx=0;entryDy=0;exitX=0.5;exitY=1;exitDx=0;exitDy=0;" parent="KVv1kEaTQHlU4v2rQUdV-1" source="8o0k4oYvMyt-2cOQT7aP-2" target="8o0k4oYvMyt-2cOQT7aP-4" edge="1">
          <mxGeometry x="40" y="40" as="geometry" />
        </mxCell>
        <mxCell id="8o0k4oYvMyt-2cOQT7aP-5" value="" style="rounded=1;whiteSpace=wrap;html=1;strokeWidth=2;fillWeight=4;hachureGap=8;hachureAngle=45;sketch=0;shadow=0;fontSize=12;fontColor=#000000;fillColor=#FFFFFF;" parent="KVv1kEaTQHlU4v2rQUdV-1" vertex="1">
          <mxGeometry x="190" y="150" width="120" height="40" as="geometry" />
        </mxCell>
        <mxCell id="8o0k4oYvMyt-2cOQT7aP-6" value="" style="rounded=1;whiteSpace=wrap;html=1;strokeWidth=2;fillWeight=4;hachureGap=8;hachureAngle=45;sketch=0;shadow=0;fontSize=12;fontColor=#000000;fillColor=#FFFFFF;" parent="KVv1kEaTQHlU4v2rQUdV-1" vertex="1">
          <mxGeometry x="200" y="160" width="120" height="40" as="geometry" />
        </mxCell>
        <mxCell id="8o0k4oYvMyt-2cOQT7aP-9" value="" style="rounded=1;whiteSpace=wrap;html=1;strokeWidth=2;fillWeight=4;hachureGap=8;hachureAngle=45;sketch=0;shadow=0;fontSize=12;fontColor=#000000;fillColor=#FFFFFF;" parent="KVv1kEaTQHlU4v2rQUdV-1" vertex="1">
          <mxGeometry x="40" y="240" width="290" height="80" as="geometry" />
        </mxCell>
        <mxCell id="8o0k4oYvMyt-2cOQT7aP-11" style="edgeStyle=orthogonalEdgeStyle;curved=1;rounded=0;sketch=0;orthogonalLoop=1;jettySize=auto;html=1;entryX=0.759;entryY=-0.012;entryDx=0;entryDy=0;entryPerimeter=0;" parent="KVv1kEaTQHlU4v2rQUdV-1" source="8o0k4oYvMyt-2cOQT7aP-6" target="8o0k4oYvMyt-2cOQT7aP-9" edge="1">
          <mxGeometry x="40" y="40" as="geometry" />
        </mxCell>
        <UserObject label="ceph" placeholders="1" name="Variable" id="8o0k4oYvMyt-2cOQT7aP-13">
          <mxCell style="text;html=1;strokeColor=none;fillColor=none;align=center;verticalAlign=middle;whiteSpace=wrap;overflow=hidden;" parent="KVv1kEaTQHlU4v2rQUdV-1" vertex="1">
            <mxGeometry x="160" y="240" width="40" height="20" as="geometry" />
          </mxCell>
        </UserObject>
        <mxCell id="8o0k4oYvMyt-2cOQT7aP-15" value="" style="rounded=1;whiteSpace=wrap;html=1;strokeWidth=2;fillWeight=1;hachureGap=4;hachureAngle=45;sketch=0;shadow=0;fontSize=12;fillColor=#d5e8d4;strokeColor=#82b366;" parent="KVv1kEaTQHlU4v2rQUdV-1" vertex="1">
          <mxGeometry x="50" y="260" width="30" height="20" as="geometry" />
        </mxCell>
        <mxCell id="8o0k4oYvMyt-2cOQT7aP-16" value="" style="rounded=1;whiteSpace=wrap;html=1;strokeWidth=2;fillWeight=1;hachureGap=4;hachureAngle=45;sketch=0;shadow=0;fontSize=12;fillColor=#f8cecc;strokeColor=#b85450;" parent="KVv1kEaTQHlU4v2rQUdV-1" vertex="1">
          <mxGeometry x="50" y="290" width="30" height="20" as="geometry" />
        </mxCell>
        <mxCell id="8o0k4oYvMyt-2cOQT7aP-17" value="rbd" style="rounded=1;whiteSpace=wrap;html=1;strokeWidth=2;fillWeight=1;hachureGap=4;hachureAngle=45;sketch=0;shadow=0;fontSize=12;fillColor=#fff2cc;strokeColor=#d6b656;" parent="KVv1kEaTQHlU4v2rQUdV-1" vertex="1">
          <mxGeometry x="90" y="260" width="30" height="20" as="geometry" />
        </mxCell>
        <mxCell id="8o0k4oYvMyt-2cOQT7aP-40" value="dev" style="rounded=1;whiteSpace=wrap;html=1;strokeWidth=2;fillWeight=1;hachureGap=4;hachureAngle=45;sketch=0;shadow=0;fontSize=12;fillColor=#fff2cc;strokeColor=#d6b656;" parent="KVv1kEaTQHlU4v2rQUdV-1" vertex="1">
          <mxGeometry x="210" y="170" width="30" height="20" as="geometry" />
        </mxCell>
        <mxCell id="8o0k4oYvMyt-2cOQT7aP-41" value="" style="rounded=1;whiteSpace=wrap;html=1;strokeWidth=2;fillWeight=1;hachureGap=4;hachureAngle=45;sketch=0;shadow=0;fontSize=12;fillColor=#f8cecc;strokeColor=#b85450;" parent="KVv1kEaTQHlU4v2rQUdV-1" vertex="1">
          <mxGeometry x="240" y="170" width="30" height="20" as="geometry" />
        </mxCell>
        <UserObject label="target" placeholders="1" name="Variable" id="8o0k4oYvMyt-2cOQT7aP-43">
          <mxCell style="text;html=1;strokeColor=none;fillColor=none;align=center;verticalAlign=middle;whiteSpace=wrap;overflow=hidden;" parent="KVv1kEaTQHlU4v2rQUdV-1" vertex="1">
            <mxGeometry x="270" y="170" width="40" height="20" as="geometry" />
          </mxCell>
        </UserObject>
        <mxCell id="8o0k4oYvMyt-2cOQT7aP-44" value="sdb" style="rounded=1;whiteSpace=wrap;html=1;strokeWidth=2;fillWeight=1;hachureGap=4;hachureAngle=45;sketch=0;shadow=0;fontSize=12;fillColor=#fff2cc;strokeColor=#d6b656;" parent="KVv1kEaTQHlU4v2rQUdV-1" vertex="1">
          <mxGeometry x="60" y="70" width="30" height="20" as="geometry" />
        </mxCell>
        <mxCell id="cXr7WVBPz9ogLk4yMUwH-65" value="initiator" style="text;html=1;align=center;verticalAlign=middle;resizable=0;points=[];autosize=1;strokeColor=none;" parent="KVv1kEaTQHlU4v2rQUdV-1" vertex="1">
          <mxGeometry x="110" y="70" width="50" height="20" as="geometry" />
        </mxCell>
        <mxCell id="Koe82VBvhuAH663OS3Ru-3" value="" style="rounded=1;whiteSpace=wrap;html=1;strokeWidth=2;fillWeight=1;hachureGap=4;hachureAngle=45;sketch=0;shadow=0;fontSize=12;fillColor=#d5e8d4;strokeColor=#82b366;" vertex="1" parent="KVv1kEaTQHlU4v2rQUdV-1">
          <mxGeometry x="130" y="260" width="30" height="20" as="geometry" />
        </mxCell>
        <mxCell id="Koe82VBvhuAH663OS3Ru-4" value="" style="rounded=1;whiteSpace=wrap;html=1;strokeWidth=2;fillWeight=1;hachureGap=4;hachureAngle=45;sketch=0;shadow=0;fontSize=12;fillColor=#d5e8d4;strokeColor=#82b366;" vertex="1" parent="KVv1kEaTQHlU4v2rQUdV-1">
          <mxGeometry x="170" y="260" width="30" height="20" as="geometry" />
        </mxCell>
        <mxCell id="Koe82VBvhuAH663OS3Ru-5" value="" style="rounded=1;whiteSpace=wrap;html=1;strokeWidth=2;fillWeight=1;hachureGap=4;hachureAngle=45;sketch=0;shadow=0;fontSize=12;fillColor=#d5e8d4;strokeColor=#82b366;" vertex="1" parent="KVv1kEaTQHlU4v2rQUdV-1">
          <mxGeometry x="210" y="260" width="30" height="20" as="geometry" />
        </mxCell>
        <mxCell id="Koe82VBvhuAH663OS3Ru-6" value="" style="rounded=1;whiteSpace=wrap;html=1;strokeWidth=2;fillWeight=1;hachureGap=4;hachureAngle=45;sketch=0;shadow=0;fontSize=12;fillColor=#d5e8d4;strokeColor=#82b366;" vertex="1" parent="KVv1kEaTQHlU4v2rQUdV-1">
          <mxGeometry x="250" y="260" width="30" height="20" as="geometry" />
        </mxCell>
        <mxCell id="Koe82VBvhuAH663OS3Ru-7" value="" style="rounded=1;whiteSpace=wrap;html=1;strokeWidth=2;fillWeight=1;hachureGap=4;hachureAngle=45;sketch=0;shadow=0;fontSize=12;fillColor=#d5e8d4;strokeColor=#82b366;" vertex="1" parent="KVv1kEaTQHlU4v2rQUdV-1">
          <mxGeometry x="290" y="260" width="30" height="20" as="geometry" />
        </mxCell>
        <mxCell id="Koe82VBvhuAH663OS3Ru-8" value="" style="rounded=1;whiteSpace=wrap;html=1;strokeWidth=2;fillWeight=1;hachureGap=4;hachureAngle=45;sketch=0;shadow=0;fontSize=12;fillColor=#d5e8d4;strokeColor=#82b366;" vertex="1" parent="KVv1kEaTQHlU4v2rQUdV-1">
          <mxGeometry x="90" y="290" width="30" height="20" as="geometry" />
        </mxCell>
        <mxCell id="Koe82VBvhuAH663OS3Ru-9" value="" style="rounded=1;whiteSpace=wrap;html=1;strokeWidth=2;fillWeight=1;hachureGap=4;hachureAngle=45;sketch=0;shadow=0;fontSize=12;fillColor=#d5e8d4;strokeColor=#82b366;" vertex="1" parent="KVv1kEaTQHlU4v2rQUdV-1">
          <mxGeometry x="130" y="290" width="30" height="20" as="geometry" />
        </mxCell>
        <mxCell id="Koe82VBvhuAH663OS3Ru-10" value="" style="rounded=1;whiteSpace=wrap;html=1;strokeWidth=2;fillWeight=1;hachureGap=4;hachureAngle=45;sketch=0;shadow=0;fontSize=12;fillColor=#d5e8d4;strokeColor=#82b366;" vertex="1" parent="KVv1kEaTQHlU4v2rQUdV-1">
          <mxGeometry x="170" y="290" width="30" height="20" as="geometry" />
        </mxCell>
        <mxCell id="Koe82VBvhuAH663OS3Ru-11" value="" style="rounded=1;whiteSpace=wrap;html=1;strokeWidth=2;fillWeight=1;hachureGap=4;hachureAngle=45;sketch=0;shadow=0;fontSize=12;fillColor=#d5e8d4;strokeColor=#82b366;" vertex="1" parent="KVv1kEaTQHlU4v2rQUdV-1">
          <mxGeometry x="210" y="290" width="30" height="20" as="geometry" />
        </mxCell>
        <mxCell id="Koe82VBvhuAH663OS3Ru-12" value="" style="rounded=1;whiteSpace=wrap;html=1;strokeWidth=2;fillWeight=1;hachureGap=4;hachureAngle=45;sketch=0;shadow=0;fontSize=12;fillColor=#d5e8d4;strokeColor=#82b366;" vertex="1" parent="KVv1kEaTQHlU4v2rQUdV-1">
          <mxGeometry x="250" y="290" width="30" height="20" as="geometry" />
        </mxCell>
        <mxCell id="Koe82VBvhuAH663OS3Ru-13" value="" style="rounded=1;whiteSpace=wrap;html=1;strokeWidth=2;fillWeight=1;hachureGap=4;hachureAngle=45;sketch=0;shadow=0;fontSize=12;fillColor=#d5e8d4;strokeColor=#82b366;" vertex="1" parent="KVv1kEaTQHlU4v2rQUdV-1">
          <mxGeometry x="290" y="290" width="30" height="20" as="geometry" />
        </mxCell>
        <mxCell id="0sue6VcQbt1Bg0ZOExd2-21" value="" style="edgeStyle=none;rounded=0;sketch=0;orthogonalLoop=1;jettySize=auto;html=1;entryX=1;entryY=0.5;entryDx=0;entryDy=0;" edge="1" parent="KVv1kEaTQHlU4v2rQUdV-1" source="jMSZclvPMDg9KpN3KZ3v-10" target="0sue6VcQbt1Bg0ZOExd2-10">
          <mxGeometry relative="1" as="geometry" />
        </mxCell>
        <mxCell id="jMSZclvPMDg9KpN3KZ3v-10" value="auth&lt;br&gt;group" style="rounded=1;whiteSpace=wrap;html=1;strokeWidth=1;fillWeight=4;hachureGap=8;hachureAngle=45;sketch=0;shadow=0;fontSize=12;fontColor=#000000;fillColor=#FFFFFF;dashed=1;" vertex="1" parent="KVv1kEaTQHlU4v2rQUdV-1">
          <mxGeometry x="280" y="490" width="60" height="70" as="geometry" />
        </mxCell>
        <mxCell id="cXr7WVBPz9ogLk4yMUwH-42" value="lun" style="rounded=1;whiteSpace=wrap;html=1;strokeWidth=2;fillWeight=1;hachureGap=4;hachureAngle=45;sketch=0;shadow=0;fontSize=12;fillColor=#d5e8d4;strokeColor=#82b366;" parent="KVv1kEaTQHlU4v2rQUdV-1" vertex="1">
          <mxGeometry x="60" y="515" width="30" height="20" as="geometry" />
        </mxCell>
        <mxCell id="cXr7WVBPz9ogLk4yMUwH-45" value="..." style="rounded=1;whiteSpace=wrap;html=1;strokeWidth=2;fillWeight=1;hachureGap=4;hachureAngle=45;sketch=0;shadow=0;fontSize=12;fillColor=#d5e8d4;strokeColor=#82b366;" parent="KVv1kEaTQHlU4v2rQUdV-1" vertex="1">
          <mxGeometry x="90" y="515" width="30" height="20" as="geometry" />
        </mxCell>
        <mxCell id="cXr7WVBPz9ogLk4yMUwH-44" value="target" style="text;html=1;align=center;verticalAlign=middle;resizable=0;points=[];autosize=1;strokeColor=none;" parent="KVv1kEaTQHlU4v2rQUdV-1" vertex="1">
          <mxGeometry x="120" y="515" width="50" height="20" as="geometry" />
        </mxCell>
        <mxCell id="0sue6VcQbt1Bg0ZOExd2-0" value="" style="rounded=1;whiteSpace=wrap;html=1;strokeWidth=2;fillWeight=1;hachureGap=4;hachureAngle=45;sketch=0;shadow=0;fontSize=12;fillColor=#d5e8d4;strokeColor=#82b366;" vertex="1" parent="KVv1kEaTQHlU4v2rQUdV-1">
          <mxGeometry x="220" y="591" width="30" height="20" as="geometry" />
        </mxCell>
        <mxCell id="0sue6VcQbt1Bg0ZOExd2-1" value="" style="rounded=1;whiteSpace=wrap;html=1;strokeWidth=2;fillWeight=1;hachureGap=4;hachureAngle=45;sketch=0;shadow=0;fontSize=12;fillColor=#d5e8d4;strokeColor=#82b366;" vertex="1" parent="KVv1kEaTQHlU4v2rQUdV-1">
          <mxGeometry x="260" y="591" width="30" height="20" as="geometry" />
        </mxCell>
        <mxCell id="0sue6VcQbt1Bg0ZOExd2-2" value="" style="rounded=1;whiteSpace=wrap;html=1;strokeWidth=2;fillWeight=1;hachureGap=4;hachureAngle=45;sketch=0;shadow=0;fontSize=12;fillColor=#d5e8d4;strokeColor=#82b366;" vertex="1" parent="KVv1kEaTQHlU4v2rQUdV-1">
          <mxGeometry x="300" y="591" width="30" height="20" as="geometry" />
        </mxCell>
        <mxCell id="0sue6VcQbt1Bg0ZOExd2-4" value="" style="rounded=1;whiteSpace=wrap;html=1;strokeWidth=2;fillWeight=1;hachureGap=4;hachureAngle=45;sketch=0;shadow=0;fontSize=12;fillColor=#dae8fc;strokeColor=#6c8ebf;" vertex="1" parent="KVv1kEaTQHlU4v2rQUdV-1">
          <mxGeometry x="130" y="410" width="30" height="20" as="geometry" />
        </mxCell>
        <mxCell id="0sue6VcQbt1Bg0ZOExd2-5" value="" style="rounded=1;whiteSpace=wrap;html=1;strokeWidth=2;fillWeight=1;hachureGap=4;hachureAngle=45;sketch=0;shadow=0;fontSize=12;fillColor=#dae8fc;strokeColor=#6c8ebf;" vertex="1" parent="KVv1kEaTQHlU4v2rQUdV-1">
          <mxGeometry x="130" y="440" width="30" height="20" as="geometry" />
        </mxCell>
        <mxCell id="0sue6VcQbt1Bg0ZOExd2-8" value="" style="rounded=1;whiteSpace=wrap;html=1;strokeWidth=2;fillWeight=1;hachureGap=4;hachureAngle=45;sketch=0;shadow=0;fontSize=12;fillColor=#fff2cc;strokeColor=#d6b656;" vertex="1" parent="KVv1kEaTQHlU4v2rQUdV-1">
          <mxGeometry x="300" y="410" width="30" height="20" as="geometry" />
        </mxCell>
        <mxCell id="0sue6VcQbt1Bg0ZOExd2-9" value="" style="rounded=1;whiteSpace=wrap;html=1;strokeWidth=2;fillWeight=1;hachureGap=4;hachureAngle=45;sketch=0;shadow=0;fontSize=12;fillColor=#fff2cc;strokeColor=#d6b656;" vertex="1" parent="KVv1kEaTQHlU4v2rQUdV-1">
          <mxGeometry x="300" y="440" width="30" height="20" as="geometry" />
        </mxCell>
        <mxCell id="0sue6VcQbt1Bg0ZOExd2-11" value="bdev" style="rounded=1;whiteSpace=wrap;html=1;strokeWidth=2;fillWeight=1;hachureGap=4;hachureAngle=45;sketch=0;shadow=0;fontSize=12;fillColor=#d5e8d4;strokeColor=#82b366;" vertex="1" parent="KVv1kEaTQHlU4v2rQUdV-1">
          <mxGeometry x="50" y="591" width="30" height="20" as="geometry" />
        </mxCell>
        <mxCell id="0sue6VcQbt1Bg0ZOExd2-12" value="" style="rounded=1;whiteSpace=wrap;html=1;strokeWidth=2;fillWeight=1;hachureGap=4;hachureAngle=45;sketch=0;shadow=0;fontSize=12;fillColor=#d5e8d4;strokeColor=#82b366;" vertex="1" parent="KVv1kEaTQHlU4v2rQUdV-1">
          <mxGeometry x="90" y="591" width="30" height="20" as="geometry" />
        </mxCell>
        <mxCell id="0sue6VcQbt1Bg0ZOExd2-13" value="" style="rounded=1;whiteSpace=wrap;html=1;strokeWidth=2;fillWeight=1;hachureGap=4;hachureAngle=45;sketch=0;shadow=0;fontSize=12;fillColor=#d5e8d4;strokeColor=#82b366;" vertex="1" parent="KVv1kEaTQHlU4v2rQUdV-1">
          <mxGeometry x="130" y="591" width="30" height="20" as="geometry" />
        </mxCell>
        <mxCell id="0sue6VcQbt1Bg0ZOExd2-17" value="" style="rounded=1;whiteSpace=wrap;html=1;strokeWidth=2;fillWeight=1;hachureGap=4;hachureAngle=45;sketch=0;shadow=0;fontSize=12;fillColor=#f8cecc;strokeColor=#b85450;" vertex="1" parent="KVv1kEaTQHlU4v2rQUdV-1">
          <mxGeometry x="180" y="500" width="30" height="20" as="geometry" />
        </mxCell>
        <mxCell id="0sue6VcQbt1Bg0ZOExd2-18" value="" style="rounded=1;whiteSpace=wrap;html=1;strokeWidth=2;fillWeight=1;hachureGap=4;hachureAngle=45;sketch=0;shadow=0;fontSize=12;fillColor=#f8cecc;strokeColor=#b85450;" vertex="1" parent="KVv1kEaTQHlU4v2rQUdV-1">
          <mxGeometry x="220" y="500" width="30" height="20" as="geometry" />
        </mxCell>
        <mxCell id="0sue6VcQbt1Bg0ZOExd2-19" value="" style="rounded=1;whiteSpace=wrap;html=1;strokeWidth=2;fillWeight=1;hachureGap=4;hachureAngle=45;sketch=0;shadow=0;fontSize=12;fillColor=#f8cecc;strokeColor=#b85450;" vertex="1" parent="KVv1kEaTQHlU4v2rQUdV-1">
          <mxGeometry x="180" y="530" width="30" height="20" as="geometry" />
        </mxCell>
        <mxCell id="0sue6VcQbt1Bg0ZOExd2-20" value="" style="rounded=1;whiteSpace=wrap;html=1;strokeWidth=2;fillWeight=1;hachureGap=4;hachureAngle=45;sketch=0;shadow=0;fontSize=12;fillColor=#f8cecc;strokeColor=#b85450;" vertex="1" parent="KVv1kEaTQHlU4v2rQUdV-1">
          <mxGeometry x="220" y="530" width="30" height="20" as="geometry" />
        </mxCell>
        <mxCell id="0sue6VcQbt1Bg0ZOExd2-24" style="edgeStyle=none;rounded=0;sketch=0;orthogonalLoop=1;jettySize=auto;html=1;entryX=0.5;entryY=0;entryDx=0;entryDy=0;" edge="1" parent="KVv1kEaTQHlU4v2rQUdV-1" source="0sue6VcQbt1Bg0ZOExd2-23" target="0sue6VcQbt1Bg0ZOExd2-7">
          <mxGeometry relative="1" as="geometry" />
        </mxCell>
        <mxCell id="0sue6VcQbt1Bg0ZOExd2-23" value="initiator" style="text;html=1;align=center;verticalAlign=middle;resizable=0;points=[];autosize=1;strokeColor=none;fillColor=none;" vertex="1" parent="KVv1kEaTQHlU4v2rQUdV-1">
          <mxGeometry x="80" y="360" width="50" height="20" as="geometry" />
        </mxCell>
      </root>
    </mxGraphModel>
  </diagram>
  <diagram id="7ZrXDIY8aJeda-TxgVgn" name="spdk iscsi gateway">
    <mxGraphModel dx="813" dy="510" grid="1" gridSize="10" guides="1" tooltips="1" connect="1" arrows="1" fold="1" page="1" pageScale="1" pageWidth="827" pageHeight="1169" math="0" shadow="0">
      <root>
        <mxCell id="3yO276qXORORyjHlByuQ-0" />
        <mxCell id="3yO276qXORORyjHlByuQ-1" parent="3yO276qXORORyjHlByuQ-0" />
        <mxCell id="DhMUQ044NfY1D707BUXg-39" value="" style="rounded=1;whiteSpace=wrap;html=1;strokeWidth=2;fillWeight=1;hachureGap=4;hachureAngle=45;sketch=0;shadow=0;fontSize=12;dashed=1;arcSize=4;" parent="3yO276qXORORyjHlByuQ-1" vertex="1">
          <mxGeometry x="140" y="80" width="440" height="350" as="geometry" />
        </mxCell>
        <mxCell id="LJ9LbYi5nUDe2BTZBcCC-35" value="" style="rounded=1;whiteSpace=wrap;html=1;strokeWidth=2;fillWeight=1;hachureGap=4;hachureAngle=45;sketch=0;shadow=0;fontSize=12;fillColor=#d5e8d4;strokeColor=#82b366;" parent="3yO276qXORORyjHlByuQ-1" vertex="1">
          <mxGeometry x="150" y="210" width="140" height="130" as="geometry" />
        </mxCell>
        <mxCell id="DhMUQ044NfY1D707BUXg-36" value="RPC HTTP Proxy" style="rounded=1;whiteSpace=wrap;html=1;strokeWidth=2;fillWeight=1;hachureGap=4;hachureAngle=45;sketch=0;shadow=0;fontSize=12;fillColor=#f8cecc;strokeColor=#b85450;" parent="3yO276qXORORyjHlByuQ-1" vertex="1">
          <mxGeometry x="160" y="250" width="120" height="40" as="geometry" />
        </mxCell>
        <mxCell id="nBhkvVXYHnpfuIb-Load-1" value="" style="rounded=1;whiteSpace=wrap;html=1;strokeWidth=2;fillWeight=1;hachureGap=4;hachureAngle=45;sketch=0;shadow=0;fontSize=12;fillColor=#dae8fc;strokeColor=default;" parent="3yO276qXORORyjHlByuQ-1" vertex="1">
          <mxGeometry x="150" y="90" width="420" height="90" as="geometry" />
        </mxCell>
        <mxCell id="IwGDmkBLfWBRffCewWxz-0" value="" style="rounded=1;whiteSpace=wrap;html=1;strokeWidth=2;fillWeight=1;hachureGap=4;hachureAngle=45;sketch=0;shadow=0;fontSize=12;fillColor=#f5f5f5;strokeColor=#666666;fontColor=#333333;" vertex="1" parent="3yO276qXORORyjHlByuQ-1">
          <mxGeometry x="430" y="370" width="140" height="40" as="geometry" />
        </mxCell>
        <mxCell id="LJ9LbYi5nUDe2BTZBcCC-18" value="" style="rounded=1;whiteSpace=wrap;html=1;strokeWidth=2;fillWeight=1;hachureGap=4;hachureAngle=45;sketch=0;shadow=0;fontSize=12;fillColor=#f5f5f5;strokeColor=#666666;fontColor=#333333;" parent="3yO276qXORORyjHlByuQ-1" vertex="1">
          <mxGeometry x="430" y="210" width="140" height="130" as="geometry" />
        </mxCell>
        <mxCell id="DhMUQ044NfY1D707BUXg-22" style="edgeStyle=orthogonalEdgeStyle;curved=1;rounded=0;sketch=0;orthogonalLoop=1;jettySize=auto;html=1;entryX=0;entryY=0.5;entryDx=0;entryDy=0;startArrow=classic;startFill=1;endArrow=none;endFill=0;" parent="3yO276qXORORyjHlByuQ-1" edge="1">
          <mxGeometry relative="1" as="geometry">
            <mxPoint x="290" y="274.9999999999999" as="sourcePoint" />
            <mxPoint x="430" y="274.9999999999999" as="targetPoint" />
          </mxGeometry>
        </mxCell>
        <mxCell id="DhMUQ044NfY1D707BUXg-30" style="edgeStyle=orthogonalEdgeStyle;curved=1;rounded=0;sketch=0;orthogonalLoop=1;jettySize=auto;html=1;startArrow=none;startFill=0;" parent="3yO276qXORORyjHlByuQ-1" edge="1">
          <mxGeometry relative="1" as="geometry">
            <mxPoint x="120" y="275" as="targetPoint" />
            <mxPoint x="150" y="275.0000000000001" as="sourcePoint" />
          </mxGeometry>
        </mxCell>
        <mxCell id="DhMUQ044NfY1D707BUXg-23" style="edgeStyle=orthogonalEdgeStyle;curved=1;rounded=0;sketch=0;orthogonalLoop=1;jettySize=auto;html=1;entryX=0.5;entryY=0;entryDx=0;entryDy=0;startArrow=none;startFill=0;" parent="3yO276qXORORyjHlByuQ-1" edge="1">
          <mxGeometry relative="1" as="geometry">
            <mxPoint x="500" y="181" as="sourcePoint" />
            <Array as="points" />
            <mxPoint x="500" y="209.9999999999999" as="targetPoint" />
          </mxGeometry>
        </mxCell>
        <mxCell id="DhMUQ044NfY1D707BUXg-29" style="edgeStyle=orthogonalEdgeStyle;curved=1;rounded=0;sketch=0;orthogonalLoop=1;jettySize=auto;html=1;startArrow=none;startFill=0;entryX=1.02;entryY=0.223;entryDx=0;entryDy=0;entryPerimeter=0;" parent="3yO276qXORORyjHlByuQ-1" target="DhMUQ044NfY1D707BUXg-28" edge="1">
          <mxGeometry relative="1" as="geometry">
            <mxPoint x="121" y="135" as="targetPoint" />
            <mxPoint x="150" y="135.02857142857135" as="sourcePoint" />
          </mxGeometry>
        </mxCell>
        <mxCell id="LJ9LbYi5nUDe2BTZBcCC-10" style="edgeStyle=orthogonalEdgeStyle;rounded=0;orthogonalLoop=1;jettySize=auto;html=1;entryX=0.5;entryY=0;entryDx=0;entryDy=0;sketch=0;curved=1;exitX=0.168;exitY=1.016;exitDx=0;exitDy=0;exitPerimeter=0;" parent="3yO276qXORORyjHlByuQ-1" edge="1">
          <mxGeometry relative="1" as="geometry">
            <mxPoint x="220" y="209.9999999999999" as="targetPoint" />
            <mxPoint x="220.55999999999995" y="181.43999999999994" as="sourcePoint" />
          </mxGeometry>
        </mxCell>
        <mxCell id="DhMUQ044NfY1D707BUXg-8" style="edgeStyle=orthogonalEdgeStyle;rounded=0;sketch=0;orthogonalLoop=1;jettySize=auto;html=1;curved=1;exitX=0.036;exitY=0.22;exitDx=0;exitDy=0;exitPerimeter=0;entryX=1.001;entryY=0.486;entryDx=0;entryDy=0;entryPerimeter=0;" parent="3yO276qXORORyjHlByuQ-1" source="DhMUQ044NfY1D707BUXg-7" edge="1" target="nBhkvVXYHnpfuIb-Load-1">
          <mxGeometry relative="1" as="geometry">
            <mxPoint x="570" y="141" as="targetPoint" />
            <Array as="points" />
          </mxGeometry>
        </mxCell>
        <mxCell id="DhMUQ044NfY1D707BUXg-25" style="rounded=0;sketch=0;orthogonalLoop=1;jettySize=auto;html=1;startArrow=none;startFill=0;entryX=0.964;entryY=0;entryDx=0;entryDy=0;entryPerimeter=0;" parent="3yO276qXORORyjHlByuQ-1" source="DhMUQ044NfY1D707BUXg-7" target="DhMUQ044NfY1D707BUXg-24" edge="1">
          <mxGeometry relative="1" as="geometry">
            <mxPoint x="615" y="433" as="targetPoint" />
          </mxGeometry>
        </mxCell>
        <mxCell id="DhMUQ044NfY1D707BUXg-40" style="edgeStyle=orthogonalEdgeStyle;curved=1;rounded=0;sketch=0;orthogonalLoop=1;jettySize=auto;html=1;entryX=1.004;entryY=0.036;entryDx=0;entryDy=0;entryPerimeter=0;startArrow=none;startFill=0;endArrow=classic;endFill=1;" parent="3yO276qXORORyjHlByuQ-1" target="DhMUQ044NfY1D707BUXg-28" edge="1">
          <mxGeometry relative="1" as="geometry">
            <mxPoint x="600" y="64" as="sourcePoint" />
          </mxGeometry>
        </mxCell>
        <mxCell id="DhMUQ044NfY1D707BUXg-7" value="MG" style="rounded=1;whiteSpace=wrap;html=1;strokeWidth=2;fillWeight=1;hachureGap=4;hachureAngle=45;sketch=0;shadow=0;fontSize=12;fillColor=#fff2cc;strokeColor=#d6b656;" parent="3yO276qXORORyjHlByuQ-1" vertex="1">
          <mxGeometry x="600" y="50" width="40" height="380" as="geometry" />
        </mxCell>
        <mxCell id="LJ9LbYi5nUDe2BTZBcCC-12" style="edgeStyle=orthogonalEdgeStyle;curved=1;rounded=0;sketch=0;orthogonalLoop=1;jettySize=auto;html=1;entryX=1;entryY=0.5;entryDx=0;entryDy=0;" parent="3yO276qXORORyjHlByuQ-1" target="LJ9LbYi5nUDe2BTZBcCC-32" edge="1">
          <mxGeometry relative="1" as="geometry">
            <mxPoint x="430" y="275.0000000000001" as="sourcePoint" />
            <mxPoint x="300" y="400" as="targetPoint" />
          </mxGeometry>
        </mxCell>
        <mxCell id="IwGDmkBLfWBRffCewWxz-6" style="rounded=0;sketch=0;orthogonalLoop=1;jettySize=auto;html=1;entryX=0.5;entryY=1;entryDx=0;entryDy=0;exitX=0.732;exitY=-0.027;exitDx=0;exitDy=0;exitPerimeter=0;" edge="1" parent="3yO276qXORORyjHlByuQ-1" source="DhMUQ044NfY1D707BUXg-24" target="LJ9LbYi5nUDe2BTZBcCC-22">
          <mxGeometry relative="1" as="geometry" />
        </mxCell>
        <mxCell id="DhMUQ044NfY1D707BUXg-24" value="iSCSI initiator" style="rounded=1;whiteSpace=wrap;html=1;strokeWidth=2;fillWeight=1;hachureGap=4;hachureAngle=45;sketch=0;shadow=0;fontSize=12;fillColor=#fff2cc;strokeColor=#d6b656;" parent="3yO276qXORORyjHlByuQ-1" vertex="1">
          <mxGeometry x="80" y="450" width="560" height="40" as="geometry" />
        </mxCell>
        <mxCell id="DhMUQ044NfY1D707BUXg-28" value="Ceph&lt;br&gt;Cluster" style="rounded=1;whiteSpace=wrap;html=1;strokeWidth=2;fillWeight=1;hachureGap=4;hachureAngle=45;sketch=0;shadow=0;fontSize=12;" parent="3yO276qXORORyjHlByuQ-1" vertex="1">
          <mxGeometry x="80" y="50" width="40" height="380" as="geometry" />
        </mxCell>
        <mxCell id="DhMUQ044NfY1D707BUXg-41" value="librbd" style="text;html=1;align=center;verticalAlign=middle;resizable=0;points=[];autosize=1;strokeColor=none;" parent="3yO276qXORORyjHlByuQ-1" vertex="1">
          <mxGeometry x="340" y="40" width="40" height="20" as="geometry" />
        </mxCell>
        <mxCell id="LJ9LbYi5nUDe2BTZBcCC-13" value="redirect" style="text;html=1;align=center;verticalAlign=middle;resizable=0;points=[];autosize=1;strokeColor=none;" parent="3yO276qXORORyjHlByuQ-1" vertex="1">
          <mxGeometry x="322" y="254" width="60" height="20" as="geometry" />
        </mxCell>
        <mxCell id="LJ9LbYi5nUDe2BTZBcCC-14" value="redirect" style="text;html=1;align=center;verticalAlign=middle;resizable=0;points=[];autosize=1;strokeColor=none;" parent="3yO276qXORORyjHlByuQ-1" vertex="1">
          <mxGeometry x="322" y="340" width="60" height="20" as="geometry" />
        </mxCell>
        <mxCell id="DhMUQ044NfY1D707BUXg-38" value="RPC HTTP Proxy" style="rounded=1;whiteSpace=wrap;html=1;strokeWidth=2;fillWeight=1;hachureGap=4;hachureAngle=45;sketch=0;shadow=0;fontSize=12;fillColor=#f8cecc;strokeColor=#b85450;" parent="3yO276qXORORyjHlByuQ-1" vertex="1">
          <mxGeometry x="440" y="250" width="120" height="40" as="geometry" />
        </mxCell>
        <mxCell id="DhMUQ044NfY1D707BUXg-18" value="iSCSI Target" style="rounded=1;whiteSpace=wrap;html=1;strokeWidth=2;fillWeight=4;hachureGap=8;hachureAngle=45;sketch=0;shadow=0;fontSize=12;fontColor=#000000;fillColor=#FFFFFF;" parent="3yO276qXORORyjHlByuQ-1" vertex="1">
          <mxGeometry x="440" y="290" width="120" height="40" as="geometry" />
        </mxCell>
        <mxCell id="DhMUQ044NfY1D707BUXg-9" value="iSCSI Target" style="rounded=1;whiteSpace=wrap;html=1;strokeWidth=2;fillWeight=4;hachureGap=8;hachureAngle=45;sketch=0;shadow=0;fontSize=12;fontColor=#000000;fillColor=#FFFFFF;" parent="3yO276qXORORyjHlByuQ-1" vertex="1">
          <mxGeometry x="160" y="290" width="120" height="40" as="geometry" />
        </mxCell>
        <mxCell id="DhMUQ044NfY1D707BUXg-3" value="GW" style="rounded=1;whiteSpace=wrap;html=1;strokeWidth=2;fillWeight=4;hachureGap=8;hachureAngle=45;sketch=0;shadow=0;fontSize=12;fontColor=#000000;fillColor=#FFFFFF;" parent="3yO276qXORORyjHlByuQ-1" vertex="1">
          <mxGeometry x="440" y="130" width="120" height="40" as="geometry" />
        </mxCell>
        <mxCell id="DhMUQ044NfY1D707BUXg-1" value="GW(leader)" style="rounded=1;whiteSpace=wrap;html=1;strokeWidth=2;fillWeight=4;hachureGap=8;hachureAngle=45;sketch=0;shadow=0;fontSize=12;fontColor=#000000;fillColor=#FFFFFF;" parent="3yO276qXORORyjHlByuQ-1" vertex="1">
          <mxGeometry x="300" y="130" width="120" height="40" as="geometry" />
        </mxCell>
        <mxCell id="DhMUQ044NfY1D707BUXg-5" value="Gateway" style="rounded=1;whiteSpace=wrap;html=1;strokeWidth=2;fillWeight=4;hachureGap=8;hachureAngle=45;sketch=0;shadow=0;fontSize=12;fontColor=#000000;fillColor=#FFFFFF;" parent="3yO276qXORORyjHlByuQ-1" vertex="1">
          <mxGeometry x="160" y="130" width="120" height="40" as="geometry" />
        </mxCell>
        <mxCell id="DhMUQ044NfY1D707BUXg-2" style="edgeStyle=orthogonalEdgeStyle;rounded=0;sketch=0;orthogonalLoop=1;jettySize=auto;html=1;entryX=1;entryY=0.5;entryDx=0;entryDy=0;" parent="3yO276qXORORyjHlByuQ-1" source="DhMUQ044NfY1D707BUXg-3" target="DhMUQ044NfY1D707BUXg-1" edge="1">
          <mxGeometry relative="1" as="geometry" />
        </mxCell>
        <mxCell id="DhMUQ044NfY1D707BUXg-4" style="edgeStyle=orthogonalEdgeStyle;rounded=0;orthogonalLoop=1;jettySize=auto;html=1;entryX=0;entryY=0.5;entryDx=0;entryDy=0;sketch=0;" parent="3yO276qXORORyjHlByuQ-1" source="DhMUQ044NfY1D707BUXg-5" target="DhMUQ044NfY1D707BUXg-1" edge="1">
          <mxGeometry relative="1" as="geometry" />
        </mxCell>
        <mxCell id="LJ9LbYi5nUDe2BTZBcCC-37" value="SPDK iSCSI&lt;br&gt;Target Server" style="text;html=1;align=center;verticalAlign=middle;resizable=0;points=[];autosize=1;strokeColor=none;" parent="3yO276qXORORyjHlByuQ-1" vertex="1">
          <mxGeometry x="175" y="215" width="90" height="30" as="geometry" />
        </mxCell>
        <mxCell id="DhMUQ044NfY1D707BUXg-21" value="SPDK iSCSI &lt;br&gt;Redirector Server" style="text;html=1;align=center;verticalAlign=middle;resizable=0;points=[];autosize=1;strokeColor=none;" parent="3yO276qXORORyjHlByuQ-1" vertex="1">
          <mxGeometry x="445" y="215" width="110" height="30" as="geometry" />
        </mxCell>
        <mxCell id="LJ9LbYi5nUDe2BTZBcCC-22" value="RS" style="rounded=1;whiteSpace=wrap;html=1;strokeWidth=2;fillWeight=1;hachureGap=4;hachureAngle=45;sketch=0;shadow=0;fontSize=12;fillColor=#f5f5f5;strokeColor=#666666;fontColor=#333333;" parent="3yO276qXORORyjHlByuQ-1" vertex="1">
          <mxGeometry x="420" y="380" width="140" height="40" as="geometry" />
        </mxCell>
        <mxCell id="LJ9LbYi5nUDe2BTZBcCC-29" value="" style="rounded=1;whiteSpace=wrap;html=1;strokeWidth=2;fillWeight=1;hachureGap=4;hachureAngle=45;sketch=0;shadow=0;fontSize=12;fillColor=#d5e8d4;strokeColor=default;" parent="3yO276qXORORyjHlByuQ-1" vertex="1">
          <mxGeometry x="150" y="370" width="140" height="40" as="geometry" />
        </mxCell>
        <mxCell id="LJ9LbYi5nUDe2BTZBcCC-32" value="TS" style="rounded=1;whiteSpace=wrap;html=1;strokeWidth=2;fillWeight=1;hachureGap=4;hachureAngle=45;sketch=0;shadow=0;fontSize=12;fillColor=#d5e8d4;strokeColor=default;" parent="3yO276qXORORyjHlByuQ-1" vertex="1">
          <mxGeometry x="160" y="380" width="140" height="40" as="geometry" />
        </mxCell>
        <mxCell id="IwGDmkBLfWBRffCewWxz-2" style="edgeStyle=orthogonalEdgeStyle;curved=1;rounded=0;sketch=0;orthogonalLoop=1;jettySize=auto;html=1;entryX=0.532;entryY=0.979;entryDx=0;entryDy=0;entryPerimeter=0;" edge="1" parent="3yO276qXORORyjHlByuQ-1">
          <mxGeometry relative="1" as="geometry">
            <mxPoint x="230.24000000000004" y="420.15999999999974" as="targetPoint" />
            <mxPoint x="229.76000000000002" y="449.9999999999999" as="sourcePoint" />
          </mxGeometry>
        </mxCell>
        <mxCell id="nBhkvVXYHnpfuIb-Load-3" value="SPDK Gateways" style="text;html=1;align=center;verticalAlign=middle;resizable=0;points=[];autosize=1;strokeColor=none;" parent="3yO276qXORORyjHlByuQ-1" vertex="1">
          <mxGeometry x="310" y="100" width="100" height="20" as="geometry" />
        </mxCell>
        <mxCell id="MklKlplRyfi0s2rjbk7p-14" value="" style="edgeStyle=none;rounded=0;sketch=0;orthogonalLoop=1;jettySize=auto;html=1;" edge="1" parent="3yO276qXORORyjHlByuQ-1" source="2km99h-ICY6ujUnv_aS_-0" target="MklKlplRyfi0s2rjbk7p-2">
          <mxGeometry relative="1" as="geometry" />
        </mxCell>
        <mxCell id="MklKlplRyfi0s2rjbk7p-20" value="" style="edgeStyle=none;rounded=0;sketch=0;orthogonalLoop=1;jettySize=auto;html=1;entryX=0.398;entryY=-0.012;entryDx=0;entryDy=0;entryPerimeter=0;" edge="1" parent="3yO276qXORORyjHlByuQ-1" source="2km99h-ICY6ujUnv_aS_-0" target="MklKlplRyfi0s2rjbk7p-15">
          <mxGeometry relative="1" as="geometry" />
        </mxCell>
        <mxCell id="2km99h-ICY6ujUnv_aS_-0" value="" style="rounded=1;whiteSpace=wrap;html=1;strokeWidth=2;fillWeight=4;hachureGap=8;hachureAngle=45;sketch=0;shadow=0;fontSize=12;fontColor=#000000;fillColor=#FFFFFF;" vertex="1" parent="3yO276qXORORyjHlByuQ-1">
          <mxGeometry x="80" y="680" width="270" height="140" as="geometry" />
        </mxCell>
        <mxCell id="MklKlplRyfi0s2rjbk7p-8" style="edgeStyle=none;rounded=0;sketch=0;orthogonalLoop=1;jettySize=auto;html=1;entryX=0.5;entryY=0;entryDx=0;entryDy=0;exitX=0.122;exitY=0.988;exitDx=0;exitDy=0;exitPerimeter=0;" edge="1" parent="3yO276qXORORyjHlByuQ-1" source="MklKlplRyfi0s2rjbk7p-0" target="MklKlplRyfi0s2rjbk7p-3">
          <mxGeometry relative="1" as="geometry" />
        </mxCell>
        <mxCell id="MklKlplRyfi0s2rjbk7p-10" style="edgeStyle=none;rounded=0;sketch=0;orthogonalLoop=1;jettySize=auto;html=1;entryX=0.53;entryY=-0.064;entryDx=0;entryDy=0;entryPerimeter=0;exitX=0.685;exitY=1;exitDx=0;exitDy=0;exitPerimeter=0;" edge="1" parent="3yO276qXORORyjHlByuQ-1" source="MklKlplRyfi0s2rjbk7p-0" target="MklKlplRyfi0s2rjbk7p-7">
          <mxGeometry relative="1" as="geometry" />
        </mxCell>
        <mxCell id="MklKlplRyfi0s2rjbk7p-0" value="http server&lt;br&gt;(restful api)" style="rounded=1;whiteSpace=wrap;html=1;strokeWidth=1;fillWeight=4;hachureGap=8;hachureAngle=45;sketch=0;shadow=0;fontSize=12;fontColor=#333333;fillColor=#f5f5f5;dashed=1;strokeColor=#666666;" vertex="1" parent="3yO276qXORORyjHlByuQ-1">
          <mxGeometry x="90" y="690" width="250" height="40" as="geometry" />
        </mxCell>
        <mxCell id="MklKlplRyfi0s2rjbk7p-2" value="spdk&lt;br&gt;http&lt;br&gt;proxy" style="rounded=1;whiteSpace=wrap;html=1;strokeWidth=2;fillWeight=4;hachureGap=8;hachureAngle=45;sketch=0;shadow=0;fontSize=12;fontColor=#000000;fillColor=#FFFFFF;" vertex="1" parent="3yO276qXORORyjHlByuQ-1">
          <mxGeometry x="370" y="680" width="50" height="140" as="geometry" />
        </mxCell>
        <mxCell id="MklKlplRyfi0s2rjbk7p-9" value="" style="edgeStyle=none;rounded=0;sketch=0;orthogonalLoop=1;jettySize=auto;html=1;entryX=0;entryY=0.5;entryDx=0;entryDy=0;" edge="1" parent="3yO276qXORORyjHlByuQ-1" source="MklKlplRyfi0s2rjbk7p-3" target="MklKlplRyfi0s2rjbk7p-4">
          <mxGeometry relative="1" as="geometry" />
        </mxCell>
        <mxCell id="MklKlplRyfi0s2rjbk7p-3" value="transction" style="rounded=1;whiteSpace=wrap;html=1;strokeWidth=1;fillWeight=4;hachureGap=8;hachureAngle=45;sketch=0;shadow=0;fontSize=12;fontColor=#333333;fillColor=#f5f5f5;dashed=1;strokeColor=#666666;" vertex="1" parent="3yO276qXORORyjHlByuQ-1">
          <mxGeometry x="90" y="750" width="60" height="60" as="geometry" />
        </mxCell>
        <mxCell id="MklKlplRyfi0s2rjbk7p-4" value="" style="rounded=1;whiteSpace=wrap;html=1;strokeWidth=1;fillWeight=4;hachureGap=8;hachureAngle=45;sketch=0;shadow=0;fontSize=12;fontColor=#333333;fillColor=#f5f5f5;dashed=1;strokeColor=#666666;" vertex="1" parent="3yO276qXORORyjHlByuQ-1">
          <mxGeometry x="170" y="750" width="170" height="60" as="geometry" />
        </mxCell>
        <mxCell id="MklKlplRyfi0s2rjbk7p-7" value="data" style="text;html=1;align=center;verticalAlign=middle;resizable=0;points=[];autosize=1;strokeColor=none;fillColor=none;" vertex="1" parent="3yO276qXORORyjHlByuQ-1">
          <mxGeometry x="240" y="750" width="40" height="20" as="geometry" />
        </mxCell>
        <mxCell id="MklKlplRyfi0s2rjbk7p-11" value="targets" style="rounded=1;whiteSpace=wrap;html=1;strokeWidth=2;fillWeight=4;hachureGap=8;hachureAngle=45;sketch=0;shadow=0;fontSize=12;fillColor=#dae8fc;strokeColor=#6c8ebf;" vertex="1" parent="3yO276qXORORyjHlByuQ-1">
          <mxGeometry x="180" y="770" width="50" height="30" as="geometry" />
        </mxCell>
        <mxCell id="MklKlplRyfi0s2rjbk7p-12" value="luns" style="rounded=1;whiteSpace=wrap;html=1;strokeWidth=2;fillWeight=4;hachureGap=8;hachureAngle=45;sketch=0;shadow=0;fontSize=12;fillColor=#dae8fc;strokeColor=#6c8ebf;" vertex="1" parent="3yO276qXORORyjHlByuQ-1">
          <mxGeometry x="230" y="770" width="50" height="30" as="geometry" />
        </mxCell>
        <mxCell id="MklKlplRyfi0s2rjbk7p-13" value="clients" style="rounded=1;whiteSpace=wrap;html=1;strokeWidth=2;fillWeight=4;hachureGap=8;hachureAngle=45;sketch=0;shadow=0;fontSize=12;fillColor=#dae8fc;strokeColor=#6c8ebf;" vertex="1" parent="3yO276qXORORyjHlByuQ-1">
          <mxGeometry x="280" y="770" width="50" height="30" as="geometry" />
        </mxCell>
        <mxCell id="MklKlplRyfi0s2rjbk7p-15" value="" style="rounded=1;whiteSpace=wrap;html=1;strokeWidth=2;fillWeight=4;hachureGap=8;hachureAngle=45;sketch=0;shadow=0;fontSize=12;fontColor=#000000;fillColor=#FFFFFF;" vertex="1" parent="3yO276qXORORyjHlByuQ-1">
          <mxGeometry x="80" y="840" width="340" height="90" as="geometry" />
        </mxCell>
        <mxCell id="MklKlplRyfi0s2rjbk7p-17" value="spdk.gateway.tc" style="rounded=1;whiteSpace=wrap;html=1;strokeWidth=2;fillWeight=4;hachureGap=8;hachureAngle=45;sketch=0;shadow=0;fontSize=12;fillColor=#f8cecc;strokeColor=#b85450;" vertex="1" parent="3yO276qXORORyjHlByuQ-1">
          <mxGeometry x="90" y="850" width="120" height="30" as="geometry" />
        </mxCell>
        <mxCell id="MklKlplRyfi0s2rjbk7p-18" value="spdk.gateway.leader" style="rounded=1;whiteSpace=wrap;html=1;strokeWidth=2;fillWeight=4;hachureGap=8;hachureAngle=45;sketch=0;shadow=0;fontSize=12;fillColor=#f8cecc;strokeColor=#b85450;" vertex="1" parent="3yO276qXORORyjHlByuQ-1">
          <mxGeometry x="220" y="850" width="120" height="30" as="geometry" />
        </mxCell>
        <mxCell id="MklKlplRyfi0s2rjbk7p-19" value="spdk.gateway.conf" style="rounded=1;whiteSpace=wrap;html=1;strokeWidth=2;fillWeight=4;hachureGap=8;hachureAngle=45;sketch=0;shadow=0;fontSize=12;fillColor=#f8cecc;strokeColor=#b85450;" vertex="1" parent="3yO276qXORORyjHlByuQ-1">
          <mxGeometry x="90" y="890" width="120" height="30" as="geometry" />
        </mxCell>
        <mxCell id="MklKlplRyfi0s2rjbk7p-21" value="" style="shape=image;verticalLabelPosition=bottom;labelBackgroundColor=default;verticalAlign=top;aspect=fixed;imageAspect=0;image=data:image/png,iVBORw0KGgoAAAANSUhEUgAAATYAAAE2CAYAAADrvL6pAAAAAXNSR0IArs4c6QAAAARnQU1BAACxjwv8YQUAAAAJcEhZcwAADsMAAA7DAcdvqGQAAFyjSURBVHhe7b2He1TV9j7++8u+V4reexUIWGgXpFcRpApKkQ5KU4oUC2ChKUVAKQKCdBClYweBJDOZyUwmM5lMJmH/1rv2hA/iDpkks89ZZ7Lf51nPcx+v5uw5Z+93r77+P+Xg4OBQZHDE5uDgUHRwxObg4FB0cMTm4OBQdHDE5uDgUHRwxObg4FB0cMTm4OBQdHDE5uDgUHRwxObg4FB0cMTm4OBQdHDE5uDgUHRwxObg4FB0cMTmUFg8eKBUQ4NS9fVKZUnq6tSDnOB/q2xW/3/4d/DvQhwcCgxHbA7/BEiHCKihNqMaampUQ3VSNVQlVEMsruqjlao+ElXZcERlQ2GVLQ+pbGm5yt4vU9l7pSrz+22V+fV3lbnxs8pcu6nSly6r9MUftfzwk8pcvU7/3y397/z+p8revU//bSn9Dfrvy+hv4W/ib9Mz8Cw8syFepRoS1aohlVIN6bR6kCGCBDk6UnRoAo7YHP4OIrWGRIIJp/bKdZX67qRKfLlHxddvVLElK1V09mIVfX2Wqnh1sgoNHq1CPQep8ud6qtKOXVXpU8/l5Nm/y79y8vg/b/z3O3RRZf99QYVeHKDCA0ep8CsTVWTyTBWdtVBVvv2uir//oUps/UIlvz6sak6fU5mbvxABVjDxOjiY4IitvYG0HGg9DZUxTV7Xb6rUwSNMXNHpc1V42FgVGjBShfoNU6Feg1TohZdVeUkfVd6lpyp/9kVV9p/nVdkzPVTZ0yWqtFM3JiUmp//337YJiA9/C3+zc4l+Bp713xeJOF9S5d16q/Ie/Zj8Qr2HqFD/4So8ZIyKTJmp4qvWq+Teb1T6pysq8+cd1vqgZbLZ69Au4YitWAHNC6YkmXEwFzM3f1Y1359RiZ1fqfiGTSq6cJmKTJimQi+P0ORFxFUKsgLBmIhHomCtRIQg3BBIr88QFR41XkVnzFex99apxJYvVOrwMZX+8QqTeEM0RuZsDZmx8O/l3pNDUcIRWzEAvib4xKCJVVezXwp+r/SFS6pq81YVfTOniRGBsckYJPJqi3TswmYyyDsyfpqKrdqgkkR0dbf/0v47+O1qiOgQ1IBf0aFo4Igt6CBSe0CkhsOaOva9iq/5UIXHTmHz8aG5CDJjk7GdENqjwr49MpWJ5Phd0Dspf+5FFR75mootX62S+w+wNguScygeOGILGmBikjmFKCKijIlNW1Rk2mwVHj6OfWIPTcpC+L2KVUB2nYngnn2JtNj+KjxoNJnlb7L5mjpxSmX/usdRYI68OgQSjtikg4jsQSajGirjKvPHbVVz+rxKkHkZef0tFeo7VJV37aW1sfZiXtoSRGb/84IK9RyoKsa9ruLrNnJEGNpctiKiTVZnrgYGjtgkAj6zujo6TGn2lyHtIr5+Ex24qRwZNB5MJ4UVuigQkQ0PH6tiS1eq1HHS5CJR1pZx0XAAwkEsHLFJA0zNRLVK/3hZxT/8RIVHjtdpFv/uoX1EzsT0TqAFd+yqyp7pziknCELAXK05dU5ly8P6AnIQCUdsEpAjs8xvf3I6RnTmAhUePJpzt+ALMh46J95KjuSY4PoOU5HXZ6mqjz9T6Z+ucoSVqyEcxMARm18AmSVTOghw+ZpKfLqdM+4RzXRaWQAEPjkyVUMDR6nYijUqfea8yt65q6OrSB9x8BWO2LwETBcOBtSphnicc6qQTFre/X+OzIIspM0hXw6R1cT2nRxV1X44V8/qFxyxeQhsdpT8JL7crcIjXmNTE6VDpR0cqQVecDFxjhyZqgNGcola5vot1soduXkPR2y2gehmLM45Z9jsyIBH+U+7qgBob9KpK6fhILcwtmy1qvn+NBftOw3OOzhiswFsXpQ4EaFlfv6VCS3Uf5iObDoya1/SuRt3QKlctELVXr2uc+LSaUdwluGIrdCgDQsfWt2dv1R87UfchcKRmROYqjBTKxcuV+kLP+ooqiM3a3DEVijQJsVNjJSN+NqPubUONjLnnpk2upP2J0RujX3norMWqNor1xR63zmCKzwcsbUVSNuoTqrMrV+41Cn8yiRd5uS0NCdNCQju3z1UePArKr76A+4uDLeFq2YoHByxtRYN0NBqucwmdeS4Co+ZRJv1eUdoTlokZU93567ByGNENYPuF+eK79sKR2ytBEit5sx5FZ0xj4unXR6ak1YL2kl1LlHhURNUcv9B7m7s0DY4YmshkJeEISXReUtUqM9Qbl/tSM1Jm4U0fWhvoRdf5nItXJpcxdDgzNPWwBFbPkBgoDbDGeXVu/aq8OgJmtCc2enEgiBpOzRgBNeiwnfLSb4OLYIjtuZQX08bK8mTkaIzF7rAgBPvhMzTitemcsskHk5Tl3UR1DzhiK0ZoEi96pNtKvTSAE62dGanE88EFyg6ipT05tGHmV9+0zWoDs3CEZsJSOGoSvAMgcjkGbq5I0qgTJvPiRPb0qELtzHHBC64QrLhCqe5NQNHbI+C9kqjLy3xxW4ug+L5AabN5sSJ10IEB8shtmq9yvz8m/a9ueCCEY7YGgEtrbaW1f3onMU6hcO0uZw48VkwfaxizCSVPnXOkVsTcMQGIOpZGeNp4hi6i1bQzpfmRKzA94ZB0T368fBrzJB15PZ3tG9iI0J7UFfHEU84Z0O9B7vaTifBEfjeevTlZqUYjs2RUwdG+yU2pHHQRkBbbgQIUJxs3DxOnEgXVC2MGKdSx07w/AWnvbVXYoPpWZVQyYNHVKjfUMVTwk0bxomTAEnohZfJNN3Mbefbe71puyS27P0yHm3HswY6uU62TopEkPPWtZeKzlqop9nX1uZ2fPtD+yE2aGnpWu6BFV2wVJOaIzQnxSZoifSf51Vk8kxVc/IsWybtEe2D2NBiKJlUtVdvqPDI13Sdp2lTOHFSLEIEFxo4kpPMG6qr251p2i6IDWUo6JnGbbo7OH+ak3YiZJHA75bY9mW7i5gWN7HVYyhxkj7sTm7VzbWezvxsneBC+HcPHhmI7PdQv2EqNGiUCg97VUUmTFPRtxaq2NJVKr56g4qv+1jFP/qUa2wTW75Q1V/uIfmK/vcOlaB/Fv/oE/3vrPmA/5voW4tUZOJ0+ltjVZj+Jv/tlwbqSfgYgOPGE7ZeMDGr+/9U7L11XPfcXkqxipbYoKVly0Pc+gWHxNV6NiNEXEhMLu/Sk275/tw2p2LsFM6Rqly8ggkr8ek2ldx3gMfJpX+6whO4MP0cwZhsKMzdhJFugDbXDfEq9u+gpxi0BRb8b/wz/H/4dypj/N/wf4u/8ddd/pvpn66yfwhNFxOfbWcCrHz7XRWduUBVjHtdhQeMZE0EjnKey+qSqZ8sdJmXd+/Dl0jm9z+1WVrkBFecxFaXVdl79znp1jWCNAi0r84l/G4wcKa8pI8K9R2motPmkCa1kdNg0pevqsyft5l4GmrS/uZG5QI/9ZFKHjiN3MPkoWOcdR95cy6tfShrJSBllMKh5Ih/o9PO/yblz75ImvEb/A45YlrE5FaUxAZSiy5crkqf7u429+MCv0vPQWQ+vknEv0pV797LQRXWoGozeixcNqtvdZAZNr+EA9C4DqwJa8MaMYyaDij3y/vlN5X85pCKrXhfRSZNp99IWjpSeUzvoL0KfXto5eFXJnK1Db/DIkVRERsOZh3dRpE35riGkBBoqmg3TWZbeOR4FVu+hjSdoypz/aY2IaGNVVfrHl9BzlYH4YHkkik2hZHDlbl+S6WOnlDx9z9U4TETeeQdD9sxvaf2JLwnSpjcUIZVrP3diobYYC41duaAyt0uSQ2/GUma8JP1G8ZmR2zlOpU8fIznneLQ80aWoIF5APxWnsb/x22VPHKc/YTI7woNGKkDE+25JRVdeJHxU3WNKSbTF1kZVnEQW11Wt+4mTY0n/pg+ZLFKjswaHf+YVRkjLaXm9Dl2yBfbhm0TyPTKVkT4MCMyC60FPkYOQCC41N4uw87deL/wXNOamqK68IJPbPUNKnPjZxWZMqt93sAwK4aMYTOTb1/4ylI1WjNr5/WC/0DORwc/IjR8RGUR3Y29u1aFh77KQ4yN77hYBUSOAnrSYNPnLnKAplgQaGKDCo30gMikGdr8NH28YpPcDMpQr0Gc/5Xc+zWPA8xWRLVJ0U7MzIKASS7Dvkb45JIHDnNqC9pXtZvqFJBbp666O8jxk0XjqggssT3sdjt9fvu4aZFo2bWXCg0cpaLz3lE1p85ynl6xh+29RCPJ1Zy9oCoXrWAzjX1x6NFX7GYq/UYOKFy6rDW3gO+pYBIb3bTIxYnOebu4fWo4TLmcM7RXiq/9iJNX0RzTkZldsDVw61euoEDNZSm6Khd7bhx8bsPGqtobtzjDIMgIHrHV16vs3ftshhW7uYDml9ho1Tt2cftnZO4Xi6kgHnjHSCGpTrJmjLIwaDQcaChWcqPfhWn0mIZVe/U6B+WCikARG5y+iPRFFy7TJkIxbrCOXThSF351skp8voP9Z9x6xgUC/AO9e3wDTGVPbN/JQ4xRrVGUFS04U0gFeX2Wyly9wdZREBEcYoOmRjdn7L21WlMrNlKjQ8KENnCUir//kaq7/ZdqSKVyP95BBEiLYz/cnbsqsWkL+zuRYlOMFQ5IZga5Idk5iJpbYIgNJgE6Q3CgoBhJrWsvFVup50U6UzMAoMOOyweVDYhQF6P1gEyD6Nx3VEM0Frg9KZ/Ycrdk9Y7d3HWiqIIFIDQyaaIz56vaa7pek31oDvLBPrgsdyrJ3LilovOWaPO0mOZndNAT6FG9wtPnAwTZxEabB8mm3CRywEidHW76AEETbJjnenL+XfWefVy07yKdwQUiiNmykEp+fZDNN/b/FksPObp8Qy/mmlXSxRsUiCY2DrnTbcidbzsXQVUBmSsofUJRemz5+7n2MU5DKxrU12vzdO1H/I0RYSyWAANaQ6UOHtH7NQABBdHEhmxwjPIvGk2tUzeeYVpz6pxL2yhWwMqoqVHp8z+oyJSZOj3EtBeCJtDcSMFI/3BZJ4ULh1hig2qP8hZuNRN0xywRGvqDoTU2Imowrx2pFTFIo0EtavZeqUps36UtjiK4nEHSFa9O5t+FHD/JkEdsyBlKVHPGd3mPfsYXHBghQi7v0oubOqIPGvsoXD5auwK+eeq7k9r39txLunrBtFeCIFAwOndjhYPTQARfzrKIDWp8KqWDBeiAGlRNDetGgIBIDV1qM7/+4TS09oy6rMrevadiy1bpyxq1p6Z9EwT5l04Dqdr0OXculgpRxIbIIFoQoUlioJMeYXr2HcrDSJyW5sCXGiyRVA3tiQMqPHxccC9tCK2d9/ehY6SSyryw5RAbfXwkp8JsY1IL6IeHuYFRcty8j0zqoiY1+ma4jOAsb0gk9NSpioieOlVWzuPesvdL2SfzUPDP8P/Rv1NP/y7+G/5vMTAGPfiLXLPFnkj/8BM3RWX/cUCjplxTiiaVl6/pdlnCIIPYaDNjg6N1Mwq/TS9SvHR4TpU/35/9D5nfyPQEoQX9kMIJjmEpGJ0H0iot5/FtqF9NX/xJ1Zw8o5JfH+b6yfgHm1RsxVo9Jm/2YhWdPk9Fps3mVtx/k6mz+f/Dv1P59goVf28t/beb+W9gGAv+Jg4+noFncfE/yA9rCEiqQXNAWyAEkfCukBYSVOsEpY2YJ4vLS2VlXeD+ExsOP93UyW++VaE+Q4wvULygcL2kj456kiYSSMCkIDLm7rIgMzKb0JsM4f3qPftVjC4dzPVEcT6ifDoJ1UIbHzLj8bfhjgi/OomfGV/9Aa8BvcKyYdLyoCESOeiJWgG9QHBpxKu40QEGUOt3aXgfkgXfnkgZ+54bNQiC78SGfC5oOKGXhwfz5qINicL11JHvgmt64pDFYtyNOHXshJ7XSdpVOR04BEDgLMbtzAmncHyjbMiWCYXDgr+Ng07PwjNhsmENKDgvJw2nYtwUFVvzgUp9e5Q7boAg0CI+cMB7J000dfyUCg8aHcyUEPjbXhzAAT9J2rS/xEYvAvlq0flL6OAEzATFAezcjSeT13x/hjYokZqgD/tEkIbMNY5/3iFy+I4z5THxPTzyNdYeeHQhGitKrMsF6XUuYZLDWrFmrD2+7mP+LVzNgYCN8Dyrh4AbhrSd9JkL3A6p7L/Ba3FfRt8DF+HDKfMC4Cux4YNWf/V18JyotFYQMTYiO0/h+JYMHB4y3dhPdueuSv94RVVt/EyFR0/QPh6QWKFNSo8FyaP4Lejdz52Gf/hJJ0PDPxcE3xwyAq7fYr8k57sZfqNk4e40K97Pac/+k5t/xEaHDY5izso2vCixQgQAsyzy5lxVhyRFqdO04XfK+c3gL8NBj5P5Fh41obi7wOYE7a1A3PjNaKcOk48PnHCCQ85jdOFybe4H7BuB3FKHj/Hgar/hD7HBBC0nE/StRWzOmV6SVIGpgFkLD8tKhDqusblgllXv3sdlMKHn+7Gfit93kLTj1gqbrN20b677/1TF2CmqeudeHp4seQAON7K8e1/F3nlPfy/Tb5MqnbqRxvwaD1ny+wLxnthyZlFi205tBplekERBOgeZCNhwD9M5hAFRQkx7T1+8pOLrN/JhBqHBB1LsGlpzgiBEqEc/ficwVWtOn+ecuwfoDiuM5JjcyBqIrVijKxWC8u2wTtpr8TUf8rv1E54TG/wdmV9+V6Geg4ITBeLyqJ4qumCpnq4uidRwUSA9ozLGEUIM/w31HsKmmPG3tHfB4evUlbveIuew9tpNvgx45JykLHpaS7Y8zN+Tgzmm3yJUUA6ZOnSUS8n8ujQ8JzZknUfnLw1UOxeYBNEFy7RjVJiPBrc78rsqMeCmex99cNu5dpaXIGeMzFVo4ZghikoRbiUlDHDZYAYGp7+YfodEeepZFZn4hq9KgKfExgXu337H2k9Q/DyohOBuBqWyNDWUIdVeuc4tqUO9BuuKjSBtfimCCPd/X+R3GJ21kIMsHGiQcoHV1Wlye480twBFS5FkjXxIbtHlAzwlNhS4w5EdiAxrbHjSKqNz35bjU6M14NDhPcY//ESFh47RhOY0tLYLaRmIdoeHvMLvtvbqDb48RPjfQG737pNWvlxXfJjWL006krnfc5C+KHxIh/KG2DhgkFbxd9fqg2h6EZKEiAJ5asgp4r5Tfqd05PxocMgmDxzmpFTO/TOt3UnbpXMJv+Pkvm9yeXDwv/mvwTWSW2AmtT1dwlowZxB4fEF4Q2x046DmELdhED5IGSoKxk7hsDundPgNItb0uYucO1eKTQ2T02lp9gTvlt4xTFQ0iExfuMT1qb6DyBVlb9Gps2l9AXDl0HuE+YzcNq9nk9onNmgbVQkVnbOYN4rxBUgS2tAwl9FdgjU1H00RDvvfL1XxdRtVeMBIXXbmCM07ybkjQi+PUPENG0Vo7zzgiMgNzQgCEfmmd4g5H6gC8RLWiQ2JoqkTp3TIWnrAgG5BLmj/7qS/ZVJ0M6PesebMBU5iZqexCwz4J9A8Snrz/Nf02Qu+Nw8FuWEgEPtYydwzrlmQ4N1Vffypp4nRdomNfgQKY1Egy10hDD9ajBBxoPVQ6ugJ3aXDD+Cjk0bA7WwwBIQ0BfGXQXsSOMT7DFGJL/dwNxRfNXq6/DAOL9R7sPw9QhcDSBiapleuHavEhqTH6t37taNbuAmFspvEp9t0Xym/HMV0UFCOEp37jk6JKaap4sUg2MO4AJH7tmCZnmXho2mKmQNo0MkavfTzRWvkInmPlAarxIa6PHTACMJLR9IwN4n0Y6PC9EylVM33p1Vk/DRdI+g0NblC3wYXD1pWsYZfVZX7kB6D9g2SYGPL1+igkuRzBm33pQFc6eHFkHA7xAb1nFTOqo8/k513g43QuZuKTJqhc9X8AHKUIlGdxoFmg6jrNK3ViTyhwwqfbHLfAV0b6Yemj/1D5IZZIcjDM65TinTqpmJLVqpsuCK3eHuwQ2zZeo4gIRdI9C1CZgVaUKfPXlS+dGDFjVsW4oRQHVyRrdk6MUvohf4q/v6HnPPmS1CByA2tmcLDxsrW9GltqNFNnz5He9+ub9IKsSESCn8VnPHGHyhBiHBhguK2ZbvfBydw9s5f/9eexpmewRX43ehiQifoh+2svATtXaQGVe/eS+beQPMapQhpuSjs58iyRRSe2LJ6OCxGc0k2q+AjiS1dpeqj3t+y3OHk+i3O7SvvFqzODU6aECI3VNVg+AyXYyG1wWPAHEZLJumNRBHtR8K5TRSc2JCqUPXZdtm+IlobHL+ZX3/3PFiADHb485C0GIjyMif5C8jk6RIVmTKTo9vcLcTLVkgNDby3sLclnz8e2zdjvs4VteSXLDixIWOfbX3BJR+w85PoF+U16COixVB4zCRnehazIKgwajw3K/C6FRJSrNBoFDNuRWtt8LXRWbAVIS0osWGRiS92y81bw5roJkt8sk33VvMSDx5o0idSKyuC4SlOniD0bXnmwvBxbBV4WsVClyfy26pojyM307g+AQK/8sPhLxZQUGJDz7LotNlyDy2RWmTi9NyYMO+ioDA/0ciQ6/uCNmbQSesEZ4A0NzRTSJ//gcugPEO9zkqIvDFHrkmKLsZ9hnCuqw13UOGIjTSS5NcHVehFoXMMELmiG4xngHo4RQdOZHy88OjcdCjT2pwUrxC5RcZP1XmSXrbKJs0NycOio6RPPUfW01Zd7VNgFIbY6GNBK+EqA/qQxh/hs3BJx9LV2izwanMReFbkpOnOp9aehbSmMNpgocOFh+17QBhIkhe790irRfZE5vrN3IoLh4IQG8ii5uRZfTtINEPpw4J0M795OKmabsy6O39xoz1nfrZzgc8NqSBkGjK5eRWJp+fA7YIoKaZ0Gdfms+C9JLZ+oR4UOPevMMRWGVOVi98Vm74Q6t5XVX+5W0eovNDW6FbmuamLVwRuwpATS0KXK4JGyJ3kvm4eWQ1oJY9yPQ4kSNTciPTRQBXnpZDvpO3ERpoJOs3yjNAOArtR0MfU7Ynv5xZsGfQ+MM6N62TRdcG0JiftVsqf68lTpzyrdkGUlMgNbe6l+ngxSAe+b6y1UGgzseEDJXbukUlqGHJc0ocHSvBgXA/AN+Q3hwI1icuJh/LUszx3Ez3dPMtxq6/X+ZNosmBak8+C1JjoWwsL6n9sM7Fl/ryjE04F+tZgGiNXJlsRtX874u9nsyp19LgKDRgh09foRIZ07sbNFzyL0NPeRCAhvvoDnWNqWpOfQgoAEnYROX6QKYyvrW3ERqpj8uBRmYmAHbuqUN9hKnPzF2vZzX9Dtp6TMdE+Rny3YNuC8YogdlSfoFkmIuUQaPXQYh3pc6S0YtxU2p8/F9xxbgSRW/rHq2K1Nlg4iW1fkgVYmNSPNhEbmiNCI5JocuFFoSDYkygo/BgYWDPvnfbhV2PSyhEWaR+IuMF/A20AdYB4B+U9+vItjILn0MDRJKNUqP8wjpzjIkTmOf5dmCH836J3P/0t/pvthfzod3IwAb3cPPC3YY+i4y5/O2HvF3sIaVE8Pb4Ar6L1xNbwgDWU8OgJxoX6LRVkHnNWsxcbJhbn2yYQA2vaKnQgQEqh/sM5jSA6520OlCQPHlHp85fYnEAjQbwTlnjVI5L7Z5Ux7lac+fk3HliT3HeIp4ajMwa+GzLS2dFd7O+SBHsmsWmLNxF7uoAx9SzEDU2FWRX0rZEWhb5yhUiHaT2xkSaEulCJZih8azhsXozXh5mLA82DV6BtGNYTWMGtTr8JXZBDA0byxKzE5q0q9e137IyGf/UhiSVT6gFa9ZBJntcBxb9DGxhF2wi44G8w2RExovwsdfAoN+CMvjmXSZSDMcX2fiGkPSFJFc1OvQgmcLDvs+0yO1vTfouv+4j2Qiy32tajdcRGmxK1b+jPLy7xj14O/Ai1127kFmsR9B6Q6gJNo6i635JZyGRGhAKfIZqGooIiGyISIyIqZFi+SWCPEVlmy8r5Fo9/sJk1xFCfoURypBnDjynMnGqtwCTHYOZsuQczN5BjSXuW+yUKvCjCw17V7cTaiNYRW12dyvz+hwqhNYphcb4KqbSJbTt1npBNQOOg94BhxtwB17SWIAlIAs5+MlHCr0xQVRs/1w0TQWT4rQKAbwpNMb7uY21OoUsKzNUiIDgk7/KUNNJcvQDMX4nJ4+Xd+6jk/gO5VbYerSI2Vmd37NLmgWFxvgk6BvQdqpNxLQcNYILWnL3AwzxE5vC1RIgcynv0U9Eps3i4NTSHhupq7yo18gWCNPTe4QRHpnry68OkxU3hpNfAfwNaf6j3EJU+c0Gb85aB0q6KVyeb1+KnkBaJgEpbL9RWERsGkESnzxOXyYxoHHJ1rPdaI9JEbhzawgS6DhT5VD0H8RzT5IEjbKJwex0vTM22AqZqdVLV3b6jknu/4eoSrn6hy834W6ULtE461NF5S9j8tg2Y+fBD8xkWpvGirrsONbVtaC3WcmKjTY+2x6EXB8i6JUnrQDQtffkatwqyCWgzOExMakE0g+jwQ9sOD3mF8xA5gdnDrhMFB6J9pMEldu3VgQak3AQ00IDOt6hK4O9hWVtGkAaJwmzOG9bilyAlKHX8FLt6WosWExs6eaDvmmlBfgqCGNAi2flqeUP8X/vzYJo/od6D2YfGA6KDoJ3lC2jSpWUqvn4jm9aBvHRozeHhY7XGYjmQgPy52LLV4i4BZDVUvv1umxSUFhMbDgPC/qYF+SkwqdKnz+dWaQ8wcxGhC1x776eeZS0N346rMWCu247AeQ1caKTpwAGPSGpkyizdcSZgBMfJ5ZhTajkABh9q7Y1b8sY/5vyN9ZjT2sqLt8XEVnvlus7ZMi3IL6GNG521QGsglsEtvoWWpRgFh/rpEo4iVn38KbfM8az42kfA+YycOBAEAkpc2WB6PxIFQTDSqlFuZbUckC4CkAdSTVABYlyLT4KIbQ23VG+d1tYyYqMXgaGsopL7cHARKt+xq002ebOgmwNmODQeaZugSaFbGM7h8NAxuuC6Opn7Me0EtF+h9SAwgug1a9mm9yRREB1cslKXW1kEyiITu/dp0920Dp8EmjYStFsbCGwRsaFYl21yYUGD8MCRKv3jldwq7QD2Psp/cPsHxbSBiRF9cx6XlolL3fAK+M1kcqcvk2k69a3g+EVpjyFAx33KbH43ejd1t//iy8+4Dp+Ea0enzdaT9VuB/IkNkaeych4GK+pg42Z75z2VDVu82XDzx+IqOnux9tmY1iFMcANzy6ZG07M9ktojgLaNaH504TL9DYVFAo3SqRsrEqittQbaF9gflYtWcAWEcR1+CPxsmGLVynkI+RMbbr1Ll7lLg3EhfggRLBfOnruo868sAdoa0kjKu/WSf+NjQ9BNj6Jy5Bs6/B9wgBE1jS1ZpQcKB4Dc4M9Go1TbQHoFurGY1uCLQHnq3I0nbbWmR1vexIZNwR0suvcxL8QPoRstPGSMykaiuVXaAQq9KxctDwSpcbeIzVut+2YCC7I80Lo9tnK9zncT7laAFgVLgSPYFrVudP1gU92wBj+Fo8PxlpeZ5U1s0IjQaUGS4xxh8RgqDSyHxdOnz3E7Z+mHIPTSAO7cwM36vOhDF1TArUKXIWYP8H6W/F1pbZgJAJPMZoQUpnrik23i3gUaH2T/uptbZf7Ij9gQEayMc26JJK0F66k5eabVIeF8gCoD3BrS0wVCPfpxfh1rah5OuQ8sSAOCYzr+7lpV/qxszY1LBVlzsVgqSGecL/AXZJnoXE10/ofcIvNHXsQGMzRz7YasbgCIhr4yUY/tsqidYC5jWGgzTRZ6D4h+xleu0+/CIX/U1emE81kL5TV0eFQ6dWPfNo/ts3hpIXpe8dob/DzjOnwQpJYltu/KrTB/5EVs0FqqkesiqT3PMz1U7J2VVv0O+NvclK9EkF/xUSEtA6ZUdOZ8LmB3aAVIU0G6QxT+JcxnML1nCULfOnXoKJmM9pqnIvKvq2oE5WkSyaK8Ct+pJciL2OCPQLKgJP8aOjngQ1sD3YzwVaHxndSCapjHXFd4+26rIkcOOZDmlr5wSVwu1+MSmTjd6nxc7gZ96SdV9l9BCgwRemTyTJ3y0gJyy4vYcKPx9KXOcvxMMA9hJtoCnKlIjhTZTBMCU3zIKyp96qwmtXaep9ZWIACFlufc+kjoRYa9mDpy3N63JuJApxceHynoHYSHj1OZn3/VkeE8kRexoc02nHhiAgfE4rHldhMX8beRHCm1Oy77HjZv1XMdHKkVBJwGsvoD3bhSYjChU1cVX7XBbs5mMqUqG5OYTWvwQZBfhzy7lkSFmyc2OjQ1p85ph6KUj00Ei35oLWHwlgJjwLjYX2jjwuj8pa0uN/EcIN4gkC83EI3oAeCCHOiPCpuj8Kc22HmfyDDA2ZJkqfAlvmlLi/yLzRIbbofEzq8EkdpzukXRhUvWDgs+bs3p81odl3ZzI0LWbziXB3GplDTQN8G6uH03kQQitcj2RwIo/2/6Z/j/eO3SyA7rydZzpj8aVhrfv8/CTRhPnLaXCVBXxxYaEt9Nz/dDoD1G5y8hbTL/Jg7NE1ssRurveuMDfRHSoMJjp1j1r+HwIRJjfL6fQiTLlQWf72BykAD4IvG+4ANJfXeSu6xg2AreH6Z3oZAZg3AjE99QUfrf+GeVi1fwv4MwPv4b/Lc8xk9CW3LiNu65h+RdgXXB+pAvtRcsgp8tEmXNUMylTpd5eOT4Fu35ZoktW1pOm3OO+YE+CKr+UbCLw2QLGDWHjiGm5/sqnUtUeMQ49gV5MfDDiEaNLFHNZIQAC4gK0WM2X5DInO+BoN+Dmk38t5ULlvLfglaHaDQfXB9JDpn+3HdPmsb+FFksvQbrPWBLa6P3Hl24XI4bBhd6SR9VjzOf555olthg8vAMQtMDfZCyfz/PPeGQW2cLGP8lcTQZAjgoCvZVq8lmVe2Nn7nIHtEzniuLoBKy1VtDAvhv8N/ib2D0H5FJfO1HZA7dtOokbw7oU5b85pDICCkOec2ps6wt20Ji65eizgBSUNDkNl9NtVli45QHQVX/iFLiNrWliqOTB5ve0jY0HfxKukX5pvbBN4WDnrn1C7eIQhY8b/pC+yDxt4jcUAUAHxfMWWjPTHBe/2YEEspCKjJ+qqyEVRKuNEGJlcWsgPTZC7qE0vB8PwTNADBrBVHbfNAssfH8UCkdc+lwQ2vhw20jKkSHB6YQ/ELG5/sldOA5IRk5TBbLx/4BkAnKjv66p6p37eVooZe9zHCAw6MncPAKhdA2a4JNwCFK7iPtXVguIxKzI+OnWa02kTZ3FN2PocnnS+bNElv8vbViWirj5oxOm2OvxTWRRubqDT0E2fB836TDcyo6Yz6noHgGMndBJKgfRNsc38wSInWYIdHZi1hj9FR7o/2ASzQ84jXSTgWVW9F+QPswzESw9S642mjpKvPzfZCyziX6DOTZY/DJxAYn4qyFnt3QzQlP7wFrIynVBrJZVb1nv6z+7zDPiNDRTPOB5XmpjwKXR83Jsyo8eIz2oz1VQJOzpYJ3gMjYkDEqeeiYdkN4RW5kGeg+hP8zr80voXeimzDaSfnBGcPvNj7bD6HvX/Ha63zR5oOmiY02DiJf3Arc9CAfpPz5fmwaWDNJyOzi1tGCprtDW2azI1zBF40XgLqPAAqX1qCMDsRiWJvXAoJF0nTii9069O/R+8j8eYf7gpnW5Kewny3W8iaMeYG0VeTLsaYq4fvTOsJDX2Wfaz5omtjgPC0tVxVjp5gf5IPAoZw+94OdwAGIPJnUEWBBgQNEwBLbdtozvx8FCv/jVexP4xI6IYT2N6GbGz6v6p1fqXp0TvZAc8O7x8QkBDZK/2VYk0+CwEb27r3cKgsPzGbljtkSLDYk5vcarNIX82uT3jSxkVmGxEkUoBof5IOER43nWZFWSqnq6Pf+flucGQoNhX8zaZNWAWJPpVTqwGGeaWlcjxShg4bGmtVf7bfaxudRoKww9OLLYtwyEExMw5xbW+BUL9KSROSz0VmAKwqNZfNBk8QGrQgvLTRATqJqZNKMXES08CYIDkjq+Ek5EWASjn5Nm82ka1szAamlMV7wxQGiNNYmhSPkQ7kjhxcmKaKEqKAQpc2TNpXc901uhYUHoq48TFlK92j65tyqLI+z0CSxIZ8rdex73evf9BCvhRgb5Ti2HMfw2SQ+3aYHfJie74OwVrJnf26FFkEaMKZwoSNxIEgtJ9yPbsRrqvbKNd6vNsH7Y9tO7XM0rMUXeaaHim/YbO3Sw0hL7vQhqA9jYsfuvFxRTRNbOs2+FjHRIFKH0ezSFtCHCgmhkmYroomkzZrYRqA9NtfGdhLUwSVP0akgi+k3VLBf2Brgqvj1d93SSIo5SuuILlimI6M2Lnt01F2/Uecump7vg6DiJR9/c9PElqpRVR9/KqasAi+36uPPcqsrPNCZNDJ5hk5tMDzfDwHZ2MwuZ9CBSGz5QoW69zWuIRBChAzN1naABQc9jPkXgrS26NTZOohiwz3DIwFIucGwG8Oz/RD0SKzP40w0TWzJFA8IkWKaQXO0aZZBMwoNGiXDUQrp0EVV79hlNWgAlR5aSHjw6ECZoP8QBBMwWPjHK9bMMoCjo42NKE3r8EEqxkzSuV0WtFXuIn3yrKhBN9F577CJ3ByeQGxJrk2UooaiBxv3obIEZHHz0BYJZsZTzzKRp06csntQqxKcCyV6QlOeAj9QfM0HLWpt01LgoCcPHNEBFsMa/BCkJ6E43E6mAF18N38RFVCLvDGH09CaQ9PERreTpAHJyGHjD2gDRB7I2WGtRYKPibQ1DBbJNxmxVaCDgBpQDg4FWVt7RFCZgBQFa5cBDjqaMKKdkeH5fghSc2rOnLej2ZN5C/+rpKqLitem6jGEzaBpYktU8x/h/lqGB3gt2Eycz2UDtCkQATY91xchcxhhdnSdtQUk4sKHChI1riGAgkAC6hutERsOekVUtw43PN8PQbJycv9BHUCwACg4PETZ8Gw/hANqeZRVNU1spNLzODIhPidspnyYujVADlf1F7uNz/VFOpeo+Mr1OmfPEjj5GqMF/awBLbQgt63vUG2q2DDNQJj0d3kGqZALAWZi1cbPraW7IL8zjFxWIb+XE9Zv/ZJbXdNomtjoRuc+bEJC2xHaTOidbwPcCvqDTcbn+iGIzFqN8tXX63Y8iHgHLL2jOYGfNHngcN59u1qD2Ir3xfRoQ3AvTuuxVT+NtK8w2hchFcjwfK8FSdnpHy7nVtc0mia2WFzUxudoCHKVLACaUWz5GuNz/RAcGtTEWruFSUPF4Sw2UoOggUHlgmU6BcISkB5T3lWGQ51/L50NW910QZhw2EtpXQZlC5Ha5tA0sVXGRM3UBPHYMs1AmNgcpuf6IQjY2Arhw5yC7w7laaZnB15IswgNHm11NGHy0FE9WNn0fI8FhINcNls1s7hcueONmOyIgTwAqDmYiQ2bP1whitjia+y1aIFPhv0mhud6LqRFwW/Cw2psOMHpb6YvX1WhfsPMzw+6wGdIhz1z45a1SgSMfhTTNrtzN+50a6tHIYgNSoUULkCqTRL1wc3ATGyI/tBhF0VsKKWIV+UWWFig2FdMe6acA9xaxQERW+LLPaJC+DaE++Nb0mKQ88jDtA3P9Vw60n4ZNJrdCzaA6eux1RvEJOpDU4YPtTk0TWx02BE+N/1xPyT+0ac8ls0G0LkBYWTTcz0XMqWwFmsNBOnboixF0qVlQzC31NY7hJuAMwYMz/VcUHXRhy5CS8ESEBvepZQkbox4ROCrOZiJjVT4uj/viLGrIYnNW61FCetu/6X7Thme67WgY0XFuCnWtFMQW2TCm7ppouH5xSKRmQtUtjyc+9GFRR0uQim5bP96lv1OtogN+XFosimlZhz9EvMprTQTW1Z3MhBFbFt2WPt4aP0cHiJjdipSPUA81oiNLi3usSckjceWhEdPtBZAQD6lmFbhIDYyz2wSW2LzFjFlVXChJHbuya2uaTRNbLd+lUVs23da8yOgAF7KUGiecTBpuh1ie/CATQu0WDY9u5iEy6v+zG/wR0vBDRjHTzM+1w8p79HXLrF9tl2VlwghNrTKR3OIZtA0sf0sjNi2fmlPY/vtDzH1f1aJjcxQlMqhoYDp2cUkXIJHe9gGxBEbHXY0rbABJjY0YBWjsRGxfbE7t7qmERxTlG4NWx+PncFCTFHU5sLMsUdsCUdsbQQHmwT52Mpf6G9VY0MfRFmm6Fe51TWNJoitns0zWcGDLQqN72yANyqG4hqe67kgKjpyvJ2IHpuite3HFM2jWLo1YJ+slCg6oqJID7JEbBwV3bBZUPCgr6revS+3uqZhJjZERW/LioqiE4W1dA9JeWwdu6rQyyPt5bEheNB/uE5kNT2/SAQTzdAV2QZ4epOUIUeYtznYbh5b/P2PxKR7YLZw9Vdf51bXNMzEhjy2e6VEbMISdKvsRAqz98u4LbjpuZ5LrvLAWmcP+raYqC2lqNmWRKfPVdnyUO5HFxbpS5dZSzI913Pp1JVJ3F7lQUbFVq4XlKDbXyW/OZRbXdMwExuZLCjpEVUr+t46a1pMtixEB2Ge8bl+CAbKcIsmIqGCg/5mbMl7orRxG8LddC3tF57e9pKQLrrwyb421WpJFQ85ErJf8N5TR0/kVtc0zMRGkNbdo3LRcl0/aQH4uzylyfBcP4S7e/x4hR23BQdKqrbvLP6Sqr1fWzvs6N3HbeQNz/Vayv79PI+ltNndA39fTCdtdPc41ZbuHvEqVS5o8jVeri3TAiQeX7fR+Fw/BEm6ya8t9RQjYktfuqJCfYQUcRdacBGTmY0W3oju20B89QZuF2R8vscCqwolcuibZgP4u1ypIqSTNvZt+kLz0++bJraqhC70FdI5MzJxurVMcqSRJLZ9aXyuL4IOuvApWoqM8qjBCXLysAoqnRB8GcEBISug94dLVkwHXbKqUPJkrXcfaYLhEePEzMVAV5paXFrN4InEFuYZijKczOGRr3FNpw1gU6QOHDE+1xchjQODdOD7swHU3GI2gBQ3QyEF/sno3Hd4NkHBgTxAumw4gi7k3TXmdcHJbwMw5zlQIsRyy3f2SdPElqjWA4SldM4cMEJlbvycW12BUV+v0mcvyqmfJG0AeXUoa7MC+r0oJOZIV5GRGyLKSAewksyNafBI9ZDS2YOEnenHTijMiC04iMgRnUfheem/zM/3WsKvTMxLwWma2DB+761FfAOaHuC1YMxY+syF3OoKj8z1mzoKLIHckHT50kA9Vo1MHxvAaD8uIysmYsN76zVY569Z8K/BkZ46fkpUgjMaGqR/+IlJt+BABdLvf4qpOoBEJs/MyyXVNLElU2yuSEn54D5MZC7aQubXP3TiqpQZm526qsSuvaxd2QBSITAsubRD8XT5QEpCdMEy/c4s3AfQAiW18IGgiwnKH23sE7ho0C1Y0u+FsoVZp82haWIj2zr+gaBSCloHHPy2wK1okLjaWUb0B5pUbMUae+2LMPyXDgTnYxXJwGR0kuWh2pa03IZ4PBchlOGegUSmkAaDg24h5xHKTerQUVX+nIyqAwiUrXzyE5smtpq0rBbSz/RQ8bUf5VZXeGBzROcsFpOvA4GT2lbABABpgjylZJW3SYhsYu+utXcRZOvp8rur89ek+GLp8ovOXkxKSMoKmSOAiD6IkhL14+s35tVwtmliS9eq5OFjKoRcNsMDPBfaTBjBp+otZOMTOJeNiFPSR8TgilQegytaCyQAP+zfL+WwtkbogGO4SvrcxdwvKzygvST3H+AOx8Y1+CGkaYPMbWmoPJaSLj4pfnYIty/LIwLcJLFh09ecPi+nJo4k8vpbul60wcLtBLX7wGFR/gQerUY38gOQuY29iwORzfI8CSmZ9K2STt1U4rMdrGHYAtcTvzlXlNmOwvR8epO1Fvybp88TkxmBCwyXSz5md5PEBh9M7dUbcvqUkWDMGNdQWnCUIlyeufmLrFIjRPkGjtLmqI2oVw6IMkXnvq1zFgMWJeW8talvqWxpGZO0FdAFAG2QqzUEabaIzkL5sAXuLP3KRL44TM/3VGhf4lvnM1MUaJrYiDyyd/7SP8z0IB8EJMvOYSLdggPJl6i26D1Y1Obl4RWcl2WnLQ2DCCF98ZIK4RILUiCBDhxSVhC5g+vEFlBWlPh8hw4sCSL+8LCx1nrOAUiB4vmpEqoscMm/OEClz/+QW92T0TSx4aBHYzoKZHqQD4ICWOQR2cqyBmFGpswS5UdBQXzk9VmqPmKpjVEObIofOa7Kuwlyjj9J4Fd7aaDupmrBNfEooNEif8q4Dh+lcv4SHmxuBdBS6cLA/hNB5khaR9UBWZH5oGliox8G8wylPVJuKRy6xKfbrXUygOZStUnORB4WIhmo4OmfrnBekTXgIktUc3dSTgERpJn8Q+id8FAPDPix6FdrBN4JZ9+b1uKjwL9mS5PHXsP8TjH7oFNXVTF2MpvH+aBpYgOI3LimUEhuFzoqIDJqzSwj8xu3lKSACQsdZPxuW91NHoJ+PyJhaMMO7VgkudEGB8mgozK/Dwv5Ww+Rex/odyYmvxGCy+6/L3DDS6Sh2ABnCaz+wPx8P4TeP3omZsvKcyt8Mp5MbITEJ9vkJOihW+jQV/UtjYheoUGHpO6vu6ImELEQwWAoLsxwWxv5UTC5IYfxhZe141gKwXXuxuZnFYZnI1/NJqkRGmpq2DzH3E7jevwSnAOLMx0Ajoi+Psv8fB8Ekdn4qvV5Nw9tlthSknLZSBDi5lpAG5uayBLJjpWLVxif7asQuaAZprUE1McAszR56Ci3iUFffeOaPBbURVbv2qt9rDYutseQjUT5kkN/PNN6/BJuLjlvSV6lRa1F5tpNOXMdSPCbq3fTt89zoFOzxJa+fE2F+tPmNjzMD4EKnjpxmm9TKyDCTGz9QmTrbA7vo3uoB4caZhhqI2tpg+Pm9q06gQgdPkY479FVGITrxe9HdjvKiXCgpAVTOH+NNGp+F5aQRE7n8/2Nz/dD2PQ+/0PefuZmiY1rKMdONj7MD0GUJr7uY2v97AH2swnsMItyLzSI5JvaVs7WoyACeYCa0t/+4OJvjJzjzrEeHXQME4LJhe7GWIO1oNHjaHjAFRkoMBfnZ4RbgkzjzM+/2WlVBNDlDv8ak7ppDV4L/WYE9NhSows3HzRPbBVRWaZZ526cksGJupYAB2X0jTnm5/ss3AygMRroheaWAwI2yCGMzl7EA3q5zAYmaiEPPv5Wx658oBD1xLPQkoe1cy9/K2lr8fWb+CIxrtNPof2PRHXO27PxTuhvQlOPTJsth9RpTyCHtSUR8GaJDRsaKRbGB/ohHbpw08naK9dyKyw84GdL7v3G/Hy/hT4ytEloFPneXgUBDhHM03SaTcLYkpU6elzIhF58237DVHTRCk1o8KfgN3pIangW+v6FB46Sc7AfkfKS3nQet9nT2OnvcsXBqPHG5/shXF0yZ3Fexe+NaJbY8EMxboyzjyV00aTNBnMIa7IWFaPDxA32evSVkXX9qOS0Gh5uY1FrbRK40UlbwGSvzK1feOgMyrHg2OdyNNQV5mOq4jvSv4v/BhcVtLPk/oPcJRlJp+xLsRz1/AfI7EYybsWYiTK1NRIMR+ae/5beDQIzNd+f1hU4huf7ITBDExs/b5FfvXliI+CGDiFBUYoTlQ5F1cef2ctnI+Dg6rFjcjobPCr42Che5yiplxrNY4DfC0RUe+MWa7mx1Ru4cB/ugopxr3NJHuZVsND/xj9DDzEQWWzVeh6TV3v9JvsNedKS12TWCHouvjnWX/6cnA4vf5MOOp8R6Ti2vrm0PowQTnU6eiLvwAGQF7HBcRseNUHnNBke7IdEps7Whc+WANLEQZXc9SLUf0SuxMySv6WVgFO7IRZj7Qe5VpgTAGc3/jccwPWVleoBTClBa+bvffCInPbwBoGlAv+qNfKHNl6V4D6AksoKkbuaoYuzJY0g8iI2ZHhzE0Yp7UtI4GeqOX8pt0ILoIMH4uQ8LoG+FpZOGDU3nFMybBaBtxggLBw++MeQUAwSY6H/jX/ml1bWFOob9CwDmF9SvzUJOr3UXr2eW7QF0DdiF0yXnqLeA+rVkVPYkn2TF7HB3Kna9Lmo3C7kVUFltnbr4+/Sh65ctILTDkxrkCC4bDBNjPveW2xtVLQgokV7LpjIUoYCNyWx99ZpM9QSuFZ451ey/It0eaPYnzv6tOCs50dsNWlVc+qcZnLTw/2Qjl15iDL72SxqAIjOsdZmWoMEwc3aqZuKvfNeriJDjnknHWimisHKkalvib684FvDRQ4CxpptgdOcZi0QVReLck6UdbYUeREbVPVseTg3X1COisqq+XXY3pYSFQn1lTHS2paLNlEg8A3FVm3QIXFHbs2D3hEOcmzZarEBokaBBsUDtCsiucXbAVcZoYxKUCYA3AM8hrKFyI/Y6JwgWgJbV1LdHE/BRrKqxegoTJXk1wd1KyPJ5PaUbsSX2LGLv5U1E71IgMqVh6VzQoMFjYJ9njp4lPMrrYGUA7TdZnNc0D4PN3bNbiHyIzYC8lviGzYJmwnQg9MKbJZXAXCo8mg+4QeAu1/0GcLRvYaE/T5lgURDA12ESe5lJilXq0lBl+AR41R9mLQ1i51d6iO5CiMhE98bJb4y/44ejyJvYgOj15w8K2oKNogGfj9uPoeomyUgAx6JqBILov8hKD8ZOkYXDHtVWxkUgNRIm02fon0Mk0v6tyRhq2TbztwPsAe0AZfUzYO1RtrL0FQftKJjdv7Ehmz8P26TajjFvBC/hG60xGfb7XZSJbMO/g0uM5HUcPAJAreBHh6c+w0OfEDSP13V4waFtGJqTrgu+l5p7hfYAxLeRQUHOzzHxf68h1uB/ImNDjd8Wch8Ln1KkK+pQxdV8cpEq033APg3qvfs1xUYpnUIE2iXkfFT9XuxGFwJDJCjdfU6mXWv6ctJeDAI60NAiNt/tyDjvsWob1D1sbgKjyWFRRLZ0zdC1kP2zt3cQluG/IkNIFUebaNF9SrDBujeh3tnWe0uSwcDXUWRlc1j6kxrESa4gRHR5Rba7TnHjS5luCuisxaKc443KaSxwHGOig2bQGI3Url4GpVpHT4JqizQOqm1/vOWERuBhyhL8rNBaKPG311r1xwF6IAESWvjA/zvHtyCx2Z9oWjU16uGeFxVLlzmX7PMlspTGODzAncwbklHi9YAZya2bA1ph7LeDYKUNd+faVHh+6NoMbHpUWQzjIvxU8LDx/HAY9vg4vgFS41rECnQaLv15tmkNpM7pQLuE57b8bysHMwnCUf7J8+0fxnR34YVwoN7JHWxIWJHxLqlZVSPosXEhrKLxJYvzAvyUWB2xddvpAXa1UpQ4I3W5KGetBkCEFVjoU2LRn2oomhPAKmlz17g/D6U5hjfjUDhpFRoK5brf6GtocU456YKIn24uqLzl+puL61Ei4kNvqb05atadZV0sJHmMGSM7vhhMfUDQIsdHkuIpgBB0QIQTIAzFsmO7SGYgGDBtRvcbVZcT70nCB/qeUu0W8ViqSCQ+fUPFX51krj3g+FRyQNH2rRPW05sBNTX8YYRlvqAnB/4wJCAaRX0wuv+vKNC/YcHShNgrXbNhzwz0vah8RsN0ZiKLaHLR1CrrWblqWc5GTffaedtAhE/BiJzioewyxl9+7ipAzrBtBKtIjYeprruY927yrAwvwQqNYbb2q6pg28CiZ4YByZpNGGzQho2vhkSra1N+ZIABHl27OKLLigaNdYJbS2B8YIetKBiX/Gct+W9HyL36MJlunysDf7F1hEbvXhMcuKNY1qcX4JoEm2O9Onz9g8u3SboHBudMZ+dvcb1SBR6R+hmy1qBTce0T0DOF+ZhhAeNDpa21rkb7yXO2/KgiQH7iQWWlCEaWv3lHnoHbbMoWkVseGhDVRU7pMWZYnQDcXddMpetg4ghfe6iCg+m9xAUzYAE/rb4e+t0jlAxkRu60OCymb9EVq5lc0IEjME46UtX7JfB0TtCAJBbNQmc64CzhGHNbUXriA0gjQXzHkWVYeQE6Q0YDOKFH4lN0q++poMkt6W0SXCQeCBOG/wY0oBvgdrCUmFRvicKrRODiROf7/DEPYBII4Zuo1zJuB4/hd5F7N21qj7S9maarSc2Ig1My+ExZaZF+ikduvBAEdze1jUSeg/Z0nIVXfyuyBuwSSHTB7l/WctdI7wEhsIETnsmEkZFRFtytloCPCc6fT5r7ab1+Cb0zTBnAc0bMKS7rWg9sRFhIIFQXO1oTpB0mDp8zBONBH4dDCyB7yow/jZoCqRtV23aoiddBRm0F/EbEPHlSfWm3ytR6BsgAogGjzARbQNmLlwn5V16yUuB6VzC74LTkQqgjLSe2AAiDTR6lOjPwE0YHjNRZ297oJE8TNyFBtsxICkg8O28PILngwY6t400HR4ROVBQ253mpGMXFXppILsDrDaQfARoHR+d+pZ5PT4LzzDZsEmnIhUAbSM2AqbmYOCtRPWfIyy797Gz1AtAhUZER/LIPpO0pdjYd0BbI00kMm1OsLTlZ1/iDr6evXfSCJFKghkCxjX5LKHn+3PQoFBlf20mNswEQK99icTW6Efi1j1ezAHAIaMbJ7FlhyoNQlPKnPBAWtI2gwhoO6ljJ/Q8joC8b1y46FbLLgAvgjeY73DnLg+qlliFwZPWJryp8/cKYIYCbSY2MCyCCNwyXNpLI7ItI9s98cnWgqm4zYI2Kg8JWb5Gd5OQSPiPCcx2tDdis90DB3bBQIcAJXSRN4KjrcEHGJ25QNXhsvWC1Ogd4YwmNm2Rl3eaEyS5pw4eKejeazOxAYi0cF6M0M0V6jdcpS/+6M1GAuqyHJGNTHwjMPlUKA9LX6B3ZLnOtpBA0Kbm7AVuzSReW8MF16krN7rkPK0CaSbNAaSW+e1PeR08GoXeS2TSDJ13WsB3UhBiQxcFrjvr0de8eL8F6R/oFgDV36MNhdsHJjDazwRCayPTGWkHQZqTgBZa0H5Mv0ecoEnDyyN0BNTDywPpPLF3VsqNFnfuxm3JC90ItSDEhg8FDYXLWITeCohAJb/51tPoHzQK5OXw4BDTuiQJaTxw4KYvXfakVrHNoAsKYxED0fSTNDW0uYJ2yaMiPbpckfCLZFyRbiIIzmW/YbqdVoHfSWGIDYsiDQX90Pglmn6Ez8LpH7lAgpcNFxGRTX13Ug8QEdYN5XGB1hZbvtp+E4G2ouEBRxM5h1J6PSgRCpLYk98c0rMLvPJh0plEW/HIhGlEIIZ1SRC6TGMr3ufRf4VGYYgtB05SxbAMoaZX2X+eV/FVG/TB9ejWBNDeGWVX0BpF57jR2jiv7fpN7w5ga0AWQvrHy0QYwjVhOgc8Pg8DWbhbRW79tkF7G89DGo9YH2+H5zj1xFYOZUGJDbV66K8vUu2F0A2BHDNoUEio9QwgUfp4GBOI1Arj2qQIvSM9Td6bpNHWAJpPbNlqcW2z/iZEatCAkfrDEXkPL1LsNU4WhwtErJLxgorOfVtH4i2goMSGWx4lG7CbxUapGqf/3Po1t2jvgI/I8xthrgvdcJCKca+3euyZdcCfe69UT1USPBsUZUvxtR/lanE9jDQTqWGOAcqTJKfAhF4aoGpOov25nWBVYYmNADOP22YL9n3gpq98+z3v87bo1kYtXCXa6qCtuMAaWwi6TSDK7amWkScwlb96zz7R2ho6vXDrrPulngareH8RkcbXkAkquGYW/m60qef255ZSsApObDDxMC2qvKQ3a0emHyZBkNeTPHBYt4rx8gBn65ncKsZM4g9sWpvv0rErmwl8mwojN9Q7Rt6cq1sTmdbut3TowrNnC9FTrKWAiY7aU07ElWoxkUBbS337XW7VdlBwYsNBQL5Y7J33uB7O9MNECELwZDLDeelllJTfD9JALuWKtiWapLQm7r0Pc91LM6o50LtDOorY8ilaE5en0aH1dE/lUHv5mgqPmiCa1CBoBMptmiyi8MRGwEdFbgqnOEj1JWFdT5dwOQ6mhHtqktKzkAiLImied2lan8+CnDZEcm35QFoDnhG6fZcOTknbV7Qe+LTgQ7V9aP8BWAFk9kbfWii70gXET/sK7cRsB++sEJs+uDWc7Y8UC+OPlCDYjEgB2bCpIF07W4pseUhFFy0nk7RE3EHFe+FKBHRGEWKOoi40CjPUsF6/BU1GUcidDVUw0XgGtPomCymx8XOxtaAPhayk6PR5HPyxDTvElgPMBu5oavqRggTmAwbHsiPTy0MM0wp9xBCWl5Yik7td2QHupTb7BKTPnFehPkPM6/VT6FLiWtszF3QSrodAilXy6Aluhy81GMVC+wmNTcEJD2rtm+lWiQ23PVRzTkqVZjo8KkhMJXLh6VYem14Nidw0boGaLcya5KGjugxIAKBZSzS1kGgaX7lek5qXFyMSlS9c0hej5MRvEs5EQKsmj3L6rBIbNKDM1esqPGys+BcPUwJDoBFM8JTckJdVHmYzRtrMBERtEQTyvcQKJVTV1doMlabZ0oWNWbaZX37PLdYjEDlgr0Zen8WF5KIVB9LWUFYGv7tXQRW7xEZg+//zHTrvSLKqDCHyjUybrTJ/3mHC8Qq46ZNHTqhQr8GyNii9j4dTuf0EfQusgcv1TOv0S2g/Y18n936j04a8Ai7DUAX7q3g6mmltggTvCJUiDTBBPdJorRMbfgiiROHRE/TNYvjhoqRTNxXDzM0qDwec0DuC2Q5nvSiNBH6R7v9TNWfO5xbqDzg/69vj8srRaK9EpszSF6GHQGIrTF+pDSceF1SyZH72ttLHPrEReGMehUYyyPjDRQlpTFy4vHmrDkl70VIcaGhQycPHOHnRuC6/hIi2es/+goxEay24Bpln2Mo6yPD3YV97WVfLred372NHvDiz/HFp1Gj3HfBWoyV4Qmw4tDzPEOkf0uYZmgTBhJ6DuF0xOnN4BbQUj85eRORqWJOPEoNjHE06fQK0WXRZ5TI0w/r8EG6D9epknbPmUWdmkEMKLov+w1mbNq1LlHQuYb9o3e2/PDNBG+ENseWAUC9/FMmOzkYhs5lb+JAKzb4BDwDHKjqPcBBBkD8yMnmGJ7lHRtClWF8R5dQTSYcZ1Q+JXfuUZ0056T2gxXd4zKRgnB/SJtFRmxuX+tCV2VNig8qe+GKPLpAPwsehNXIwAZUJHgGNMBGdleSPxGVUe+VaboXegqtYfrwiLs0Dtb7cAcULbY1IDX41zBVBtYxpPdIE/j/0PvSr/ZWnxIZNALUUIWqxBeCPCQ9yXb9RdyLwQJ1GZ1g8T9JBhraU3H8wt0JvwU06d++TlQpDJnFsyUqduuDFnqC9V7V5q55XGwQTlLQ1DhhAIfAwu+BReEtsBDB4zcmzOsIlPLeN5V90sMkkTR0/7clHQqAF3WF5EwvRauEARm8xP4DWUmgfLeki5HFxlrtTNAI5lVyd0neotnQM65Em6BSNOmMOOHnsW2uE58QG4GPhoHBkx/BixEnnEu52wYmqtk0PpH5UV6vwyPFyNjJdQNE35/mySblN0etkggk61FwT6kUjTnrf+P3RN+YY1yFOcBF36sotybnBpo/whdg4SnqvlHOAguJrAwl7NXgZWpso4qffD5+SlxOWGoHWSeFRRPKCtPuqTZ/r5gC2QRYC2rTz4G3DOsQJXT7hkeN49gnOuJ/wh9jocHAEsDHb3vSSpAn6tw0YwWUs1rU29Kw/fkpUQirK4rgg3qPUhkbALOdW8xJytnAJk/Ze8/0Z+24JREH/uKMi46fJz1eD5JK5kYvpZYpUU/CH2HJonAHAbYylO0WxqTs8p+IffWpfayPywOg01lRMa/FBUGjN06s8TtTluZjoxiwh/YUIBt1FMjdu5VZnCXzx16nEp9u1r9W0FmGCKCiXTYHUfNbWAF+JjX0IpAUgT0pS8uWTBEOh0z9dzf0AS2h4wKSPWkDTGvyQUO/BTDJeD1NOHjrG2rKEpGX0zcNkf7R2twq62ODPDQ0cFQxtjdaI98KlZQJIDfCX2AgcBfzpmp46FICPiLSD+LqPPTFHK99+V2uKhnV4LaEXXlbJA0e8LY2hd1y9a6+Yd4CqGXwT291OGufQSp9m1ijQYjlK7FNqhwm+ExsYHloAcpXEFTmbhExm5OFly0J2byfSZtF/TEpCZnn3Ptw3zsvebNgXiU+2Gdfjh6CTRgKBA8vlZdxZ+a1FsnL3TEJnAW6kxNYvOf9SEvwnNgAmaSSqYsvXaH+b6SUKEu6WeuESaVV2bygQiZTIKLQH+EO9dAwj7QXRYdN6/BA0lGSt1Sa501lAJJg7BUvO8yRNkoceEwGDiKWYoI2QQWw5wCmL0WXSAwlow1y1aQub0TaROnKcTUDTGrwWrsBAMbwXaQ451JMWEFu62rgePwTkjmaJVr87IuLffS/fBEUgZdBoXV3gcUApH4giNiTu1l6/xZ01JGdZw9fCg04sF/fqCg0ZrZ64WeCSlbq0zCNAi69cuMy4Hj8EF1rmxs8csbQFLp9CO33D8yVJqN9wVXPqnCY10jKlQRSx4QXxpO+dX2lNRarm1pFuqwEjrfub0ucviRlegtpVtJ3ysn0Rd4mds9i4Hj8EqRdoUmDTSZ4NhVV0tpzf/A8hTbK85H/s+/SzlVVzkEVsAIIJRBiVb68QXXKFTc4f1uJthbQSTk41PN9reTiOz0tigxN9hpyUF3xz20nK2bv3uc+b6fm+C4IFz3Qn4n1bZUvLcyuWCXnElgM3XZz3Dr1Mmb4GmCUYwmLTaVp79YYeOm14vteCCB2aBnpRUtYIHB60jTKtxw9BZj3PDbX4zdH9hocfGZ7vuzxdoptrojefsGDB4xBLbPBj1GLCFWYlkOlnfNE+ChMbka/ND8xdHaRobPArvjmvfRObBxobTN3wkDHG5/sqnbrypKnaK9c9T9JuDcQSG9CQTLKDkucmdhbUYO9fz6rQ8/3sm6KYGSnFxwZimzHfW1MUxCaoswX72CxPMIMpWjFuivH5vglZTWE6g2iV72cropZANLEBGOSR2LNfD4KRUpnQkW6vwaOtdwdFsbWUpGVffGxlIVFlZRwVvX7LalSUgweCAibwq+F3J77YzYG9oEA8seF2eID+bR9s5hvT+PI9Fj7ktPlsp3skvznEfh3TGrwWREUrFyzzltjCwqKiXXupmtPnOC3JFjD2EXvd9Hw/BMGC+IbNuowsAJpaI+QTG0AvFDcZstC5ZbbPaSAY5FG9Zx+3XrKJxPadnD9mWoPX8nDorYd5bGgEULn4XeN6/BAkKaNFOlwktgBtEJo653H6nKSLrATkLnL5oMAk3CchGMQG1Ot5CdF5S/wlN9psmEieufkLqRQWC+EbGlT8/Y/EDHXBJkfxv5eVB9AOMbzatB4/BPuO21bZ1FrpEs/89gd3keGuJoZ1eCG4yJBqI7WyoDkEh9iAbJajUtEps9gc9OVGo5sUWgR8f9ZUc/q7MHeiC5aa1+CDsJ9l6xfWk5IfBQ9KJiIxrccP4ZQXMsdhItsE102/+76+wA3rsCo4Ux276jZEN37OrSh4CBaxgUjqsqruj9s8QNePIuFQv6Gq5uQZe6QGkLaG5FR0ETGtwQ8JvdBfJb8+7G3bIvrWcFqb1uOLdC7xZN4BXBy112+q0IsDvL+80d571ATdczCAmlojgkVsABFK46zJh22Tvfj4eAaZhVUfkyliu0ULmbiIvoWHvWpeiw+CfnlIvbFd+P83NDxQyYNHtDnuh3b+uKDwu/dg/jZWQRcba6uYe0GasnEtFgSBgvDQMSp9/gdPNXMbCB6x5YCIJG4VnuaE0Wy2N/7TJXpWIvKYPGgymTp0TExnDwi6udbeJNPE41scZMrRcAl1w9hjpNHUfO/BKEYit7rbd1RkykwdSDCtp4BShklsQ19VqROn1QNcXsEJgBoRWGIDeObipcu67MimoxW5PEQyHOqHb80yoBWhN135s3KmE/H4QZSQ2Sb1x8D1svi+grorc1+6hAfRYSK31GFccP3tXty0vzG3FJfpA4+/ry0EmthYZU+jtThpbhh80sHOrY4kWbSo5rw1eqZV4DfFq3S1hZTDTBsfZj8nptr0LRqAqBz36PMxQvi44F1Yn3uQA9Jrqr/aT5ecpUyAjl3ZzQBNjc3PgGtqjQg2sQGIIGK6PJkH0Cr44xdw8Ady1uIffsKRKi8ONWuh53/QvhUJfiUSRANjy1Z5TmoAty5CMwRBJXWYdJ767mRuhZZBGhT2XnzDxoKb5BhOg75qyUNHdQqLD9/XFoJPbDngtmGzdOAo+mAF8LnRTQZyQS4ZkoO9AgIT8dUbdDqLaV0+SHmPviqx66vcCr0FNJbEZ9tV2TNy+v+jbjb+7lrtb/SCDLJZndO3bDVftAUhN7ooYBWgS3NDbaaoSA0oGmIDeOLVj1d0cmNbOoIQKaJ8Jv7RZ3aTMQ3I/Pq71jw9cBjnK6GXh6vay9dyK/QWOHTpiz8R0cuahQHzGAXrXvockRyNvD4MlWnTxU0WDXxq0NQe2A6C+ISiIjb2TxG5YVo7N+trTZ4b3YZoFZT8+qAuH7JZXfAYsPbU0ROF0TgLKGgdlC0ty63SY9A3hSkWevFlUQEE5JglD5IJhwiiVyASRZlZYvdeVY6AQisuP0Q/QwNGsHXDg3mKTFNrRHERWw6cCnL+kopMmq5TQfJR3enfgS8JKR2pY997rqkB2ftlKjpzoXl9fgkRLMYAejmd6nGgq0Rk+jz+PsY1+iBYCxKouT+d7YDSoyByw4Wb/PY7FSatsSW1xHBvID2KAwVFTGpAURIbwJrbn3c4U5xV9yeRW+du7JiNzlyg6v7402r3hiZR38DdPFgzMa3RDyFSgz8p9e1xXp9fwEWV2LGLZ5sa1+mHwF3x3Euq5sx5HS33GkSmsEyisxaw24Stk6a0fDI9+dImIkxfvu4tEfuEoiU2BteWkhaE4bNNOeNpM6BjKQ4O32J+HGCY0JVxFXlzrrWUlVYJmX7wV6JFua+oq9O+04GjzOv0S8isA7Fk793PLdRj5Mx0BHa403JTrhe61OFOyOA7+nhBeYniJjao2tl67tEeX/2BTqFo1Nw6dWUtDePd0IKc/Wk+qebIxUPpEDeVLGCqSpvlaTq4c9/xNCpsBB1gzBhFYXZebgWvhNaCPZQis5Aji34AEdNEQmWu3+SmCUgkf6i50V5CV5bKxSvYevHFEvEJxU1sjUAuEGluVR9+wq22kYcUmTxDVe/ex50abPdVeyLqSKsk4oWZICmlgc3Q/76gHeQS6gaJ3OLrN7XIp+SJ0HuKvjHXemH8E4H7GHu8PKSS+w6oyJRZnBaCyCe6hPDaAlzQ3hq0D2IDSBtDg0BEO6u/+lrXfArwNcD5jBIdSY5xFsxOpYPB2pqA9wRwnmK/4eb1+iic77h+oy+VGY8Da0AEG66V5DffqnoklrdDtB9iA2jT8ebD7eVh/lGToDXUnD6fm+cgyMQi4e6pZL5L6vKAVIfY0lXG9foqZJIiMTz9w0/+av8AiJUuIl4H9rmQS8lrtC9iEwbu3oApTKiDbCqi5ZPAUa8PqhwTBmtBqgIP0pbkayNBcAqdOGAOWu/84dAsHLH5AeQiVcZUbMX7OlRvOCi+SqduetSe1zlaeQAuhIrXXtc92kxr90vgk3ymB5uk3GHXZ5O0vcMRm9eAr686yX4+7pBqOiQ+C/LFqnfvzS1YFpA4jRbl4oIIECI3TBXDtw3CUOFihiM2jwGfVc3ZCzos35qSLw+ES6ju+1RC1RyQvkPmXqj/cJnvD112B4zkSVNOa/MPjtg8BOYF1Jw6q8LDx4mqe3woyMvq0lPnZfmRTZ8P4BuvrVWJz3eImbn6uHCLbfrG6TMX+Js7eA9HbF6gQRfnIxG4govzBZIaCfpzIb/P15ysfFBfrxtQvjZVXDS5UeBvC4+eoDI3bnG/QAdv4YjNNuBTQ5ffy9dUeNhYsaTG/qEuvbi4WlKKR1NAC+vEpi3+jKjLV+idhl+ZqNLnLspIL2pHcMRmGeihlb5wSYX7DxfXjuhRQb+zyJtzdGlZEHKf6MKAZhmZMM34e6QIvjmmjaVPnVMPvGpM6eCIzRpw8MIVPBczNGCUNpmEkhprFkPGEAH/GKgcLAzWQUt47ior0WeZE5ilSOCt3vmVylZEXJ6bB3DEVmjAn5ZOc+QuvuYDFXre8oShAgjMudiqDdoXFDCNIhuOcCMDNkklNRB4XIh4y7v2VPF1H6tsWbkuSHfamzU4YiswECTAMBY4ttn0NG1yYQJzDr29Agky7zK//aFC/YeJq0YwSucSTqdJX4R27PxutuCIrVAg86Luzl88/AXTwpnUpB80aBHd/6fS536Qm97RHEjrQcug5NeHxSY8/01Ie0f5VajPUD397O599cCvlkdFDEdsBQAKjjNXr6vo7MU80SkQmgMdMOSsxd//kIvLA20WsT8zwgXy0oa+NCm4VLr1VtE5b2vtrZ0Wq9uCI7YCANpO5tavKjpvCU/t5hZEwskNDu2KcVN4bmexOLPRbDE89FUdSJDs18TeeLqE64QjU99yxGYBjtgKAWg7KGxHZcG5i0xwXNwumNzCSB69hlbRxePngUmHUX3So6SYlRCZNEMlMdOzMuZy3CzAEVshAX8PaW/ZspCqOXOBzIzFejgL2hIZNrgvQpoMWpDzeMFUkZX74P1jwDIGv4DcJGltHREVJQ1t8gyVOnRMZf+6p9+/IzUrcMRmA9DgyLxDWD954LCKzlrIhdE8LctPTQKHq1sfldi8VdVHKnOLLTJkSXOOxfTU9BL/p1rBLYGLBISW2L7z/wjNwSocsdkG8tpIi0BZTXTRCtbgUCTtuR+IzGKUTOHAs/lT5EB3kkp63/Blea650bdF3S1aK2G2LQb18MBpXHgOnsARmxcgckP3V8xcgF8LDSZDL6PEig6d6WBYEByy6FsLeVxbu8ifIhMPAZ3I1Nneasl0gYR6DeYIOYZ2o38cT4t3JqencMTmMbDJMWADRfHVX+5R0WmzVQi92Wy1B6e/ibyp6PylYgbYeAWOVt/8hR31VtNAMMqxW28VHjVBxTdsZu0cflZuNuminb7AEZuPQBQVCZrJ/QdV9M25XE/I0dRO3QpDcqQ9cHE7aS2Zn39tl1oDV4L8eEVXghSyEwjI7NmXOBkblRuJLTtU5pffuemB0878hyM2CUA0L9faCNnoaG9U9u/ntRbXWl8cNDU6yNE357HDur0fttor13nYCnfdbeX75PQd/PdPd+fJ67Hlq1XNyTN6xJ3zn4mCIzYpoIOBCgbMQ4AfDPWmyKRHwilrGi3MiYPmF533jm7x7drlcNkV6mEjpBmXInjTwoJ57tDRd6iKvrVIpY4c5yYH0M7Y3HQamjg4YpOInAYHTSBz/RZP944tIZIbNZ79cThkTRIdaXiYdB/fsCmnqTXQ38v93XYOdNRA593Y8jWq/Pl+T74sOpeo8pLeKjz4Fb4gEtt3cV897syBdA3nOxMNR2xBAFJGYnFV98dtTu6Mzl+iwoNGE4EN4HpPTh/p2EVrFb0H8zwAZx41AdKu0CcvvuZDXTQPfyYIrnM3jhyjzRTMzMjkmdpvduMW19L6PgjZoUVwxBZQoGFhzZnzKv7Rp5z8iUz7irFTeFgMm54OTwRMfuSXYTA0osbocgtNDq3R6+7d191uHQILR2xBBWkeMK2Q/AufXPZeqcqGwpzi4DS1PEAmOmY7ZO/e435u/O5IK2YzE00B3DsMNByxFQtwEN1hbDka35t7d0UFR2wODg5FB0dsDg4ORQdHbA4ODkUHR2wODg5FB0dsDg4ORQdHbA4ODkUGpf5/c43aTcwR77MAAAAASUVORK5CYII=;" vertex="1" parent="3yO276qXORORyjHlByuQ-1">
          <mxGeometry x="375" y="867.5" width="35" height="35" as="geometry" />
        </mxCell>
        <mxCell id="MklKlplRyfi0s2rjbk7p-22" value="" style="shape=image;verticalLabelPosition=bottom;labelBackgroundColor=default;verticalAlign=top;aspect=fixed;imageAspect=0;image=data:image/png,iVBORw0KGgoAAAANSUhEUgAAATYAAAE2CAYAAADrvL6pAAAAAXNSR0IArs4c6QAAAARnQU1BAACxjwv8YQUAAAAJcEhZcwAADsMAAA7DAcdvqGQAAFyjSURBVHhe7b2He1TV9j7++8u+V4reexUIWGgXpFcRpApKkQ5KU4oUC2ChKUVAKQKCdBClYweBJDOZyUwmM5lMJmH/1rv2hA/iDpkks89ZZ7Lf51nPcx+v5uw5Z+93r77+P+Xg4OBQZHDE5uDgUHRwxObg4FB0cMTm4OBQdHDE5uDgUHRwxObg4FB0cMTm4OBQdHDE5uDgUHRwxObg4FB0cMTm4OBQdHDE5uDgUHRwxObg4FB0cMTmUFg8eKBUQ4NS9fVKZUnq6tSDnOB/q2xW/3/4d/DvQhwcCgxHbA7/BEiHCKihNqMaampUQ3VSNVQlVEMsruqjlao+ElXZcERlQ2GVLQ+pbGm5yt4vU9l7pSrz+22V+fV3lbnxs8pcu6nSly6r9MUftfzwk8pcvU7/3y397/z+p8revU//bSn9Dfrvy+hv4W/ib9Mz8Cw8syFepRoS1aohlVIN6bR6kCGCBDk6UnRoAo7YHP4OIrWGRIIJp/bKdZX67qRKfLlHxddvVLElK1V09mIVfX2Wqnh1sgoNHq1CPQep8ud6qtKOXVXpU8/l5Nm/y79y8vg/b/z3O3RRZf99QYVeHKDCA0ep8CsTVWTyTBWdtVBVvv2uir//oUps/UIlvz6sak6fU5mbvxABVjDxOjiY4IitvYG0HGg9DZUxTV7Xb6rUwSNMXNHpc1V42FgVGjBShfoNU6Feg1TohZdVeUkfVd6lpyp/9kVV9p/nVdkzPVTZ0yWqtFM3JiUmp//337YJiA9/C3+zc4l+Bp713xeJOF9S5d16q/Ie/Zj8Qr2HqFD/4So8ZIyKTJmp4qvWq+Teb1T6pysq8+cd1vqgZbLZ69Au4YitWAHNC6YkmXEwFzM3f1Y1359RiZ1fqfiGTSq6cJmKTJimQi+P0ORFxFUKsgLBmIhHomCtRIQg3BBIr88QFR41XkVnzFex99apxJYvVOrwMZX+8QqTeEM0RuZsDZmx8O/l3pNDUcIRWzEAvib4xKCJVVezXwp+r/SFS6pq81YVfTOniRGBsckYJPJqi3TswmYyyDsyfpqKrdqgkkR0dbf/0v47+O1qiOgQ1IBf0aFo4Igt6CBSe0CkhsOaOva9iq/5UIXHTmHz8aG5CDJjk7GdENqjwr49MpWJ5Phd0Dspf+5FFR75mootX62S+w+wNguScygeOGILGmBikjmFKCKijIlNW1Rk2mwVHj6OfWIPTcpC+L2KVUB2nYngnn2JtNj+KjxoNJnlb7L5mjpxSmX/usdRYI68OgQSjtikg4jsQSajGirjKvPHbVVz+rxKkHkZef0tFeo7VJV37aW1sfZiXtoSRGb/84IK9RyoKsa9ruLrNnJEGNpctiKiTVZnrgYGjtgkAj6zujo6TGn2lyHtIr5+Ex24qRwZNB5MJ4UVuigQkQ0PH6tiS1eq1HHS5CJR1pZx0XAAwkEsHLFJA0zNRLVK/3hZxT/8RIVHjtdpFv/uoX1EzsT0TqAFd+yqyp7pziknCELAXK05dU5ly8P6AnIQCUdsEpAjs8xvf3I6RnTmAhUePJpzt+ALMh46J95KjuSY4PoOU5HXZ6mqjz9T6Z+ucoSVqyEcxMARm18AmSVTOghw+ZpKfLqdM+4RzXRaWQAEPjkyVUMDR6nYijUqfea8yt65q6OrSB9x8BWO2LwETBcOBtSphnicc6qQTFre/X+OzIIspM0hXw6R1cT2nRxV1X44V8/qFxyxeQhsdpT8JL7crcIjXmNTE6VDpR0cqQVecDFxjhyZqgNGcola5vot1soduXkPR2y2gehmLM45Z9jsyIBH+U+7qgBob9KpK6fhILcwtmy1qvn+NBftOw3OOzhiswFsXpQ4EaFlfv6VCS3Uf5iObDoya1/SuRt3QKlctELVXr2uc+LSaUdwluGIrdCgDQsfWt2dv1R87UfchcKRmROYqjBTKxcuV+kLP+ooqiM3a3DEVijQJsVNjJSN+NqPubUONjLnnpk2upP2J0RujX3norMWqNor1xR63zmCKzwcsbUVSNuoTqrMrV+41Cn8yiRd5uS0NCdNCQju3z1UePArKr76A+4uDLeFq2YoHByxtRYN0NBqucwmdeS4Co+ZRJv1eUdoTlokZU93567ByGNENYPuF+eK79sKR2ytBEit5sx5FZ0xj4unXR6ak1YL2kl1LlHhURNUcv9B7m7s0DY4YmshkJeEISXReUtUqM9Qbl/tSM1Jm4U0fWhvoRdf5nItXJpcxdDgzNPWwBFbPkBgoDbDGeXVu/aq8OgJmtCc2enEgiBpOzRgBNeiwnfLSb4OLYIjtuZQX08bK8mTkaIzF7rAgBPvhMzTitemcsskHk5Tl3UR1DzhiK0ZoEi96pNtKvTSAE62dGanE88EFyg6ipT05tGHmV9+0zWoDs3CEZsJSOGoSvAMgcjkGbq5I0qgTJvPiRPb0qELtzHHBC64QrLhCqe5NQNHbI+C9kqjLy3xxW4ug+L5AabN5sSJ10IEB8shtmq9yvz8m/a9ueCCEY7YGgEtrbaW1f3onMU6hcO0uZw48VkwfaxizCSVPnXOkVsTcMQGIOpZGeNp4hi6i1bQzpfmRKzA94ZB0T368fBrzJB15PZ3tG9iI0J7UFfHEU84Z0O9B7vaTifBEfjeevTlZqUYjs2RUwdG+yU2pHHQRkBbbgQIUJxs3DxOnEgXVC2MGKdSx07w/AWnvbVXYoPpWZVQyYNHVKjfUMVTwk0bxomTAEnohZfJNN3Mbefbe71puyS27P0yHm3HswY6uU62TopEkPPWtZeKzlqop9nX1uZ2fPtD+yE2aGnpWu6BFV2wVJOaIzQnxSZoifSf51Vk8kxVc/IsWybtEe2D2NBiKJlUtVdvqPDI13Sdp2lTOHFSLEIEFxo4kpPMG6qr251p2i6IDWUo6JnGbbo7OH+ak3YiZJHA75bY9mW7i5gWN7HVYyhxkj7sTm7VzbWezvxsneBC+HcPHhmI7PdQv2EqNGiUCg97VUUmTFPRtxaq2NJVKr56g4qv+1jFP/qUa2wTW75Q1V/uIfmK/vcOlaB/Fv/oE/3vrPmA/5voW4tUZOJ0+ltjVZj+Jv/tlwbqSfgYgOPGE7ZeMDGr+/9U7L11XPfcXkqxipbYoKVly0Pc+gWHxNV6NiNEXEhMLu/Sk275/tw2p2LsFM6Rqly8ggkr8ek2ldx3gMfJpX+6whO4MP0cwZhsKMzdhJFugDbXDfEq9u+gpxi0BRb8b/wz/H/4dypj/N/wf4u/8ddd/pvpn66yfwhNFxOfbWcCrHz7XRWduUBVjHtdhQeMZE0EjnKey+qSqZ8sdJmXd+/Dl0jm9z+1WVrkBFecxFaXVdl79znp1jWCNAi0r84l/G4wcKa8pI8K9R2motPmkCa1kdNg0pevqsyft5l4GmrS/uZG5QI/9ZFKHjiN3MPkoWOcdR95cy6tfShrJSBllMKh5Ih/o9PO/yblz75ImvEb/A45YlrE5FaUxAZSiy5crkqf7u429+MCv0vPQWQ+vknEv0pV797LQRXWoGozeixcNqtvdZAZNr+EA9C4DqwJa8MaMYyaDij3y/vlN5X85pCKrXhfRSZNp99IWjpSeUzvoL0KfXto5eFXJnK1Db/DIkVRERsOZh3dRpE35riGkBBoqmg3TWZbeOR4FVu+hjSdoypz/aY2IaGNVVfrHl9BzlYH4YHkkik2hZHDlbl+S6WOnlDx9z9U4TETeeQdD9sxvaf2JLwnSpjcUIZVrP3diobYYC41duaAyt0uSQ2/GUma8JP1G8ZmR2zlOpU8fIznneLQ80aWoIF5APxWnsb/x22VPHKc/YTI7woNGKkDE+25JRVdeJHxU3WNKSbTF1kZVnEQW11Wt+4mTY0n/pg+ZLFKjswaHf+YVRkjLaXm9Dl2yBfbhm0TyPTKVkT4MCMyC60FPkYOQCC41N4uw87deL/wXNOamqK68IJPbPUNKnPjZxWZMqt93sAwK4aMYTOTb1/4ylI1WjNr5/WC/0DORwc/IjR8RGUR3Y29u1aFh77KQ4yN77hYBUSOAnrSYNPnLnKAplgQaGKDCo30gMikGdr8NH28YpPcDMpQr0Gc/5Xc+zWPA8xWRLVJ0U7MzIKASS7Dvkb45JIHDnNqC9pXtZvqFJBbp666O8jxk0XjqggssT3sdjt9fvu4aZFo2bWXCg0cpaLz3lE1p85ynl6xh+29RCPJ1Zy9oCoXrWAzjX1x6NFX7GYq/UYOKFy6rDW3gO+pYBIb3bTIxYnOebu4fWo4TLmcM7RXiq/9iJNX0RzTkZldsDVw61euoEDNZSm6Khd7bhx8bsPGqtobtzjDIMgIHrHV16vs3ftshhW7uYDml9ho1Tt2cftnZO4Xi6kgHnjHSCGpTrJmjLIwaDQcaChWcqPfhWn0mIZVe/U6B+WCikARG5y+iPRFFy7TJkIxbrCOXThSF351skp8voP9Z9x6xgUC/AO9e3wDTGVPbN/JQ4xRrVGUFS04U0gFeX2Wyly9wdZREBEcYoOmRjdn7L21WlMrNlKjQ8KENnCUir//kaq7/ZdqSKVyP95BBEiLYz/cnbsqsWkL+zuRYlOMFQ5IZga5Idk5iJpbYIgNJgE6Q3CgoBhJrWsvFVup50U6UzMAoMOOyweVDYhQF6P1gEyD6Nx3VEM0Frg9KZ/Ycrdk9Y7d3HWiqIIFIDQyaaIz56vaa7pek31oDvLBPrgsdyrJ3LilovOWaPO0mOZndNAT6FG9wtPnAwTZxEabB8mm3CRywEidHW76AEETbJjnenL+XfWefVy07yKdwQUiiNmykEp+fZDNN/b/FksPObp8Qy/mmlXSxRsUiCY2DrnTbcidbzsXQVUBmSsofUJRemz5+7n2MU5DKxrU12vzdO1H/I0RYSyWAANaQ6UOHtH7NQABBdHEhmxwjPIvGk2tUzeeYVpz6pxL2yhWwMqoqVHp8z+oyJSZOj3EtBeCJtDcSMFI/3BZJ4ULh1hig2qP8hZuNRN0xywRGvqDoTU2Imowrx2pFTFIo0EtavZeqUps36UtjiK4nEHSFa9O5t+FHD/JkEdsyBlKVHPGd3mPfsYXHBghQi7v0oubOqIPGvsoXD5auwK+eeq7k9r39txLunrBtFeCIFAwOndjhYPTQARfzrKIDWp8KqWDBeiAGlRNDetGgIBIDV1qM7/+4TS09oy6rMrevadiy1bpyxq1p6Z9EwT5l04Dqdr0OXculgpRxIbIIFoQoUlioJMeYXr2HcrDSJyW5sCXGiyRVA3tiQMqPHxccC9tCK2d9/ehY6SSyryw5RAbfXwkp8JsY1IL6IeHuYFRcty8j0zqoiY1+ma4jOAsb0gk9NSpioieOlVWzuPesvdL2SfzUPDP8P/Rv1NP/y7+G/5vMTAGPfiLXLPFnkj/8BM3RWX/cUCjplxTiiaVl6/pdlnCIIPYaDNjg6N1Mwq/TS9SvHR4TpU/35/9D5nfyPQEoQX9kMIJjmEpGJ0H0iot5/FtqF9NX/xJ1Zw8o5JfH+b6yfgHm1RsxVo9Jm/2YhWdPk9Fps3mVtx/k6mz+f/Dv1P59goVf28t/beb+W9gGAv+Jg4+noFncfE/yA9rCEiqQXNAWyAEkfCukBYSVOsEpY2YJ4vLS2VlXeD+ExsOP93UyW++VaE+Q4wvULygcL2kj456kiYSSMCkIDLm7rIgMzKb0JsM4f3qPftVjC4dzPVEcT6ifDoJ1UIbHzLj8bfhjgi/OomfGV/9Aa8BvcKyYdLyoCESOeiJWgG9QHBpxKu40QEGUOt3aXgfkgXfnkgZ+54bNQiC78SGfC5oOKGXhwfz5qINicL11JHvgmt64pDFYtyNOHXshJ7XSdpVOR04BEDgLMbtzAmncHyjbMiWCYXDgr+Ng07PwjNhsmENKDgvJw2nYtwUFVvzgUp9e5Q7boAg0CI+cMB7J000dfyUCg8aHcyUEPjbXhzAAT9J2rS/xEYvAvlq0flL6OAEzATFAezcjSeT13x/hjYokZqgD/tEkIbMNY5/3iFy+I4z5THxPTzyNdYeeHQhGitKrMsF6XUuYZLDWrFmrD2+7mP+LVzNgYCN8Dyrh4AbhrSd9JkL3A6p7L/Ba3FfRt8DF+HDKfMC4Cux4YNWf/V18JyotFYQMTYiO0/h+JYMHB4y3dhPdueuSv94RVVt/EyFR0/QPh6QWKFNSo8FyaP4Lejdz52Gf/hJJ0PDPxcE3xwyAq7fYr8k57sZfqNk4e40K97Pac/+k5t/xEaHDY5izso2vCixQgQAsyzy5lxVhyRFqdO04XfK+c3gL8NBj5P5Fh41obi7wOYE7a1A3PjNaKcOk48PnHCCQ85jdOFybe4H7BuB3FKHj/Hgar/hD7HBBC0nE/StRWzOmV6SVIGpgFkLD8tKhDqusblgllXv3sdlMKHn+7Gfit93kLTj1gqbrN20b677/1TF2CmqeudeHp4seQAON7K8e1/F3nlPfy/Tb5MqnbqRxvwaD1ny+wLxnthyZlFi205tBplekERBOgeZCNhwD9M5hAFRQkx7T1+8pOLrN/JhBqHBB1LsGlpzgiBEqEc/ficwVWtOn+ecuwfoDiuM5JjcyBqIrVijKxWC8u2wTtpr8TUf8rv1E54TG/wdmV9+V6Geg4ITBeLyqJ4qumCpnq4uidRwUSA9ozLGEUIM/w31HsKmmPG3tHfB4evUlbveIuew9tpNvgx45JykLHpaS7Y8zN+Tgzmm3yJUUA6ZOnSUS8n8ujQ8JzZknUfnLw1UOxeYBNEFy7RjVJiPBrc78rsqMeCmex99cNu5dpaXIGeMzFVo4ZghikoRbiUlDHDZYAYGp7+YfodEeepZFZn4hq9KgKfExgXu337H2k9Q/DyohOBuBqWyNDWUIdVeuc4tqUO9BuuKjSBtfimCCPd/X+R3GJ21kIMsHGiQcoHV1Wlye480twBFS5FkjXxIbtHlAzwlNhS4w5EdiAxrbHjSKqNz35bjU6M14NDhPcY//ESFh47RhOY0tLYLaRmIdoeHvMLvtvbqDb48RPjfQG737pNWvlxXfJjWL006krnfc5C+KHxIh/KG2DhgkFbxd9fqg2h6EZKEiAJ5asgp4r5Tfqd05PxocMgmDxzmpFTO/TOt3UnbpXMJv+Pkvm9yeXDwv/mvwTWSW2AmtT1dwlowZxB4fEF4Q2x046DmELdhED5IGSoKxk7hsDundPgNItb0uYucO1eKTQ2T02lp9gTvlt4xTFQ0iExfuMT1qb6DyBVlb9Gps2l9AXDl0HuE+YzcNq9nk9onNmgbVQkVnbOYN4rxBUgS2tAwl9FdgjU1H00RDvvfL1XxdRtVeMBIXXbmCM07ybkjQi+PUPENG0Vo7zzgiMgNzQgCEfmmd4g5H6gC8RLWiQ2JoqkTp3TIWnrAgG5BLmj/7qS/ZVJ0M6PesebMBU5iZqexCwz4J9A8Snrz/Nf02Qu+Nw8FuWEgEPtYydwzrlmQ4N1Vffypp4nRdomNfgQKY1Egy10hDD9ajBBxoPVQ6ugJ3aXDD+Cjk0bA7WwwBIQ0BfGXQXsSOMT7DFGJL/dwNxRfNXq6/DAOL9R7sPw9QhcDSBiapleuHavEhqTH6t37taNbuAmFspvEp9t0Xym/HMV0UFCOEp37jk6JKaap4sUg2MO4AJH7tmCZnmXho2mKmQNo0MkavfTzRWvkInmPlAarxIa6PHTACMJLR9IwN4n0Y6PC9EylVM33p1Vk/DRdI+g0NblC3wYXD1pWsYZfVZX7kB6D9g2SYGPL1+igkuRzBm33pQFc6eHFkHA7xAb1nFTOqo8/k513g43QuZuKTJqhc9X8AHKUIlGdxoFmg6jrNK3ViTyhwwqfbHLfAV0b6Yemj/1D5IZZIcjDM65TinTqpmJLVqpsuCK3eHuwQ2zZeo4gIRdI9C1CZgVaUKfPXlS+dGDFjVsW4oRQHVyRrdk6MUvohf4q/v6HnPPmS1CByA2tmcLDxsrW9GltqNFNnz5He9+ub9IKsSESCn8VnPHGHyhBiHBhguK2ZbvfBydw9s5f/9eexpmewRX43ehiQifoh+2svATtXaQGVe/eS+beQPMapQhpuSjs58iyRRSe2LJ6OCxGc0k2q+AjiS1dpeqj3t+y3OHk+i3O7SvvFqzODU6aECI3VNVg+AyXYyG1wWPAHEZLJumNRBHtR8K5TRSc2JCqUPXZdtm+IlobHL+ZX3/3PFiADHb485C0GIjyMif5C8jk6RIVmTKTo9vcLcTLVkgNDby3sLclnz8e2zdjvs4VteSXLDixIWOfbX3BJR+w85PoF+U16COixVB4zCRnehazIKgwajw3K/C6FRJSrNBoFDNuRWtt8LXRWbAVIS0osWGRiS92y81bw5roJkt8sk33VvMSDx5o0idSKyuC4SlOniD0bXnmwvBxbBV4WsVClyfy26pojyM307g+AQK/8sPhLxZQUGJDz7LotNlyDy2RWmTi9NyYMO+ioDA/0ciQ6/uCNmbQSesEZ4A0NzRTSJ//gcugPEO9zkqIvDFHrkmKLsZ9hnCuqw13UOGIjTSS5NcHVehFoXMMELmiG4xngHo4RQdOZHy88OjcdCjT2pwUrxC5RcZP1XmSXrbKJs0NycOio6RPPUfW01Zd7VNgFIbY6GNBK+EqA/qQxh/hs3BJx9LV2izwanMReFbkpOnOp9aehbSmMNpgocOFh+17QBhIkhe790irRfZE5vrN3IoLh4IQG8ii5uRZfTtINEPpw4J0M795OKmabsy6O39xoz1nfrZzgc8NqSBkGjK5eRWJp+fA7YIoKaZ0Gdfms+C9JLZ+oR4UOPevMMRWGVOVi98Vm74Q6t5XVX+5W0eovNDW6FbmuamLVwRuwpATS0KXK4JGyJ3kvm4eWQ1oJY9yPQ4kSNTciPTRQBXnpZDvpO3ERpoJOs3yjNAOArtR0MfU7Ynv5xZsGfQ+MM6N62TRdcG0JiftVsqf68lTpzyrdkGUlMgNbe6l+ngxSAe+b6y1UGgzseEDJXbukUlqGHJc0ocHSvBgXA/AN+Q3hwI1icuJh/LUszx3Ez3dPMtxq6/X+ZNosmBak8+C1JjoWwsL6n9sM7Fl/ryjE04F+tZgGiNXJlsRtX874u9nsyp19LgKDRgh09foRIZ07sbNFzyL0NPeRCAhvvoDnWNqWpOfQgoAEnYROX6QKYyvrW3ERqpj8uBRmYmAHbuqUN9hKnPzF2vZzX9Dtp6TMdE+Rny3YNuC8YogdlSfoFkmIuUQaPXQYh3pc6S0YtxU2p8/F9xxbgSRW/rHq2K1Nlg4iW1fkgVYmNSPNhEbmiNCI5JocuFFoSDYkygo/BgYWDPvnfbhV2PSyhEWaR+IuMF/A20AdYB4B+U9+vItjILn0MDRJKNUqP8wjpzjIkTmOf5dmCH836J3P/0t/pvthfzod3IwAb3cPPC3YY+i4y5/O2HvF3sIaVE8Pb4Ar6L1xNbwgDWU8OgJxoX6LRVkHnNWsxcbJhbn2yYQA2vaKnQgQEqh/sM5jSA6520OlCQPHlHp85fYnEAjQbwTlnjVI5L7Z5Ux7lac+fk3HliT3HeIp4ajMwa+GzLS2dFd7O+SBHsmsWmLNxF7uoAx9SzEDU2FWRX0rZEWhb5yhUiHaT2xkSaEulCJZih8azhsXozXh5mLA82DV6BtGNYTWMGtTr8JXZBDA0byxKzE5q0q9e137IyGf/UhiSVT6gFa9ZBJntcBxb9DGxhF2wi44G8w2RExovwsdfAoN+CMvjmXSZSDMcX2fiGkPSFJFc1OvQgmcLDvs+0yO1vTfouv+4j2Qiy32tajdcRGmxK1b+jPLy7xj14O/Ai1127kFmsR9B6Q6gJNo6i635JZyGRGhAKfIZqGooIiGyISIyIqZFi+SWCPEVlmy8r5Fo9/sJk1xFCfoURypBnDjynMnGqtwCTHYOZsuQczN5BjSXuW+yUKvCjCw17V7cTaiNYRW12dyvz+hwqhNYphcb4KqbSJbTt1npBNQOOg94BhxtwB17SWIAlIAs5+MlHCr0xQVRs/1w0TQWT4rQKAbwpNMb7uY21OoUsKzNUiIDgk7/KUNNJcvQDMX4nJ4+Xd+6jk/gO5VbYerSI2Vmd37NLmgWFxvgk6BvQdqpNxLQcNYILWnL3AwzxE5vC1RIgcynv0U9Eps3i4NTSHhupq7yo18gWCNPTe4QRHpnry68OkxU3hpNfAfwNaf6j3EJU+c0Gb85aB0q6KVyeb1+KnkBaJgEpbL9RWERsGkESnzxOXyYxoHHJ1rPdaI9JEbhzawgS6DhT5VD0H8RzT5IEjbKJwex0vTM22AqZqdVLV3b6jknu/4eoSrn6hy834W6ULtE461NF5S9j8tg2Y+fBD8xkWpvGirrsONbVtaC3WcmKjTY+2x6EXB8i6JUnrQDQtffkatwqyCWgzOExMakE0g+jwQ9sOD3mF8xA5gdnDrhMFB6J9pMEldu3VgQak3AQ00IDOt6hK4O9hWVtGkAaJwmzOG9bilyAlKHX8FLt6WosWExs6eaDvmmlBfgqCGNAi2flqeUP8X/vzYJo/od6D2YfGA6KDoJ3lC2jSpWUqvn4jm9aBvHRozeHhY7XGYjmQgPy52LLV4i4BZDVUvv1umxSUFhMbDgPC/qYF+SkwqdKnz+dWaQ8wcxGhC1x776eeZS0N346rMWCu247AeQ1caKTpwAGPSGpkyizdcSZgBMfJ5ZhTajkABh9q7Y1b8sY/5vyN9ZjT2sqLt8XEVnvlus7ZMi3IL6GNG521QGsglsEtvoWWpRgFh/rpEo4iVn38KbfM8az42kfA+YycOBAEAkpc2WB6PxIFQTDSqlFuZbUckC4CkAdSTVABYlyLT4KIbQ23VG+d1tYyYqMXgaGsopL7cHARKt+xq002ebOgmwNmODQeaZugSaFbGM7h8NAxuuC6Opn7Me0EtF+h9SAwgug1a9mm9yRREB1cslKXW1kEyiITu/dp0920Dp8EmjYStFsbCGwRsaFYl21yYUGD8MCRKv3jldwq7QD2Psp/cPsHxbSBiRF9cx6XlolL3fAK+M1kcqcvk2k69a3g+EVpjyFAx33KbH43ejd1t//iy8+4Dp+Ea0enzdaT9VuB/IkNkaeych4GK+pg42Z75z2VDVu82XDzx+IqOnux9tmY1iFMcANzy6ZG07M9ktojgLaNaH504TL9DYVFAo3SqRsrEqittQbaF9gflYtWcAWEcR1+CPxsmGLVynkI+RMbbr1Ll7lLg3EhfggRLBfOnruo868sAdoa0kjKu/WSf+NjQ9BNj6Jy5Bs6/B9wgBE1jS1ZpQcKB4Dc4M9Go1TbQHoFurGY1uCLQHnq3I0nbbWmR1vexIZNwR0suvcxL8QPoRstPGSMykaiuVXaAQq9KxctDwSpcbeIzVut+2YCC7I80Lo9tnK9zncT7laAFgVLgSPYFrVudP1gU92wBj+Fo8PxlpeZ5U1s0IjQaUGS4xxh8RgqDSyHxdOnz3E7Z+mHIPTSAO7cwM36vOhDF1TArUKXIWYP8H6W/F1pbZgJAJPMZoQUpnrik23i3gUaH2T/uptbZf7Ij9gQEayMc26JJK0F66k5eabVIeF8gCoD3BrS0wVCPfpxfh1rah5OuQ8sSAOCYzr+7lpV/qxszY1LBVlzsVgqSGecL/AXZJnoXE10/ofcIvNHXsQGMzRz7YasbgCIhr4yUY/tsqidYC5jWGgzTRZ6D4h+xleu0+/CIX/U1emE81kL5TV0eFQ6dWPfNo/ts3hpIXpe8dob/DzjOnwQpJYltu/KrTB/5EVs0FqqkesiqT3PMz1U7J2VVv0O+NvclK9EkF/xUSEtA6ZUdOZ8LmB3aAVIU0G6QxT+JcxnML1nCULfOnXoKJmM9pqnIvKvq2oE5WkSyaK8Ct+pJciL2OCPQLKgJP8aOjngQ1sD3YzwVaHxndSCapjHXFd4+26rIkcOOZDmlr5wSVwu1+MSmTjd6nxc7gZ96SdV9l9BCgwRemTyTJ3y0gJyy4vYcKPx9KXOcvxMMA9hJtoCnKlIjhTZTBMCU3zIKyp96qwmtXaep9ZWIACFlufc+kjoRYa9mDpy3N63JuJApxceHynoHYSHj1OZn3/VkeE8kRexoc02nHhiAgfE4rHldhMX8beRHCm1Oy77HjZv1XMdHKkVBJwGsvoD3bhSYjChU1cVX7XBbs5mMqUqG5OYTWvwQZBfhzy7lkSFmyc2OjQ1p85ph6KUj00Ei35oLWHwlgJjwLjYX2jjwuj8pa0uN/EcIN4gkC83EI3oAeCCHOiPCpuj8Kc22HmfyDDA2ZJkqfAlvmlLi/yLzRIbbofEzq8EkdpzukXRhUvWDgs+bs3p81odl3ZzI0LWbziXB3GplDTQN8G6uH03kQQitcj2RwIo/2/6Z/j/eO3SyA7rydZzpj8aVhrfv8/CTRhPnLaXCVBXxxYaEt9Nz/dDoD1G5y8hbTL/Jg7NE1ssRurveuMDfRHSoMJjp1j1r+HwIRJjfL6fQiTLlQWf72BykAD4IvG+4ANJfXeSu6xg2AreH6Z3oZAZg3AjE99QUfrf+GeVi1fwv4MwPv4b/Lc8xk9CW3LiNu65h+RdgXXB+pAvtRcsgp8tEmXNUMylTpd5eOT4Fu35ZoktW1pOm3OO+YE+CKr+UbCLw2QLGDWHjiGm5/sqnUtUeMQ49gV5MfDDiEaNLFHNZIQAC4gK0WM2X5DInO+BoN+Dmk38t5ULlvLfglaHaDQfXB9JDpn+3HdPmsb+FFksvQbrPWBLa6P3Hl24XI4bBhd6SR9VjzOf555olthg8vAMQtMDfZCyfz/PPeGQW2cLGP8lcTQZAjgoCvZVq8lmVe2Nn7nIHtEzniuLoBKy1VtDAvhv8N/ib2D0H5FJfO1HZA7dtOokbw7oU5b85pDICCkOec2ps6wt20Ji65eizgBSUNDkNl9NtVli45QHQVX/iFLiNrWliqOTB5ve0jY0HfxKukX5pvbBN4WDnrn1C7eIQhY8b/pC+yDxt4jcUAUAHxfMWWjPTHBe/2YEEspCKjJ+qqyEVRKuNEGJlcWsgPTZC7qE0vB8PwTNADBrBVHbfNAssfH8UCkdc+lwQ2vhw20jKkSHB6YQ/ELG5/sldOA5IRk5TBbLx/4BkAnKjv66p6p37eVooZe9zHCAw6MncPAKhdA2a4JNwCFK7iPtXVguIxKzI+OnWa02kTZ3FN2PocnnS+bNElv8vbViWirj5oxOm2OvxTWRRubqDT0E2fB836TDcyo6Yz6noHgGMndBJKgfRNsc38wSInWYIdHZi1hj9FR7o/2ASzQ84jXSTgWVW9F+QPswzESw9S642mjpKvPzfZCyziX6DOTZY/DJxAYn4qyFnt3QzQlP7wFrIynVBrJZVb1nv6z+7zDPiNDRTPOB5XmpjwKXR83Jsyo8eIz2oz1VQJOzpYJ3gMjYkDEqeeiYdkN4RW5kGeg+hP8zr80voXeimzDaSfnBGcPvNj7bD6HvX/Ha63zR5oOmiY02DiJf3Arc9CAfpPz5fmwaWDNJyOzi1tGCprtDW2azI1zBF40XgLqPAAqX1qCMDsRiWJvXAoJF0nTii9069O/R+8j8eYf7gpnW5Kewny3W8iaMeYG0VeTLsaYq4fvTOsJDX2Wfaz5omtjgPC0tVxVjp5gf5IPAoZw+94OdwAGIPJnUEWBBgQNEwBLbdtozvx8FCv/jVexP4xI6IYT2N6GbGz6v6p1fqXp0TvZAc8O7x8QkBDZK/2VYk0+CwEb27r3cKgsPzGbljtkSLDYk5vcarNIX82uT3jSxkVmGxEkUoBof5IOER43nWZFWSqnq6Pf+flucGQoNhX8zaZNWAWJPpVTqwGGeaWlcjxShg4bGmtVf7bfaxudRoKww9OLLYtwyEExMw5xbW+BUL9KSROSz0VmAKwqNZfNBk8QGrQgvLTRATqJqZNKMXES08CYIDkjq+Ek5EWASjn5Nm82ka1szAamlMV7wxQGiNNYmhSPkQ7kjhxcmKaKEqKAQpc2TNpXc901uhYUHoq48TFlK92j65tyqLI+z0CSxIZ8rdex73evf9BCvhRgb5Ti2HMfw2SQ+3aYHfJie74OwVrJnf26FFkEaMKZwoSNxIEgtJ9yPbsRrqvbKNd6vNsH7Y9tO7XM0rMUXeaaHim/YbO3Sw0hL7vQhqA9jYsfuvFxRTRNbOs2+FjHRIFKH0ezSFtCHCgmhkmYroomkzZrYRqA9NtfGdhLUwSVP0akgi+k3VLBf2Brgqvj1d93SSIo5SuuILlimI6M2Lnt01F2/Uecump7vg6DiJR9/c9PElqpRVR9/KqasAi+36uPPcqsrPNCZNDJ5hk5tMDzfDwHZ2MwuZ9CBSGz5QoW69zWuIRBChAzN1naABQc9jPkXgrS26NTZOohiwz3DIwFIucGwG8Oz/RD0SKzP40w0TWzJFA8IkWKaQXO0aZZBMwoNGiXDUQrp0EVV79hlNWgAlR5aSHjw6ECZoP8QBBMwWPjHK9bMMoCjo42NKE3r8EEqxkzSuV0WtFXuIn3yrKhBN9F577CJ3ByeQGxJrk2UooaiBxv3obIEZHHz0BYJZsZTzzKRp06csntQqxKcCyV6QlOeAj9QfM0HLWpt01LgoCcPHNEBFsMa/BCkJ6E43E6mAF18N38RFVCLvDGH09CaQ9PERreTpAHJyGHjD2gDRB7I2WGtRYKPibQ1DBbJNxmxVaCDgBpQDg4FWVt7RFCZgBQFa5cBDjqaMKKdkeH5fghSc2rOnLej2ZN5C/+rpKqLitem6jGEzaBpYktU8x/h/lqGB3gt2Eycz2UDtCkQATY91xchcxhhdnSdtQUk4sKHChI1riGAgkAC6hutERsOekVUtw43PN8PQbJycv9BHUCwACg4PETZ8Gw/hANqeZRVNU1spNLzODIhPidspnyYujVADlf1F7uNz/VFOpeo+Mr1OmfPEjj5GqMF/awBLbQgt63vUG2q2DDNQJj0d3kGqZALAWZi1cbPraW7IL8zjFxWIb+XE9Zv/ZJbXdNomtjoRuc+bEJC2xHaTOidbwPcCvqDTcbn+iGIzFqN8tXX63Y8iHgHLL2jOYGfNHngcN59u1qD2Ir3xfRoQ3AvTuuxVT+NtK8w2hchFcjwfK8FSdnpHy7nVtc0mia2WFzUxudoCHKVLACaUWz5GuNz/RAcGtTEWruFSUPF4Sw2UoOggUHlgmU6BcISkB5T3lWGQ51/L50NW910QZhw2EtpXQZlC5Ha5tA0sVXGRM3UBPHYMs1AmNgcpuf6IQjY2Arhw5yC7w7laaZnB15IswgNHm11NGHy0FE9WNn0fI8FhINcNls1s7hcueONmOyIgTwAqDmYiQ2bP1whitjia+y1aIFPhv0mhud6LqRFwW/Cw2psOMHpb6YvX1WhfsPMzw+6wGdIhz1z45a1SgSMfhTTNrtzN+50a6tHIYgNSoUULkCqTRL1wc3ATGyI/tBhF0VsKKWIV+UWWFig2FdMe6acA9xaxQERW+LLPaJC+DaE++Nb0mKQ88jDtA3P9Vw60n4ZNJrdCzaA6eux1RvEJOpDU4YPtTk0TWx02BE+N/1xPyT+0ac8ls0G0LkBYWTTcz0XMqWwFmsNBOnboixF0qVlQzC31NY7hJuAMwYMz/VcUHXRhy5CS8ESEBvepZQkbox4ROCrOZiJjVT4uj/viLGrIYnNW61FCetu/6X7Thme67WgY0XFuCnWtFMQW2TCm7ppouH5xSKRmQtUtjyc+9GFRR0uQim5bP96lv1OtogN+XFosimlZhz9EvMprTQTW1Z3MhBFbFt2WPt4aP0cHiJjdipSPUA81oiNLi3usSckjceWhEdPtBZAQD6lmFbhIDYyz2wSW2LzFjFlVXChJHbuya2uaTRNbLd+lUVs23da8yOgAF7KUGiecTBpuh1ie/CATQu0WDY9u5iEy6v+zG/wR0vBDRjHTzM+1w8p79HXLrF9tl2VlwghNrTKR3OIZtA0sf0sjNi2fmlPY/vtDzH1f1aJjcxQlMqhoYDp2cUkXIJHe9gGxBEbHXY0rbABJjY0YBWjsRGxfbE7t7qmERxTlG4NWx+PncFCTFHU5sLMsUdsCUdsbQQHmwT52Mpf6G9VY0MfRFmm6Fe51TWNJoitns0zWcGDLQqN72yANyqG4hqe67kgKjpyvJ2IHpuite3HFM2jWLo1YJ+slCg6oqJID7JEbBwV3bBZUPCgr6revS+3uqZhJjZERW/LioqiE4W1dA9JeWwdu6rQyyPt5bEheNB/uE5kNT2/SAQTzdAV2QZ4epOUIUeYtznYbh5b/P2PxKR7YLZw9Vdf51bXNMzEhjy2e6VEbMISdKvsRAqz98u4LbjpuZ5LrvLAWmcP+raYqC2lqNmWRKfPVdnyUO5HFxbpS5dZSzI913Pp1JVJ3F7lQUbFVq4XlKDbXyW/OZRbXdMwExuZLCjpEVUr+t46a1pMtixEB2Ge8bl+CAbKcIsmIqGCg/5mbMl7orRxG8LddC3tF57e9pKQLrrwyb421WpJFQ85ErJf8N5TR0/kVtc0zMRGkNbdo3LRcl0/aQH4uzylyfBcP4S7e/x4hR23BQdKqrbvLP6Sqr1fWzvs6N3HbeQNz/Vayv79PI+ltNndA39fTCdtdPc41ZbuHvEqVS5o8jVeri3TAiQeX7fR+Fw/BEm6ya8t9RQjYktfuqJCfYQUcRdacBGTmY0W3oju20B89QZuF2R8vscCqwolcuibZgP4u1ypIqSTNvZt+kLz0++bJraqhC70FdI5MzJxurVMcqSRJLZ9aXyuL4IOuvApWoqM8qjBCXLysAoqnRB8GcEBISug94dLVkwHXbKqUPJkrXcfaYLhEePEzMVAV5paXFrN4InEFuYZijKczOGRr3FNpw1gU6QOHDE+1xchjQODdOD7swHU3GI2gBQ3QyEF/sno3Hd4NkHBgTxAumw4gi7k3TXmdcHJbwMw5zlQIsRyy3f2SdPElqjWA4SldM4cMEJlbvycW12BUV+v0mcvyqmfJG0AeXUoa7MC+r0oJOZIV5GRGyLKSAewksyNafBI9ZDS2YOEnenHTijMiC04iMgRnUfheem/zM/3WsKvTMxLwWma2DB+761FfAOaHuC1YMxY+syF3OoKj8z1mzoKLIHckHT50kA9Vo1MHxvAaD8uIysmYsN76zVY569Z8K/BkZ46fkpUgjMaGqR/+IlJt+BABdLvf4qpOoBEJs/MyyXVNLElU2yuSEn54D5MZC7aQubXP3TiqpQZm526qsSuvaxd2QBSITAsubRD8XT5QEpCdMEy/c4s3AfQAiW18IGgiwnKH23sE7ho0C1Y0u+FsoVZp82haWIj2zr+gaBSCloHHPy2wK1okLjaWUb0B5pUbMUae+2LMPyXDgTnYxXJwGR0kuWh2pa03IZ4PBchlOGegUSmkAaDg24h5xHKTerQUVX+nIyqAwiUrXzyE5smtpq0rBbSz/RQ8bUf5VZXeGBzROcsFpOvA4GT2lbABABpgjylZJW3SYhsYu+utXcRZOvp8rur89ek+GLp8ovOXkxKSMoKmSOAiD6IkhL14+s35tVwtmliS9eq5OFjKoRcNsMDPBfaTBjBp+otZOMTOJeNiFPSR8TgilQegytaCyQAP+zfL+WwtkbogGO4SvrcxdwvKzygvST3H+AOx8Y1+CGkaYPMbWmoPJaSLj4pfnYIty/LIwLcJLFh09ecPi+nJo4k8vpbul60wcLtBLX7wGFR/gQerUY38gOQuY29iwORzfI8CSmZ9K2STt1U4rMdrGHYAtcTvzlXlNmOwvR8epO1Fvybp88TkxmBCwyXSz5md5PEBh9M7dUbcvqUkWDMGNdQWnCUIlyeufmLrFIjRPkGjtLmqI2oVw6IMkXnvq1zFgMWJeW8talvqWxpGZO0FdAFAG2QqzUEabaIzkL5sAXuLP3KRL44TM/3VGhf4lvnM1MUaJrYiDyyd/7SP8z0IB8EJMvOYSLdggPJl6i26D1Y1Obl4RWcl2WnLQ2DCCF98ZIK4RILUiCBDhxSVhC5g+vEFlBWlPh8hw4sCSL+8LCx1nrOAUiB4vmpEqoscMm/OEClz/+QW92T0TSx4aBHYzoKZHqQD4ICWOQR2cqyBmFGpswS5UdBQXzk9VmqPmKpjVEObIofOa7Kuwlyjj9J4Fd7aaDupmrBNfEooNEif8q4Dh+lcv4SHmxuBdBS6cLA/hNB5khaR9UBWZH5oGliox8G8wylPVJuKRy6xKfbrXUygOZStUnORB4WIhmo4OmfrnBekTXgIktUc3dSTgERpJn8Q+id8FAPDPix6FdrBN4JZ9+b1uKjwL9mS5PHXsP8TjH7oFNXVTF2MpvH+aBpYgOI3LimUEhuFzoqIDJqzSwj8xu3lKSACQsdZPxuW91NHoJ+PyJhaMMO7VgkudEGB8mgozK/Dwv5Ww+Rex/odyYmvxGCy+6/L3DDS6Sh2ABnCaz+wPx8P4TeP3omZsvKcyt8Mp5MbITEJ9vkJOihW+jQV/UtjYheoUGHpO6vu6ImELEQwWAoLsxwWxv5UTC5IYfxhZe141gKwXXuxuZnFYZnI1/NJqkRGmpq2DzH3E7jevwSnAOLMx0Ajoi+Psv8fB8Ekdn4qvV5Nw9tlthSknLZSBDi5lpAG5uayBLJjpWLVxif7asQuaAZprUE1McAszR56Ci3iUFffeOaPBbURVbv2qt9rDYutseQjUT5kkN/PNN6/BJuLjlvSV6lRa1F5tpNOXMdSPCbq3fTt89zoFOzxJa+fE2F+tPmNjzMD4EKnjpxmm9TKyDCTGz9QmTrbA7vo3uoB4caZhhqI2tpg+Pm9q06gQgdPkY479FVGITrxe9HdjvKiXCgpAVTOH+NNGp+F5aQRE7n8/2Nz/dD2PQ+/0PefuZmiY1rKMdONj7MD0GUJr7uY2v97AH2swnsMItyLzSI5JvaVs7WoyACeYCa0t/+4OJvjJzjzrEeHXQME4LJhe7GWIO1oNHjaHjAFRkoMBfnZ4RbgkzjzM+/2WlVBNDlDv8ak7ppDV4L/WYE9NhSows3HzRPbBVRWaZZ526cksGJupYAB2X0jTnm5/ss3AygMRroheaWAwI2yCGMzl7EA3q5zAYmaiEPPv5Wx658oBD1xLPQkoe1cy9/K2lr8fWb+CIxrtNPof2PRHXO27PxTuhvQlOPTJsth9RpTyCHtSUR8GaJDRsaKRbGB/ohHbpw08naK9dyKyw84GdL7v3G/Hy/hT4ytEloFPneXgUBDhHM03SaTcLYkpU6elzIhF58237DVHTRCk1o8KfgN3pIangW+v6FB46Sc7AfkfKS3nQet9nT2OnvcsXBqPHG5/shXF0yZ3Fexe+NaJbY8EMxboyzjyV00aTNBnMIa7IWFaPDxA32evSVkXX9qOS0Gh5uY1FrbRK40UlbwGSvzK1feOgMyrHg2OdyNNQV5mOq4jvSv4v/BhcVtLPk/oPcJRlJp+xLsRz1/AfI7EYybsWYiTK1NRIMR+ae/5beDQIzNd+f1hU4huf7ITBDExs/b5FfvXliI+CGDiFBUYoTlQ5F1cef2ctnI+Dg6rFjcjobPCr42Che5yiplxrNY4DfC0RUe+MWa7mx1Ru4cB/ugopxr3NJHuZVsND/xj9DDzEQWWzVeh6TV3v9JvsNedKS12TWCHouvjnWX/6cnA4vf5MOOp8R6Ti2vrm0PowQTnU6eiLvwAGQF7HBcRseNUHnNBke7IdEps7Whc+WANLEQZXc9SLUf0SuxMySv6WVgFO7IRZj7Qe5VpgTAGc3/jccwPWVleoBTClBa+bvffCInPbwBoGlAv+qNfKHNl6V4D6AksoKkbuaoYuzJY0g8iI2ZHhzE0Yp7UtI4GeqOX8pt0ILoIMH4uQ8LoG+FpZOGDU3nFMybBaBtxggLBw++MeQUAwSY6H/jX/ml1bWFOob9CwDmF9SvzUJOr3UXr2eW7QF0DdiF0yXnqLeA+rVkVPYkn2TF7HB3Kna9Lmo3C7kVUFltnbr4+/Sh65ctILTDkxrkCC4bDBNjPveW2xtVLQgokV7LpjIUoYCNyWx99ZpM9QSuFZ451ey/It0eaPYnzv6tOCs50dsNWlVc+qcZnLTw/2Qjl15iDL72SxqAIjOsdZmWoMEwc3aqZuKvfNeriJDjnknHWimisHKkalvib684FvDRQ4CxpptgdOcZi0QVReLck6UdbYUeREbVPVseTg3X1COisqq+XXY3pYSFQn1lTHS2paLNlEg8A3FVm3QIXFHbs2D3hEOcmzZarEBokaBBsUDtCsiucXbAVcZoYxKUCYA3AM8hrKFyI/Y6JwgWgJbV1LdHE/BRrKqxegoTJXk1wd1KyPJ5PaUbsSX2LGLv5U1E71IgMqVh6VzQoMFjYJ9njp4lPMrrYGUA7TdZnNc0D4PN3bNbiHyIzYC8lviGzYJmwnQg9MKbJZXAXCo8mg+4QeAu1/0GcLRvYaE/T5lgURDA12ESe5lJilXq0lBl+AR41R9mLQ1i51d6iO5CiMhE98bJb4y/44ejyJvYgOj15w8K2oKNogGfj9uPoeomyUgAx6JqBILov8hKD8ZOkYXDHtVWxkUgNRIm02fon0Mk0v6tyRhq2TbztwPsAe0AZfUzYO1RtrL0FQftKJjdv7Ehmz8P26TajjFvBC/hG60xGfb7XZSJbMO/g0uM5HUcPAJAreBHh6c+w0OfEDSP13V4waFtGJqTrgu+l5p7hfYAxLeRQUHOzzHxf68h1uB/ImNDjd8Wch8Ln1KkK+pQxdV8cpEq033APg3qvfs1xUYpnUIE2iXkfFT9XuxGFwJDJCjdfU6mXWv6ctJeDAI60NAiNt/tyDjvsWob1D1sbgKjyWFRRLZ0zdC1kP2zt3cQluG/IkNIFUebaNF9SrDBujeh3tnWe0uSwcDXUWRlc1j6kxrESa4gRHR5Rba7TnHjS5luCuisxaKc443KaSxwHGOig2bQGI3Url4GpVpHT4JqizQOqm1/vOWERuBhyhL8rNBaKPG311r1xwF6IAESWvjA/zvHtyCx2Z9oWjU16uGeFxVLlzmX7PMlspTGODzAncwbklHi9YAZya2bA1ph7LeDYKUNd+faVHh+6NoMbHpUWQzjIvxU8LDx/HAY9vg4vgFS41rECnQaLv15tmkNpM7pQLuE57b8bysHMwnCUf7J8+0fxnR34YVwoN7JHWxIWJHxLqlZVSPosXEhrKLxJYvzAvyUWB2xddvpAXa1UpQ4I3W5KGetBkCEFVjoU2LRn2oomhPAKmlz17g/D6U5hjfjUDhpFRoK5brf6GtocU456YKIn24uqLzl+puL61Ei4kNvqb05atadZV0sJHmMGSM7vhhMfUDQIsdHkuIpgBB0QIQTIAzFsmO7SGYgGDBtRvcbVZcT70nCB/qeUu0W8ViqSCQ+fUPFX51krj3g+FRyQNH2rRPW05sBNTX8YYRlvqAnB/4wJCAaRX0wuv+vKNC/YcHShNgrXbNhzwz0vah8RsN0ZiKLaHLR1CrrWblqWc5GTffaedtAhE/BiJzioewyxl9+7ipAzrBtBKtIjYeprruY927yrAwvwQqNYbb2q6pg28CiZ4YByZpNGGzQho2vhkSra1N+ZIABHl27OKLLigaNdYJbS2B8YIetKBiX/Gct+W9HyL36MJlunysDf7F1hEbvXhMcuKNY1qcX4JoEm2O9Onz9g8u3SboHBudMZ+dvcb1SBR6R+hmy1qBTce0T0DOF+ZhhAeNDpa21rkb7yXO2/KgiQH7iQWWlCEaWv3lHnoHbbMoWkVseGhDVRU7pMWZYnQDcXddMpetg4ghfe6iCg+m9xAUzYAE/rb4e+t0jlAxkRu60OCymb9EVq5lc0IEjME46UtX7JfB0TtCAJBbNQmc64CzhGHNbUXriA0gjQXzHkWVYeQE6Q0YDOKFH4lN0q++poMkt6W0SXCQeCBOG/wY0oBvgdrCUmFRvicKrRODiROf7/DEPYBII4Zuo1zJuB4/hd5F7N21qj7S9maarSc2Ig1My+ExZaZF+ikduvBAEdze1jUSeg/Z0nIVXfyuyBuwSSHTB7l/WctdI7wEhsIETnsmEkZFRFtytloCPCc6fT5r7ab1+Cb0zTBnAc0bMKS7rWg9sRFhIIFQXO1oTpB0mDp8zBONBH4dDCyB7yow/jZoCqRtV23aoiddBRm0F/EbEPHlSfWm3ytR6BsgAogGjzARbQNmLlwn5V16yUuB6VzC74LTkQqgjLSe2AAiDTR6lOjPwE0YHjNRZ297oJE8TNyFBtsxICkg8O28PILngwY6t400HR4ROVBQ253mpGMXFXppILsDrDaQfARoHR+d+pZ5PT4LzzDZsEmnIhUAbSM2AqbmYOCtRPWfIyy797Gz1AtAhUZER/LIPpO0pdjYd0BbI00kMm1OsLTlZ1/iDr6evXfSCJFKghkCxjX5LKHn+3PQoFBlf20mNswEQK99icTW6Efi1j1ezAHAIaMbJ7FlhyoNQlPKnPBAWtI2gwhoO6ljJ/Q8joC8b1y46FbLLgAvgjeY73DnLg+qlliFwZPWJryp8/cKYIYCbSY2MCyCCNwyXNpLI7ItI9s98cnWgqm4zYI2Kg8JWb5Gd5OQSPiPCcx2tDdis90DB3bBQIcAJXSRN4KjrcEHGJ25QNXhsvWC1Ogd4YwmNm2Rl3eaEyS5pw4eKejeazOxAYi0cF6M0M0V6jdcpS/+6M1GAuqyHJGNTHwjMPlUKA9LX6B3ZLnOtpBA0Kbm7AVuzSReW8MF16krN7rkPK0CaSbNAaSW+e1PeR08GoXeS2TSDJ13WsB3UhBiQxcFrjvr0de8eL8F6R/oFgDV36MNhdsHJjDazwRCayPTGWkHQZqTgBZa0H5Mv0ecoEnDyyN0BNTDywPpPLF3VsqNFnfuxm3JC90ItSDEhg8FDYXLWITeCohAJb/51tPoHzQK5OXw4BDTuiQJaTxw4KYvXfakVrHNoAsKYxED0fSTNDW0uYJ2yaMiPbpckfCLZFyRbiIIzmW/YbqdVoHfSWGIDYsiDQX90Pglmn6Ez8LpH7lAgpcNFxGRTX13Ug8QEdYN5XGB1hZbvtp+E4G2ouEBRxM5h1J6PSgRCpLYk98c0rMLvPJh0plEW/HIhGlEIIZ1SRC6TGMr3ufRf4VGYYgtB05SxbAMoaZX2X+eV/FVG/TB9ejWBNDeGWVX0BpF57jR2jiv7fpN7w5ga0AWQvrHy0QYwjVhOgc8Pg8DWbhbRW79tkF7G89DGo9YH2+H5zj1xFYOZUGJDbV66K8vUu2F0A2BHDNoUEio9QwgUfp4GBOI1Arj2qQIvSM9Td6bpNHWAJpPbNlqcW2z/iZEatCAkfrDEXkPL1LsNU4WhwtErJLxgorOfVtH4i2goMSGWx4lG7CbxUapGqf/3Po1t2jvgI/I8xthrgvdcJCKca+3euyZdcCfe69UT1USPBsUZUvxtR/lanE9jDQTqWGOAcqTJKfAhF4aoGpOov25nWBVYYmNADOP22YL9n3gpq98+z3v87bo1kYtXCXa6qCtuMAaWwi6TSDK7amWkScwlb96zz7R2ho6vXDrrPulngareH8RkcbXkAkquGYW/m60qef255ZSsApObDDxMC2qvKQ3a0emHyZBkNeTPHBYt4rx8gBn65ncKsZM4g9sWpvv0rErmwl8mwojN9Q7Rt6cq1sTmdbut3TowrNnC9FTrKWAiY7aU07ElWoxkUBbS337XW7VdlBwYsNBQL5Y7J33uB7O9MNECELwZDLDeelllJTfD9JALuWKtiWapLQm7r0Pc91LM6o50LtDOorY8ilaE5en0aH1dE/lUHv5mgqPmiCa1CBoBMptmiyi8MRGwEdFbgqnOEj1JWFdT5dwOQ6mhHtqktKzkAiLImied2lan8+CnDZEcm35QFoDnhG6fZcOTknbV7Qe+LTgQ7V9aP8BWAFk9kbfWii70gXET/sK7cRsB++sEJs+uDWc7Y8UC+OPlCDYjEgB2bCpIF07W4pseUhFFy0nk7RE3EHFe+FKBHRGEWKOoi40CjPUsF6/BU1GUcidDVUw0XgGtPomCymx8XOxtaAPhayk6PR5HPyxDTvElgPMBu5oavqRggTmAwbHsiPTy0MM0wp9xBCWl5Yik7td2QHupTb7BKTPnFehPkPM6/VT6FLiWtszF3QSrodAilXy6Aluhy81GMVC+wmNTcEJD2rtm+lWiQ23PVRzTkqVZjo8KkhMJXLh6VYem14Nidw0boGaLcya5KGjugxIAKBZSzS1kGgaX7lek5qXFyMSlS9c0hej5MRvEs5EQKsmj3L6rBIbNKDM1esqPGys+BcPUwJDoBFM8JTckJdVHmYzRtrMBERtEQTyvcQKJVTV1doMlabZ0oWNWbaZX37PLdYjEDlgr0Zen8WF5KIVB9LWUFYGv7tXQRW7xEZg+//zHTrvSLKqDCHyjUybrTJ/3mHC8Qq46ZNHTqhQr8GyNii9j4dTuf0EfQusgcv1TOv0S2g/Y18n936j04a8Ai7DUAX7q3g6mmltggTvCJUiDTBBPdJorRMbfgiiROHRE/TNYvjhoqRTNxXDzM0qDwec0DuC2Q5nvSiNBH6R7v9TNWfO5xbqDzg/69vj8srRaK9EpszSF6GHQGIrTF+pDSceF1SyZH72ttLHPrEReGMehUYyyPjDRQlpTFy4vHmrDkl70VIcaGhQycPHOHnRuC6/hIi2es/+goxEay24Bpln2Mo6yPD3YV97WVfLred372NHvDiz/HFp1Gj3HfBWoyV4Qmw4tDzPEOkf0uYZmgTBhJ6DuF0xOnN4BbQUj85eRORqWJOPEoNjHE06fQK0WXRZ5TI0w/r8EG6D9epknbPmUWdmkEMKLov+w1mbNq1LlHQuYb9o3e2/PDNBG+ENseWAUC9/FMmOzkYhs5lb+JAKzb4BDwDHKjqPcBBBkD8yMnmGJ7lHRtClWF8R5dQTSYcZ1Q+JXfuUZ0056T2gxXd4zKRgnB/SJtFRmxuX+tCV2VNig8qe+GKPLpAPwsehNXIwAZUJHgGNMBGdleSPxGVUe+VaboXegqtYfrwiLs0Dtb7cAcULbY1IDX41zBVBtYxpPdIE/j/0PvSr/ZWnxIZNALUUIWqxBeCPCQ9yXb9RdyLwQJ1GZ1g8T9JBhraU3H8wt0JvwU06d++TlQpDJnFsyUqduuDFnqC9V7V5q55XGwQTlLQ1DhhAIfAwu+BReEtsBDB4zcmzOsIlPLeN5V90sMkkTR0/7clHQqAF3WF5EwvRauEARm8xP4DWUmgfLeki5HFxlrtTNAI5lVyd0neotnQM65Em6BSNOmMOOHnsW2uE58QG4GPhoHBkx/BixEnnEu52wYmqtk0PpH5UV6vwyPFyNjJdQNE35/mySblN0etkggk61FwT6kUjTnrf+P3RN+YY1yFOcBF36sotybnBpo/whdg4SnqvlHOAguJrAwl7NXgZWpso4qffD5+SlxOWGoHWSeFRRPKCtPuqTZ/r5gC2QRYC2rTz4G3DOsQJXT7hkeN49gnOuJ/wh9jocHAEsDHb3vSSpAn6tw0YwWUs1rU29Kw/fkpUQirK4rgg3qPUhkbALOdW8xJytnAJk/Ze8/0Z+24JREH/uKMi46fJz1eD5JK5kYvpZYpUU/CH2HJonAHAbYylO0WxqTs8p+IffWpfayPywOg01lRMa/FBUGjN06s8TtTluZjoxiwh/YUIBt1FMjdu5VZnCXzx16nEp9u1r9W0FmGCKCiXTYHUfNbWAF+JjX0IpAUgT0pS8uWTBEOh0z9dzf0AS2h4wKSPWkDTGvyQUO/BTDJeD1NOHjrG2rKEpGX0zcNkf7R2twq62ODPDQ0cFQxtjdaI98KlZQJIDfCX2AgcBfzpmp46FICPiLSD+LqPPTFHK99+V2uKhnV4LaEXXlbJA0e8LY2hd1y9a6+Yd4CqGXwT291OGufQSp9m1ijQYjlK7FNqhwm+ExsYHloAcpXEFTmbhExm5OFly0J2byfSZtF/TEpCZnn3Ptw3zsvebNgXiU+2Gdfjh6CTRgKBA8vlZdxZ+a1FsnL3TEJnAW6kxNYvOf9SEvwnNgAmaSSqYsvXaH+b6SUKEu6WeuESaVV2bygQiZTIKLQH+EO9dAwj7QXRYdN6/BA0lGSt1Sa501lAJJg7BUvO8yRNkoceEwGDiKWYoI2QQWw5wCmL0WXSAwlow1y1aQub0TaROnKcTUDTGrwWrsBAMbwXaQ451JMWEFu62rgePwTkjmaJVr87IuLffS/fBEUgZdBoXV3gcUApH4giNiTu1l6/xZ01JGdZw9fCg04sF/fqCg0ZrZ64WeCSlbq0zCNAi69cuMy4Hj8EF1rmxs8csbQFLp9CO33D8yVJqN9wVXPqnCY10jKlQRSx4QXxpO+dX2lNRarm1pFuqwEjrfub0ucviRlegtpVtJ3ysn0Rd4mds9i4Hj8EqRdoUmDTSZ4NhVV0tpzf/A8hTbK85H/s+/SzlVVzkEVsAIIJRBiVb68QXXKFTc4f1uJthbQSTk41PN9reTiOz0tigxN9hpyUF3xz20nK2bv3uc+b6fm+C4IFz3Qn4n1bZUvLcyuWCXnElgM3XZz3Dr1Mmb4GmCUYwmLTaVp79YYeOm14vteCCB2aBnpRUtYIHB60jTKtxw9BZj3PDbX4zdH9hocfGZ7vuzxdoptrojefsGDB4xBLbPBj1GLCFWYlkOlnfNE+ChMbka/ND8xdHaRobPArvjmvfRObBxobTN3wkDHG5/sqnbrypKnaK9c9T9JuDcQSG9CQTLKDkucmdhbUYO9fz6rQ8/3sm6KYGSnFxwZimzHfW1MUxCaoswX72CxPMIMpWjFuivH5vglZTWE6g2iV72cropZANLEBGOSR2LNfD4KRUpnQkW6vwaOtdwdFsbWUpGVffGxlIVFlZRwVvX7LalSUgweCAibwq+F3J77YzYG9oEA8seF2eID+bR9s5hvT+PI9Fj7ktPlsp3skvznEfh3TGrwWREUrFyzzltjCwqKiXXupmtPnOC3JFjD2EXvd9Hw/BMGC+IbNuowsAJpaI+QTG0AvFDcZstC5ZbbPaSAY5FG9Zx+3XrKJxPadnD9mWoPX8nDorYd5bGgEULn4XeN6/BAkKaNFOlwktgBtEJo653H6nKSLrATkLnL5oMAk3CchGMQG1Ot5CdF5S/wlN9psmEieufkLqRQWC+EbGlT8/Y/EDHXBJkfxv5eVB9AOMbzatB4/BPuO21bZ1FrpEs/89gd3keGuJoZ1eCG4yJBqI7WyoDkEh9iAbJajUtEps9gc9OVGo5sUWgR8f9ZUc/q7MHeiC5aa1+CDsJ9l6xfWk5IfBQ9KJiIxrccP4ZQXMsdhItsE102/+76+wA3rsCo4Ux276jZEN37OrSh4CBaxgUjqsqruj9s8QNePIuFQv6Gq5uQZe6QGkLaG5FR0ETGtwQ8JvdBfJb8+7G3bIvrWcFqb1uOLdC7xZN4BXBy112+q0IsDvL+80d571ATdczCAmlojgkVsABFK46zJh22Tvfj4eAaZhVUfkyliu0ULmbiIvoWHvWpeiw+CfnlIvbFd+P83NDxQyYNHtDnuh3b+uKDwu/dg/jZWQRcba6uYe0GasnEtFgSBgvDQMSp9/gdPNXMbCB6x5YCIJG4VnuaE0Wy2N/7TJXpWIvKYPGgymTp0TExnDwi6udbeJNPE41scZMrRcAl1w9hjpNHUfO/BKEYit7rbd1RkykwdSDCtp4BShklsQ19VqROn1QNcXsEJgBoRWGIDeObipcu67MimoxW5PEQyHOqHb80yoBWhN135s3KmE/H4QZSQ2Sb1x8D1svi+grorc1+6hAfRYSK31GFccP3tXty0vzG3FJfpA4+/ry0EmthYZU+jtThpbhh80sHOrY4kWbSo5rw1eqZV4DfFq3S1hZTDTBsfZj8nptr0LRqAqBz36PMxQvi44F1Yn3uQA9Jrqr/aT5ecpUyAjl3ZzQBNjc3PgGtqjQg2sQGIIGK6PJkH0Cr44xdw8Ady1uIffsKRKi8ONWuh53/QvhUJfiUSRANjy1Z5TmoAty5CMwRBJXWYdJ767mRuhZZBGhT2XnzDxoKb5BhOg75qyUNHdQqLD9/XFoJPbDngtmGzdOAo+mAF8LnRTQZyQS4ZkoO9AgIT8dUbdDqLaV0+SHmPviqx66vcCr0FNJbEZ9tV2TNy+v+jbjb+7lrtb/SCDLJZndO3bDVftAUhN7ooYBWgS3NDbaaoSA0oGmIDeOLVj1d0cmNbOoIQKaJ8Jv7RZ3aTMQ3I/Pq71jw9cBjnK6GXh6vay9dyK/QWOHTpiz8R0cuahQHzGAXrXvockRyNvD4MlWnTxU0WDXxq0NQe2A6C+ISiIjb2TxG5YVo7N+trTZ4b3YZoFZT8+qAuH7JZXfAYsPbU0ROF0TgLKGgdlC0ty63SY9A3hSkWevFlUQEE5JglD5IJhwiiVyASRZlZYvdeVY6AQisuP0Q/QwNGsHXDg3mKTFNrRHERWw6cCnL+kopMmq5TQfJR3enfgS8JKR2pY997rqkB2ftlKjpzoXl9fgkRLMYAejmd6nGgq0Rk+jz+PsY1+iBYCxKouT+d7YDSoyByw4Wb/PY7FSatsSW1xHBvID2KAwVFTGpAURIbwJrbn3c4U5xV9yeRW+du7JiNzlyg6v7402r3hiZR38DdPFgzMa3RDyFSgz8p9e1xXp9fwEWV2LGLZ5sa1+mHwF3x3Euq5sx5HS33GkSmsEyisxaw24Stk6a0fDI9+dImIkxfvu4tEfuEoiU2BteWkhaE4bNNOeNpM6BjKQ4O32J+HGCY0JVxFXlzrrWUlVYJmX7wV6JFua+oq9O+04GjzOv0S8isA7Fk793PLdRj5Mx0BHa403JTrhe61OFOyOA7+nhBeYniJjao2tl67tEeX/2BTqFo1Nw6dWUtDePd0IKc/Wk+qebIxUPpEDeVLGCqSpvlaTq4c9/xNCpsBB1gzBhFYXZebgWvhNaCPZQis5Aji34AEdNEQmWu3+SmCUgkf6i50V5CV5bKxSvYevHFEvEJxU1sjUAuEGluVR9+wq22kYcUmTxDVe/ex50abPdVeyLqSKsk4oWZICmlgc3Q/76gHeQS6gaJ3OLrN7XIp+SJ0HuKvjHXemH8E4H7GHu8PKSS+w6oyJRZnBaCyCe6hPDaAlzQ3hq0D2IDSBtDg0BEO6u/+lrXfArwNcD5jBIdSY5xFsxOpYPB2pqA9wRwnmK/4eb1+iic77h+oy+VGY8Da0AEG66V5DffqnoklrdDtB9iA2jT8ebD7eVh/lGToDXUnD6fm+cgyMQi4e6pZL5L6vKAVIfY0lXG9foqZJIiMTz9w0/+av8AiJUuIl4H9rmQS8lrtC9iEwbu3oApTKiDbCqi5ZPAUa8PqhwTBmtBqgIP0pbkayNBcAqdOGAOWu/84dAsHLH5AeQiVcZUbMX7OlRvOCi+SqduetSe1zlaeQAuhIrXXtc92kxr90vgk3ymB5uk3GHXZ5O0vcMRm9eAr686yX4+7pBqOiQ+C/LFqnfvzS1YFpA4jRbl4oIIECI3TBXDtw3CUOFihiM2jwGfVc3ZCzos35qSLw+ES6ju+1RC1RyQvkPmXqj/cJnvD112B4zkSVNOa/MPjtg8BOYF1Jw6q8LDx4mqe3woyMvq0lPnZfmRTZ8P4BuvrVWJz3eImbn6uHCLbfrG6TMX+Js7eA9HbF6gQRfnIxG4govzBZIaCfpzIb/P15ysfFBfrxtQvjZVXDS5UeBvC4+eoDI3bnG/QAdv4YjNNuBTQ5ffy9dUeNhYsaTG/qEuvbi4WlKKR1NAC+vEpi3+jKjLV+idhl+ZqNLnLspIL2pHcMRmGeihlb5wSYX7DxfXjuhRQb+zyJtzdGlZEHKf6MKAZhmZMM34e6QIvjmmjaVPnVMPvGpM6eCIzRpw8MIVPBczNGCUNpmEkhprFkPGEAH/GKgcLAzWQUt47ior0WeZE5ilSOCt3vmVylZEXJ6bB3DEVmjAn5ZOc+QuvuYDFXre8oShAgjMudiqDdoXFDCNIhuOcCMDNkklNRB4XIh4y7v2VPF1H6tsWbkuSHfamzU4YiswECTAMBY4ttn0NG1yYQJzDr29Agky7zK//aFC/YeJq0YwSucSTqdJX4R27PxutuCIrVAg86Luzl88/AXTwpnUpB80aBHd/6fS536Qm97RHEjrQcug5NeHxSY8/01Ie0f5VajPUD397O599cCvlkdFDEdsBQAKjjNXr6vo7MU80SkQmgMdMOSsxd//kIvLA20WsT8zwgXy0oa+NCm4VLr1VtE5b2vtrZ0Wq9uCI7YCANpO5tavKjpvCU/t5hZEwskNDu2KcVN4bmexOLPRbDE89FUdSJDs18TeeLqE64QjU99yxGYBjtgKAWg7KGxHZcG5i0xwXNwumNzCSB69hlbRxePngUmHUX3So6SYlRCZNEMlMdOzMuZy3CzAEVshAX8PaW/ZspCqOXOBzIzFejgL2hIZNrgvQpoMWpDzeMFUkZX74P1jwDIGv4DcJGltHREVJQ1t8gyVOnRMZf+6p9+/IzUrcMRmA9DgyLxDWD954LCKzlrIhdE8LctPTQKHq1sfldi8VdVHKnOLLTJkSXOOxfTU9BL/p1rBLYGLBISW2L7z/wjNwSocsdkG8tpIi0BZTXTRCtbgUCTtuR+IzGKUTOHAs/lT5EB3kkp63/Blea650bdF3S1aK2G2LQb18MBpXHgOnsARmxcgckP3V8xcgF8LDSZDL6PEig6d6WBYEByy6FsLeVxbu8ifIhMPAZ3I1Nneasl0gYR6DeYIOYZ2o38cT4t3JqencMTmMbDJMWADRfHVX+5R0WmzVQi92Wy1B6e/ibyp6PylYgbYeAWOVt/8hR31VtNAMMqxW28VHjVBxTdsZu0cflZuNuminb7AEZuPQBQVCZrJ/QdV9M25XE/I0dRO3QpDcqQ9cHE7aS2Zn39tl1oDV4L8eEVXghSyEwjI7NmXOBkblRuJLTtU5pffuemB0878hyM2CUA0L9faCNnoaG9U9u/ntRbXWl8cNDU6yNE357HDur0fttor13nYCnfdbeX75PQd/PdPd+fJ67Hlq1XNyTN6xJ3zn4mCIzYpoIOBCgbMQ4AfDPWmyKRHwilrGi3MiYPmF533jm7x7drlcNkV6mEjpBmXInjTwoJ57tDRd6iKvrVIpY4c5yYH0M7Y3HQamjg4YpOInAYHTSBz/RZP944tIZIbNZ79cThkTRIdaXiYdB/fsCmnqTXQ38v93XYOdNRA593Y8jWq/Pl+T74sOpeo8pLeKjz4Fb4gEtt3cV897syBdA3nOxMNR2xBAFJGYnFV98dtTu6Mzl+iwoNGE4EN4HpPTh/p2EVrFb0H8zwAZx41AdKu0CcvvuZDXTQPfyYIrnM3jhyjzRTMzMjkmdpvduMW19L6PgjZoUVwxBZQoGFhzZnzKv7Rp5z8iUz7irFTeFgMm54OTwRMfuSXYTA0osbocgtNDq3R6+7d191uHQILR2xBBWkeMK2Q/AufXPZeqcqGwpzi4DS1PEAmOmY7ZO/e435u/O5IK2YzE00B3DsMNByxFQtwEN1hbDka35t7d0UFR2wODg5FB0dsDg4ORQdHbA4ODkUHR2wODg5FB0dsDg4ORQdHbA4ODkUGpf5/c43aTcwR77MAAAAASUVORK5CYII=;" vertex="1" parent="3yO276qXORORyjHlByuQ-1">
          <mxGeometry x="82.5" y="382.5" width="35" height="35" as="geometry" />
        </mxCell>
      </root>
    </mxGraphModel>
  </diagram>
  <diagram id="2AkAZZOOgoFBy40XKjhD" name="spdk_iscsi">
    <mxGraphModel dx="981" dy="615" grid="1" gridSize="10" guides="1" tooltips="1" connect="1" arrows="1" fold="1" page="1" pageScale="1" pageWidth="827" pageHeight="1169" math="0" shadow="0">
      <root>
        <mxCell id="0" />
        <mxCell id="1" parent="0" />
        <mxCell id="6PNHSr4lHcM40_FDZ9yp-5" style="edgeStyle=orthogonalEdgeStyle;curved=1;rounded=0;sketch=1;orthogonalLoop=1;jettySize=auto;html=1;entryX=0;entryY=0.5;entryDx=0;entryDy=0;dashed=1;fontSize=12;fontColor=#000000;" parent="1" source="6PNHSr4lHcM40_FDZ9yp-1" target="6PNHSr4lHcM40_FDZ9yp-2" edge="1">
          <mxGeometry relative="1" as="geometry" />
        </mxCell>
        <mxCell id="6PNHSr4lHcM40_FDZ9yp-1" value="iscsi_subsystem_init" style="rounded=1;whiteSpace=wrap;html=1;strokeWidth=2;fillWeight=4;hachureGap=8;hachureAngle=45;sketch=1;shadow=0;fontSize=12;fontColor=#000000;fillColor=#FFFFFF;" parent="1" vertex="1">
          <mxGeometry x="40" y="40" width="120" height="40" as="geometry" />
        </mxCell>
        <mxCell id="6PNHSr4lHcM40_FDZ9yp-6" style="edgeStyle=orthogonalEdgeStyle;curved=1;rounded=0;sketch=1;orthogonalLoop=1;jettySize=auto;html=1;entryX=0;entryY=0.5;entryDx=0;entryDy=0;dashed=1;fontSize=12;fontColor=#000000;" parent="1" source="6PNHSr4lHcM40_FDZ9yp-2" target="6PNHSr4lHcM40_FDZ9yp-3" edge="1">
          <mxGeometry relative="1" as="geometry" />
        </mxCell>
        <mxCell id="6PNHSr4lHcM40_FDZ9yp-13" style="edgeStyle=orthogonalEdgeStyle;curved=1;rounded=0;sketch=1;orthogonalLoop=1;jettySize=auto;html=1;entryX=0.5;entryY=0;entryDx=0;entryDy=0;dashed=1;fontSize=12;fontColor=#000000;" parent="1" source="6PNHSr4lHcM40_FDZ9yp-2" target="6PNHSr4lHcM40_FDZ9yp-9" edge="1">
          <mxGeometry relative="1" as="geometry" />
        </mxCell>
        <mxCell id="6PNHSr4lHcM40_FDZ9yp-2" value="spdk_iscsi_init" style="rounded=1;whiteSpace=wrap;html=1;strokeWidth=2;fillWeight=4;hachureGap=8;hachureAngle=45;sketch=1;shadow=0;fontSize=12;fontColor=#000000;fillColor=#FFFFFF;" parent="1" vertex="1">
          <mxGeometry x="200" y="40" width="120" height="40" as="geometry" />
        </mxCell>
        <mxCell id="6PNHSr4lHcM40_FDZ9yp-7" style="edgeStyle=orthogonalEdgeStyle;curved=1;rounded=0;sketch=1;orthogonalLoop=1;jettySize=auto;html=1;entryX=0;entryY=0.5;entryDx=0;entryDy=0;dashed=1;fontSize=12;fontColor=#000000;" parent="1" source="6PNHSr4lHcM40_FDZ9yp-3" target="6PNHSr4lHcM40_FDZ9yp-4" edge="1">
          <mxGeometry relative="1" as="geometry" />
        </mxCell>
        <mxCell id="6PNHSr4lHcM40_FDZ9yp-3" value="iscsi_subsystem_&lt;br&gt;init_complete" style="rounded=1;whiteSpace=wrap;html=1;strokeWidth=2;fillWeight=4;hachureGap=8;hachureAngle=45;sketch=1;shadow=0;fontSize=12;fontColor=#000000;fillColor=#FFFFFF;" parent="1" vertex="1">
          <mxGeometry x="360" y="40" width="120" height="40" as="geometry" />
        </mxCell>
        <mxCell id="6PNHSr4lHcM40_FDZ9yp-4" value="spdk_subsystem_&lt;br&gt;init_next" style="rounded=1;whiteSpace=wrap;html=1;strokeWidth=2;fillWeight=4;hachureGap=8;hachureAngle=45;sketch=1;shadow=0;fontSize=12;fontColor=#000000;fillColor=#FFFFFF;" parent="1" vertex="1">
          <mxGeometry x="520" y="40" width="120" height="40" as="geometry" />
        </mxCell>
        <UserObject label="callback" placeholders="1" name="Variable" id="6PNHSr4lHcM40_FDZ9yp-8">
          <mxCell style="text;html=1;strokeColor=none;fillColor=none;align=center;verticalAlign=middle;whiteSpace=wrap;overflow=hidden;shadow=0;sketch=1;fillWeight=1;hachureGap=4;fontSize=12;fontColor=#000000;" parent="1" vertex="1">
            <mxGeometry x="310" y="20" width="60" height="20" as="geometry" />
          </mxCell>
        </UserObject>
        <mxCell id="6PNHSr4lHcM40_FDZ9yp-14" style="edgeStyle=orthogonalEdgeStyle;curved=1;rounded=0;sketch=1;orthogonalLoop=1;jettySize=auto;html=1;entryX=0.5;entryY=0;entryDx=0;entryDy=0;fontSize=12;fontColor=#000000;" parent="1" source="6PNHSr4lHcM40_FDZ9yp-9" target="6PNHSr4lHcM40_FDZ9yp-11" edge="1">
          <mxGeometry relative="1" as="geometry" />
        </mxCell>
        <mxCell id="6PNHSr4lHcM40_FDZ9yp-19" style="edgeStyle=orthogonalEdgeStyle;curved=1;rounded=0;sketch=1;orthogonalLoop=1;jettySize=auto;html=1;entryX=0;entryY=0.5;entryDx=0;entryDy=0;fontSize=12;fontColor=#000000;dashed=1;" parent="1" source="6PNHSr4lHcM40_FDZ9yp-9" target="6PNHSr4lHcM40_FDZ9yp-18" edge="1">
          <mxGeometry relative="1" as="geometry" />
        </mxCell>
        <mxCell id="6PNHSr4lHcM40_FDZ9yp-9" value="iscsi_parse_globals" style="rounded=1;whiteSpace=wrap;html=1;strokeWidth=2;fillWeight=4;hachureGap=8;hachureAngle=45;sketch=1;shadow=0;fontSize=12;fontColor=#000000;fillColor=#FFFFFF;" parent="1" vertex="1">
          <mxGeometry x="200" y="100" width="120" height="40" as="geometry" />
        </mxCell>
        <mxCell id="6PNHSr4lHcM40_FDZ9yp-16" style="edgeStyle=orthogonalEdgeStyle;curved=1;rounded=0;sketch=1;orthogonalLoop=1;jettySize=auto;html=1;entryX=0.5;entryY=0;entryDx=0;entryDy=0;fontSize=12;fontColor=#000000;" parent="1" source="6PNHSr4lHcM40_FDZ9yp-11" target="6PNHSr4lHcM40_FDZ9yp-15" edge="1">
          <mxGeometry relative="1" as="geometry" />
        </mxCell>
        <mxCell id="6PNHSr4lHcM40_FDZ9yp-11" value="rc &amp;lt; 0" style="rhombus;whiteSpace=wrap;html=1;strokeWidth=2;fillWeight=-1;hachureGap=8;fillStyle=cross-hatch;sketch=1;shadow=0;fontSize=12;fontColor=#000000;fillColor=#FFFFFF;" parent="1" vertex="1">
          <mxGeometry x="200" y="160" width="120" height="40" as="geometry" />
        </mxCell>
        <mxCell id="6PNHSr4lHcM40_FDZ9yp-15" value="iscsi_init_complete(-1)" style="rounded=1;whiteSpace=wrap;html=1;strokeWidth=2;fillWeight=4;hachureGap=8;hachureAngle=45;sketch=1;shadow=0;fontSize=12;fontColor=#000000;fillColor=#FFFFFF;" parent="1" vertex="1">
          <mxGeometry x="200" y="220" width="120" height="40" as="geometry" />
        </mxCell>
        <UserObject label="true" placeholders="1" name="Variable" id="6PNHSr4lHcM40_FDZ9yp-17">
          <mxCell style="text;html=1;strokeColor=none;fillColor=none;align=center;verticalAlign=middle;whiteSpace=wrap;overflow=hidden;shadow=0;sketch=1;fillWeight=1;hachureGap=4;fontSize=12;fontColor=#000000;" parent="1" vertex="1">
            <mxGeometry x="260" y="200" width="60" height="20" as="geometry" />
          </mxCell>
        </UserObject>
        <mxCell id="6PNHSr4lHcM40_FDZ9yp-21" style="edgeStyle=orthogonalEdgeStyle;curved=1;rounded=0;sketch=1;orthogonalLoop=1;jettySize=auto;html=1;entryX=0.5;entryY=0;entryDx=0;entryDy=0;fontSize=12;fontColor=#000000;" parent="1" source="6PNHSr4lHcM40_FDZ9yp-18" target="6PNHSr4lHcM40_FDZ9yp-20" edge="1">
          <mxGeometry relative="1" as="geometry" />
        </mxCell>
        <mxCell id="6PNHSr4lHcM40_FDZ9yp-27" style="edgeStyle=orthogonalEdgeStyle;curved=1;rounded=0;sketch=1;orthogonalLoop=1;jettySize=auto;html=1;entryX=0;entryY=0.5;entryDx=0;entryDy=0;fontSize=12;fontColor=#000000;dashed=1;" parent="1" source="6PNHSr4lHcM40_FDZ9yp-18" target="6PNHSr4lHcM40_FDZ9yp-26" edge="1">
          <mxGeometry relative="1" as="geometry" />
        </mxCell>
        <mxCell id="6PNHSr4lHcM40_FDZ9yp-18" value="iscsi_initialize_&lt;br&gt;global_params" style="rounded=1;whiteSpace=wrap;html=1;strokeWidth=2;fillWeight=4;hachureGap=8;hachureAngle=45;sketch=1;shadow=0;fontSize=12;fontColor=#000000;fillColor=#FFFFFF;" parent="1" vertex="1">
          <mxGeometry x="360" y="100" width="120" height="40" as="geometry" />
        </mxCell>
        <mxCell id="6PNHSr4lHcM40_FDZ9yp-24" style="edgeStyle=orthogonalEdgeStyle;curved=1;rounded=0;sketch=1;orthogonalLoop=1;jettySize=auto;html=1;entryX=0.5;entryY=0;entryDx=0;entryDy=0;fontSize=12;fontColor=#000000;" parent="1" source="6PNHSr4lHcM40_FDZ9yp-20" target="6PNHSr4lHcM40_FDZ9yp-22" edge="1">
          <mxGeometry relative="1" as="geometry" />
        </mxCell>
        <mxCell id="6PNHSr4lHcM40_FDZ9yp-29" style="edgeStyle=orthogonalEdgeStyle;curved=1;rounded=0;sketch=1;orthogonalLoop=1;jettySize=auto;html=1;dashed=1;fontSize=12;fontColor=#000000;" parent="1" source="6PNHSr4lHcM40_FDZ9yp-20" target="6PNHSr4lHcM40_FDZ9yp-28" edge="1">
          <mxGeometry relative="1" as="geometry" />
        </mxCell>
        <mxCell id="6PNHSr4lHcM40_FDZ9yp-20" value="iscsi_initialize_&lt;br&gt;all_pools" style="rounded=1;whiteSpace=wrap;html=1;strokeWidth=2;fillWeight=4;hachureGap=8;hachureAngle=45;sketch=1;shadow=0;fontSize=12;fontColor=#000000;fillColor=#FFFFFF;" parent="1" vertex="1">
          <mxGeometry x="360" y="160" width="120" height="40" as="geometry" />
        </mxCell>
        <mxCell id="6PNHSr4lHcM40_FDZ9yp-25" style="edgeStyle=orthogonalEdgeStyle;curved=1;rounded=0;sketch=1;orthogonalLoop=1;jettySize=auto;html=1;entryX=0.5;entryY=0;entryDx=0;entryDy=0;fontSize=12;fontColor=#000000;" parent="1" source="6PNHSr4lHcM40_FDZ9yp-22" target="6PNHSr4lHcM40_FDZ9yp-23" edge="1">
          <mxGeometry relative="1" as="geometry" />
        </mxCell>
        <mxCell id="6PNHSr4lHcM40_FDZ9yp-36" style="edgeStyle=orthogonalEdgeStyle;curved=1;rounded=0;sketch=1;orthogonalLoop=1;jettySize=auto;html=1;entryX=0;entryY=0.5;entryDx=0;entryDy=0;fontSize=12;fontColor=#000000;dashed=1;" parent="1" source="6PNHSr4lHcM40_FDZ9yp-22" target="6PNHSr4lHcM40_FDZ9yp-35" edge="1">
          <mxGeometry relative="1" as="geometry" />
        </mxCell>
        <mxCell id="6PNHSr4lHcM40_FDZ9yp-22" value="initialize_iscsi_conns" style="rounded=1;whiteSpace=wrap;html=1;strokeWidth=2;fillWeight=4;hachureGap=8;hachureAngle=45;sketch=1;shadow=0;fontSize=12;fontColor=#000000;fillColor=#FFFFFF;" parent="1" vertex="1">
          <mxGeometry x="360" y="220" width="120" height="40" as="geometry" />
        </mxCell>
        <mxCell id="6PNHSr4lHcM40_FDZ9yp-38" style="edgeStyle=orthogonalEdgeStyle;curved=1;rounded=0;sketch=1;orthogonalLoop=1;jettySize=auto;html=1;dashed=1;fontSize=12;fontColor=#000000;" parent="1" source="6PNHSr4lHcM40_FDZ9yp-23" target="6PNHSr4lHcM40_FDZ9yp-37" edge="1">
          <mxGeometry relative="1" as="geometry" />
        </mxCell>
        <mxCell id="6PNHSr4lHcM40_FDZ9yp-23" value="initialize_iscsi_&lt;br&gt;poll_group" style="rounded=1;whiteSpace=wrap;html=1;strokeWidth=2;fillWeight=4;hachureGap=8;hachureAngle=45;sketch=1;shadow=0;fontSize=12;fontColor=#000000;fillColor=#FFFFFF;" parent="1" vertex="1">
          <mxGeometry x="360" y="280" width="120" height="40" as="geometry" />
        </mxCell>
        <mxCell id="6PNHSr4lHcM40_FDZ9yp-26" value="spdk_iscsi_globals&lt;br&gt;(g_iscsi)" style="rounded=1;whiteSpace=wrap;html=1;strokeWidth=2;fillWeight=1;hachureGap=4;hachureAngle=45;sketch=1;shadow=0;fontSize=12;fillColor=#d5e8d4;strokeColor=#82b366;" parent="1" vertex="1">
          <mxGeometry x="520" y="100" width="120" height="40" as="geometry" />
        </mxCell>
        <mxCell id="6PNHSr4lHcM40_FDZ9yp-34" style="edgeStyle=orthogonalEdgeStyle;curved=1;rounded=0;sketch=1;orthogonalLoop=1;jettySize=auto;html=1;entryX=0;entryY=0.5;entryDx=0;entryDy=0;fontSize=12;fontColor=#000000;" parent="1" source="6PNHSr4lHcM40_FDZ9yp-28" target="6PNHSr4lHcM40_FDZ9yp-30" edge="1">
          <mxGeometry relative="1" as="geometry" />
        </mxCell>
        <mxCell id="6PNHSr4lHcM40_FDZ9yp-28" value="iscsi_initialize_&lt;br&gt;pdu_pool" style="rounded=1;whiteSpace=wrap;html=1;strokeWidth=2;fillWeight=4;hachureGap=8;hachureAngle=45;sketch=1;shadow=0;fontSize=12;fontColor=#000000;fillColor=#FFFFFF;" parent="1" vertex="1">
          <mxGeometry x="520" y="160" width="120" height="40" as="geometry" />
        </mxCell>
        <mxCell id="6PNHSr4lHcM40_FDZ9yp-33" style="edgeStyle=orthogonalEdgeStyle;curved=1;rounded=0;sketch=1;orthogonalLoop=1;jettySize=auto;html=1;entryX=0.5;entryY=0;entryDx=0;entryDy=0;fontSize=12;fontColor=#000000;" parent="1" source="6PNHSr4lHcM40_FDZ9yp-30" target="6PNHSr4lHcM40_FDZ9yp-32" edge="1">
          <mxGeometry relative="1" as="geometry" />
        </mxCell>
        <mxCell id="6PNHSr4lHcM40_FDZ9yp-30" value="iscsi_initialize_&lt;br&gt;session_pool" style="rounded=1;whiteSpace=wrap;html=1;strokeWidth=2;fillWeight=4;hachureGap=8;hachureAngle=45;sketch=1;shadow=0;fontSize=12;fontColor=#000000;fillColor=#FFFFFF;" parent="1" vertex="1">
          <mxGeometry x="680" y="160" width="120" height="40" as="geometry" />
        </mxCell>
        <mxCell id="6PNHSr4lHcM40_FDZ9yp-32" value="iscsi_initialize_&lt;br&gt;task_pool" style="rounded=1;whiteSpace=wrap;html=1;strokeWidth=2;fillWeight=4;hachureGap=8;hachureAngle=45;sketch=1;shadow=0;fontSize=12;fontColor=#000000;fillColor=#FFFFFF;" parent="1" vertex="1">
          <mxGeometry x="680" y="220" width="120" height="40" as="geometry" />
        </mxCell>
        <mxCell id="6PNHSr4lHcM40_FDZ9yp-35" value="g_conns_array&lt;br&gt;g_free_conns" style="rounded=1;whiteSpace=wrap;html=1;strokeWidth=2;fillWeight=1;hachureGap=4;hachureAngle=45;sketch=1;shadow=0;fontSize=12;fillColor=#d5e8d4;strokeColor=#82b366;" parent="1" vertex="1">
          <mxGeometry x="520" y="220" width="120" height="40" as="geometry" />
        </mxCell>
        <mxCell id="6PNHSr4lHcM40_FDZ9yp-41" style="edgeStyle=orthogonalEdgeStyle;curved=1;rounded=0;sketch=1;orthogonalLoop=1;jettySize=auto;html=1;entryX=0;entryY=0.5;entryDx=0;entryDy=0;dashed=1;fontSize=12;fontColor=#000000;" parent="1" source="6PNHSr4lHcM40_FDZ9yp-37" target="6PNHSr4lHcM40_FDZ9yp-39" edge="1">
          <mxGeometry relative="1" as="geometry" />
        </mxCell>
        <mxCell id="6PNHSr4lHcM40_FDZ9yp-42" style="edgeStyle=orthogonalEdgeStyle;curved=1;rounded=0;sketch=1;orthogonalLoop=1;jettySize=auto;html=1;entryX=0;entryY=0.5;entryDx=0;entryDy=0;dashed=1;fontSize=12;fontColor=#000000;" parent="1" source="6PNHSr4lHcM40_FDZ9yp-37" target="6PNHSr4lHcM40_FDZ9yp-40" edge="1">
          <mxGeometry relative="1" as="geometry" />
        </mxCell>
        <mxCell id="6PNHSr4lHcM40_FDZ9yp-45" style="edgeStyle=orthogonalEdgeStyle;curved=1;rounded=0;sketch=1;orthogonalLoop=1;jettySize=auto;html=1;entryX=0.5;entryY=0;entryDx=0;entryDy=0;fontSize=12;fontColor=#000000;" parent="1" source="6PNHSr4lHcM40_FDZ9yp-37" target="6PNHSr4lHcM40_FDZ9yp-44" edge="1">
          <mxGeometry relative="1" as="geometry" />
        </mxCell>
        <mxCell id="6PNHSr4lHcM40_FDZ9yp-37" value="spdk_io_device_&lt;br&gt;register(g_iscsi)" style="rounded=1;whiteSpace=wrap;html=1;strokeWidth=2;fillWeight=4;hachureGap=8;hachureAngle=45;sketch=1;shadow=0;fontSize=12;fontColor=#000000;fillColor=#FFFFFF;" parent="1" vertex="1">
          <mxGeometry x="520" y="280" width="120" height="40" as="geometry" />
        </mxCell>
        <mxCell id="6PNHSr4lHcM40_FDZ9yp-39" value="iscsi_poll_group_&lt;br&gt;create" style="rounded=1;whiteSpace=wrap;html=1;strokeWidth=2;fillWeight=4;hachureGap=8;hachureAngle=45;sketch=1;shadow=0;fontSize=12;fontColor=#000000;fillColor=#FFFFFF;" parent="1" vertex="1">
          <mxGeometry x="680" y="280" width="120" height="40" as="geometry" />
        </mxCell>
        <mxCell id="6PNHSr4lHcM40_FDZ9yp-40" value="iscsi_poll_group_&lt;br&gt;destroy" style="rounded=1;whiteSpace=wrap;html=1;strokeWidth=2;fillWeight=4;hachureGap=8;hachureAngle=45;sketch=1;shadow=0;fontSize=12;fontColor=#000000;fillColor=#FFFFFF;" parent="1" vertex="1">
          <mxGeometry x="680" y="340" width="120" height="40" as="geometry" />
        </mxCell>
        <UserObject label="callback" placeholders="1" name="Variable" id="6PNHSr4lHcM40_FDZ9yp-43">
          <mxCell style="text;html=1;strokeColor=none;fillColor=none;align=center;verticalAlign=middle;whiteSpace=wrap;overflow=hidden;shadow=0;sketch=1;fillWeight=1;hachureGap=4;fontSize=12;fontColor=#000000;" parent="1" vertex="1">
            <mxGeometry x="640" y="320" width="60" height="20" as="geometry" />
          </mxCell>
        </UserObject>
        <mxCell id="6PNHSr4lHcM40_FDZ9yp-47" style="edgeStyle=orthogonalEdgeStyle;curved=1;rounded=0;sketch=1;orthogonalLoop=1;jettySize=auto;html=1;entryX=0.5;entryY=0;entryDx=0;entryDy=0;fontSize=12;fontColor=#000000;" parent="1" source="6PNHSr4lHcM40_FDZ9yp-44" target="6PNHSr4lHcM40_FDZ9yp-46" edge="1">
          <mxGeometry relative="1" as="geometry" />
        </mxCell>
        <mxCell id="6PNHSr4lHcM40_FDZ9yp-44" value="spdk_thread_create&lt;br&gt;(iscsi_poll_group_${i})" style="rounded=1;whiteSpace=wrap;html=1;strokeWidth=2;fillWeight=4;hachureGap=8;hachureAngle=45;sketch=1;shadow=0;fontSize=12;fontColor=#000000;fillColor=#FFFFFF;" parent="1" vertex="1">
          <mxGeometry x="520" y="340" width="120" height="40" as="geometry" />
        </mxCell>
        <mxCell id="6PNHSr4lHcM40_FDZ9yp-48" style="edgeStyle=orthogonalEdgeStyle;curved=1;rounded=0;sketch=1;orthogonalLoop=1;jettySize=auto;html=1;entryX=0;entryY=0.5;entryDx=0;entryDy=0;fontSize=12;fontColor=#000000;exitX=0;exitY=0.5;exitDx=0;exitDy=0;" parent="1" source="6PNHSr4lHcM40_FDZ9yp-46" target="6PNHSr4lHcM40_FDZ9yp-44" edge="1">
          <mxGeometry relative="1" as="geometry">
            <Array as="points">
              <mxPoint x="500" y="420" />
              <mxPoint x="500" y="360" />
            </Array>
          </mxGeometry>
        </mxCell>
        <mxCell id="6PNHSr4lHcM40_FDZ9yp-49" value="cores" style="edgeLabel;html=1;align=center;verticalAlign=middle;resizable=0;points=[];fontSize=12;fontColor=#000000;" parent="6PNHSr4lHcM40_FDZ9yp-48" vertex="1" connectable="0">
          <mxGeometry x="-0.1366" relative="1" as="geometry">
            <mxPoint y="-7" as="offset" />
          </mxGeometry>
        </mxCell>
        <mxCell id="6PNHSr4lHcM40_FDZ9yp-51" style="edgeStyle=orthogonalEdgeStyle;curved=1;rounded=0;sketch=1;orthogonalLoop=1;jettySize=auto;html=1;entryX=0;entryY=0.5;entryDx=0;entryDy=0;fontSize=12;fontColor=#000000;dashed=1;" parent="1" source="6PNHSr4lHcM40_FDZ9yp-46" target="6PNHSr4lHcM40_FDZ9yp-50" edge="1">
          <mxGeometry relative="1" as="geometry" />
        </mxCell>
        <mxCell id="6PNHSr4lHcM40_FDZ9yp-46" value="spdk_thread_&lt;br&gt;send_msg" style="rounded=1;whiteSpace=wrap;html=1;strokeWidth=2;fillWeight=4;hachureGap=8;hachureAngle=45;sketch=1;shadow=0;fontSize=12;fontColor=#000000;fillColor=#FFFFFF;" parent="1" vertex="1">
          <mxGeometry x="520" y="400" width="120" height="40" as="geometry" />
        </mxCell>
        <mxCell id="6PNHSr4lHcM40_FDZ9yp-50" value="_iscsi_init_thread" style="rounded=1;whiteSpace=wrap;html=1;strokeWidth=2;fillWeight=4;hachureGap=8;hachureAngle=45;sketch=1;shadow=0;fontSize=12;fontColor=#000000;fillColor=#FFFFFF;" parent="1" vertex="1">
          <mxGeometry x="680" y="400" width="120" height="40" as="geometry" />
        </mxCell>
        <UserObject label="message" placeholders="1" name="Variable" id="6PNHSr4lHcM40_FDZ9yp-52">
          <mxCell style="text;html=1;strokeColor=none;fillColor=none;align=center;verticalAlign=middle;whiteSpace=wrap;overflow=hidden;shadow=0;sketch=1;fillWeight=1;hachureGap=4;fontSize=12;fontColor=#000000;" parent="1" vertex="1">
            <mxGeometry x="630" y="380" width="60" height="20" as="geometry" />
          </mxCell>
        </UserObject>
      </root>
    </mxGraphModel>
  </diagram>
</mxfile>
